<?xml version="1.0" standalone="no"?>
<!DOCTYPE svg PUBLIC "-//W3C//DTD SVG 1.1//EN" "http://www.w3.org/Graphics/SVG/1.1/DTD/svg11.dtd" >
<svg xmlns="http://www.w3.org/2000/svg" xmlns:xlink="http://www.w3.org/1999/xlink" version="1.1">
<metadata>
Created by FontForge 20170731 at Fri Jul 16 07:58:52 2021
 By Aleksey,,,
Typeface (c) Tiny Hand Letter 2021. All Rights Reserved
</metadata>
<defs>
<font id="EggHunter" horiz-adv-x="1089" >
  <font-face 
    font-family="Egg Hunter"
    font-weight="400"
    font-stretch="normal"
    units-per-em="2048"
    panose-1="2 0 5 0 0 0 0 0 0 0"
    ascent="1638"
    descent="-410"
    x-height="896"
    cap-height="1434"
    bbox="-197 -750 2372 1962"
    underline-thickness="150"
    underline-position="-442"
    unicode-range="U+001D-E129"
  />
<missing-glyph horiz-adv-x="899" 
d="M25 0v1434h824v-1434h-824zM75 50q353 159 724 0v1334q-384 -118 -724 0v-1334zM344 334l57 58q11 10 20 10q10 0 22 -11l56 -60q9 -11 9 -20q0 -11 -10 -22l-56 -62q-14 -14 -21 -14q-11 0 -20 10l-61 71q-7 9 -7 18q0 10 11 22zM338 1191q53 30 112 30q92 0 148 -47.5
t56 -127.5q0 -49 -23 -98.5t-87 -129.5q-63 -80 -99 -132t-36 -99q0 -38 24 -133h-32q-35 97 -35 148q0 76 81.5 218t81.5 217q0 57 -33 90t-91 33q-8 0 -16 -1l32 -51q7 -12 5 -21q-2 -11 -14 -20l-66 -50q-17 -11 -24 -10q-10 2 -17 14l-47 81q-5 10 -3 19q1 10 28.5 32.5
t54.5 37.5z" />
    <glyph glyph-name="a.swsh" unicode="a__" horiz-adv-x="1789" 
d="M339 174q132 0 289 106q5 27 8 56q-94 87 -203 87q-94 0 -169 -63q-56 -51 -56 -98q0 -30 24 -55q38 -33 107 -33zM863 790q-55 0 -102 30t-71 84l1 1q6 -15 15 -29q174 9 338 147q-8 36 -41 82l-38 17q-42 20 -52 22q-11 0 -13 -11q-5 -49 -19 -97q-26 13 -49 31
q-35 25 -42 25q-6 0 -10 -5q-25 -46 -35 -99q-21 15 -40 33q-34 31 -41 31q4 -88 27 -147l-1 -1q-27 71 -27 164q0 66 18 123.5t60 76.5q14 7 32 7q48 0 102 -38.5t98 -90.5t63 -96q14 -37 14 -73q0 -55 -30 -102t-84 -71q-37 -14 -73 -14zM338 -2q-135 0 -226 80
q-82 78 -82 179q0 57 26 113q31 69 92 122t140 82q71 26 149 26q101 0 206 -52q-8 72 -39 115q-12 17 -30 27q-42 22 -97 22q-27 0 -57 -5q-101 -17 -176 -74q-36 -27 -55 -58q-31 -43 -76 -43q-23 0 -45 12q-43 30 -43 75q0 23 12 45q37 62 101 109q111 83 253 108
q43 8 87 8q100 0 186 -47q45 -27 80 -72q78 -106 78 -296q0 -116 -25 -250q-16 -85 -31 -142q-10 -38 -42 -55q146 5 279.5 80t200.5 200q38 79 63 164q-74 51 -74 148q0 37 5 67q14 101 90 167q20 17 41 17q12 0 21 -12t9 -74q0 -40 -5 -80l5 8l-1 3q0 2 1 3q39 97 45 202
q-3 1 -4.5 3t-2.5 3q-7 9 -7 20q0 13 10 21.5t20 8.5q14 0 24 -12q7 -9 7 -19q0 -13 -11 -24q-10 -6 -21 -6q-6 -88 -34 -171q27 32 62 57q21 17 43 17q9 0 18 -5q13 -11 13 -29q0 -24 -15 -49q-27 -52 -56 -104q21 32 53 53q64 105 85 226q-17 9 -17 27q0 14 10 22.5
t21 8.5q13 0 23 -11q6 -9 6 -19q0 -14 -11 -24q-8 -6 -17 -7q-19 -108 -72 -205l15 8q66 65 137 125q-4 8 -4 16q0 14 11 24q9 6 19 6q14 0 24 -11q6 -9 6 -19q0 -13 -11 -24q-9 -6 -19 -6q-8 0 -14 3q-59 -49 -114 -102q14 3 28 3q47 0 52 -44q0 -20 -13 -38
q-49 -83 -124.5 -135t-165.5 -52q-31 0 -71 9l-10 2q-23 -78 -57.5 -150.5t-89.5 -132.5q-76 -78 -192.5 -123t-227.5 -45h-16l-12 -1q-11 0 -23 3q-39 11 -57 44q-137 -64 -264 -64zM1002 735l-14 1q-13 1 -28 8q11 13 24 18q12 7 27 8l11 1l17 -2q14 -3 27 -13
q-13 -10 -27 -14.5t-37 -6.5zM1126 847q-13 9 -19 19.5t-8.5 20.5t-2.5 19q1 19 7 33q31 -22 31 -66q-1 -12 -8 -26zM1072 168q-27 16 -49 40q-26 24 -37 57q-4 13 -4 27q0 45 32 83q17 21 43 32q16 8 34 8q26 0 40 -27q21 -41 21 -80q-2 -81 -66 -130l-3 -1l-4 1l2 -5
q0 -6 -6 -6zM1149 46q-26 6 -38 32q-9 21 -9 43q1 17 3 18t3 1q3 0 4 -1l2 1l-2 3q0 2 2 4t5 2q32 -8 54 -29q16 -16 16 -36q0 -7 -2 -13q-11 -25 -34 -25h-4zM1225 141q-18 0 -36 2q-33 3 -58 23q-2 2 -2 4q0 5 5 5l5 -2l-3 -4l-2 1l6 -5l-4 -2q-6 0 -6 6l1 3
q74 82 176 100q23 6 47 6l19 -2q30 -5 36 -35v-5q0 -28 -25 -48q-46 -40 -129 -46zM690 980q-12 0 -12 12t12 12t12 -12t-12 -12zM810 1020q-12 0 -12 12t12 12t12 -12t-12 -12zM937 1077q-12 0 -12 12t12 12t12 -12t-12 -12zM756 824q84 4 160.5 36t131.5 95q2 12 2 22
l-1 18q-63 -90 -175 -126q-67 -21 -136 -21h-10q13 -13 28 -24zM685 1203q79 5 133 62q-14 5 -27 8q-39 -37 -93 -45q-7 -11 -13 -25z" />
    <glyph glyph-name="b.swsh" unicode="b__" horiz-adv-x="1681" 
d="M755 806q-55 0 -102 30t-71 84l1 1q6 -15 15 -29q176 9 338 147q-7 34 -41 82l-38 17q-42 20 -52 22q-11 0 -13 -11q-6 -49 -19 -97q-26 13 -49 31q-35 25 -42 25q-6 0 -10 -5q-24 -42 -34 -89l-2 -10q-19 15 -37 31q-36 33 -43 33q2 -88 27 -147l-1 -1q-27 71 -27 164
q0 66 17.5 123.5t59.5 76.5q15 6 33 6q48 0 102 -38.5t97.5 -90t62.5 -95.5q15 -37 15 -73q0 -55 -30.5 -102t-84.5 -71q-36 -14 -72 -14zM177 -62q-33 0 -58 21.5t-30 55.5q-64 494 -64 1055q0 128 3 267q2 37 27 61.5t62 24.5q37 -2 62 -27t25 -62q-3 -140 -3 -269
q0 -206 8 -387q126 75 258 75q58 0 111 -14q104 -30 177 -98q83 -76 108 -180q9 -39 9 -76q0 -80 -39 -149q-58 -102 -172 -162q-36 -18 -76 -31h17q144 0 284 76t209 204q39 79 64 164q-74 50 -74 148q0 37 6 67q13 100 89 167q20 17 41 17q12 0 21 -12t9 -72q0 -41 -6 -82
l6 7l-1 7q40 97 46 201l-8 7q-6 9 -6 19q0 14 11 24q9 6 19 6q14 0 24 -11q6 -9 6 -19q0 -13 -11 -24q-8 -6 -17 -6h-3q-5 -88 -35 -171q29 32 63 57q21 17 43 17q9 0 17 -5q14 -11 14 -29q0 -24 -15 -49l-56 -104q22 31 52 53q65 105 86 226q-17 9 -17 27q0 14 11 24
q9 7 19 7q13 0 24 -11q6 -9 6 -19q0 -14 -11 -24q-8 -7 -17 -7q-20 -108 -73 -205l16 8q66 65 137 125q-4 8 -4 16q0 13 11 24q9 6 19 6q13 0 24 -11q6 -9 6 -19q0 -13 -11 -24q-9 -6 -20 -6q-7 0 -14 3q-58 -49 -114 -102q15 3 28 3q23 0 38 -13q13 -10 15 -30
q0 -21 -13 -39q-49 -84 -124.5 -135.5t-164.5 -51.5q-30 0 -69 8l-14 3q-22 -78 -56.5 -150.5t-89.5 -132.5q-76 -79 -192.5 -123.5t-227.5 -44.5q-22 0 -44 2q-67 -17 -138 -17q-78 0 -157 26l2 -16q0 -33 -21.5 -58t-55.5 -30zM893 751l-13 1q-13 1 -29 7q11 14 24.5 20
t26.5 7l12 1l17 -2q14 -3 27 -13q-13 -10 -27.5 -14.5t-37.5 -6.5zM1018 863q-12 9 -18.5 19.5t-9 20.5t-2.5 19v6q0 14 7 26q13 -8 19 -18.5t8.5 -21t2.5 -19.5v-6q0 -12 -7 -26zM964 184q-28 16 -50 40q-40 39 -40 84t31 83q18 21 44 32q16 8 34 8q25 0 40 -27
q21 -40 21 -87q-5 -77 -66 -123l-4 -1q-2 0 -3 1l-1 -1q2 -2 2 -4q0 -6 -5 -6zM1046 62q-31 2 -43 32q-9 20 -9 43q0 7 1.5 13t4.5 6l4 -1l1 1l-1 3q0 2 1.5 3.5t4.5 1.5q33 -7 55 -28q15 -16 15 -36q0 -19 -14 -31q-9 -7 -20 -7zM1113 156q-57 0 -91 26q-2 2 -2 4q0 5 6 5
q2 0 5 -3l-1 -1q-2 -1 -3 -3l-1 2q1 -2 2.5 -3t2.5 -2q-2 -2 -4 -2q-5 0 -5 6l1 3q46 51 110 80q32 14 65 20q23 6 47 6l20 -2q29 -5 36 -35v-5q0 -28 -25 -48q-46 -40 -130 -46zM582 996q-12 0 -12 12t12 12q11 0 11 -12t-11 -12zM702 1036q-12 0 -12 12t12 12q11 0 11 -12
t-11 -12zM829 1093q-12 0 -12 12t12 12t12 -12t-12 -12zM648 840q84 3 160.5 35.5t131.5 94.5q2 11 2 23l-1 18q-63 -90 -176 -126q-66 -21 -135 -21h-10q13 -13 28 -24zM577 1219q79 5 132 62q-13 5 -26 8q-40 -38 -93 -45q-8 -11 -13 -25zM421 193q86 0 159 38
q68 35 99 90q17 30 17 65q0 17 -4 34q-13 51 -56 91t-104 57q-33 9 -69 9q-32 0 -66 -8q-85 -19 -176 -103q9 -111 19 -215q81 -58 181 -58z" />
    <glyph glyph-name="c.swsh" unicode="c__" horiz-adv-x="1566" 
d="M779 828q-55 0 -102 30.5t-71 84.5l15 -29q174 9 339 147l-9 27q-11 26 -32 55l-38 17q-42 20 -52 22q-11 0 -13 -11q-6 -49 -19 -97q-26 13 -49 31q-35 25 -42 25q-6 0 -10 -5q-24 -42 -34 -90l-2 -8q-19 14 -37 30.5t-38 30.5l-5 3q3 -90 26 -148q-27 70 -27 163
q0 67 17.5 124t59.5 77q16 6 32 6q48 0 102.5 -38.5t98 -90.5t62.5 -96q15 -35 15 -73q0 -55 -30.5 -101.5t-84.5 -70.5q-36 -15 -72 -15zM374 7q-76 0 -138 31l-5 3q-73 39 -121 106q-85 125 -85 289q0 126 53 223.5t135 157.5q114 86 242 86q125 0 209 -83q52 -53 78 -141
q3 -12 3 -23q0 -30 -17.5 -53.5t-47.5 -32.5q-11 -3 -23 -3q-29 0 -52.5 17.5t-32.5 47.5q-23 76 -80 90q-18 5 -38 5q-68 0 -136 -51q-50 -38 -83.5 -99.5t-33.5 -142.5l1 -26q6 -91 51 -159q21 -27 61 -53q27 -12 62 -12h13q81 4 200 86q25 17 51 17q42 0 72 -37
q16 -25 16 -51q0 -42 -37 -72q-112 -79 -207 -105h3q144 0 284 76.5t209 204.5q39 79 63 164q-73 50 -73 147q0 37 6 68q13 102 89 167q20 17 40 17q13 0 21.5 -12t8.5 -74q0 -40 -5 -80l5 8l-1 3l1 3q39 97 45 201l-2 2q-11 9 -11 24q0 14 11 24q9 6 19 6q13 0 24 -11
q6 -9 6 -19q0 -13 -11 -24q-9 -6 -21 -6q-5 -88 -34 -171q29 32 63 57q24 17 43 17q9 0 17 -5q14 -11 14 -29q0 -24 -15 -49l-57 -104q22 31 53 53q64 105 85 226q-17 9 -17 27q0 14 11 24q9 7 19 7q14 0 24 -11q6 -9 6 -19q0 -14 -11 -24q-8 -7 -17 -7q-19 -108 -72 -205
l15 8q67 65 137 125q-4 8 -4 16q0 13 11 24q9 6 19 6q14 0 24 -11q7 -9 7 -18q0 -14 -12 -25q-9 -6 -19 -6q-7 0 -14 3q-58 -49 -114 -102q14 3 28 3q23 0 38 -13q13 -10 15 -30q0 -21 -14 -39q-49 -84 -124.5 -135.5t-164.5 -51.5q-30 0 -66 8l-16 3q-23 -78 -57 -150.5
t-89 -132.5q-77 -79 -194.5 -124t-228.5 -45l-39 2l-43 -5zM917 773l-13 1q-13 1 -29 8q10 11 21 17l3 2q15 6 39 8l16 -2q15 -3 28 -13q-14 -10 -28 -14.5t-37 -6.5zM1042 885q-12 9 -19 20q-11 19 -11 39v7q0 12 7 26q13 -9 19 -20q11 -19 11 -39q-1 -19 -7 -33zM848 164
q-27 16 -50 40t-36 57q-4 13 -4 27q0 45 32 83q18 21 43 32q16 8 34 8q26 0 41 -27q20 -39 20 -80q-2 -82 -66 -130l-3 -1q-2 0 -3 1l-1 -1q2 -2 2 -4q0 -6 -6 -6zM925 42q-26 6 -37 32q-10 21 -10 43q1 17 3 18t4 1l4 -1l1 1l-2 3q0 2 2 4t5 2q31 -8 55 -29q15 -16 15 -36
q0 -7 -2 -13q-11 -25 -34 -25h-4zM998 136q-58 0 -91 26q-2 2 -2 4q0 5 5 5q1 0 3 -0.5t2 -2.5l-3 -3l-2 1l6 -5l-4 -2q-6 0 -6 6l1 3q74 82 176 100q23 6 47 6l19 -2q34 -6 36 -41q0 -25 -24 -47q-47 -40 -130 -46zM605 1018q-11 0 -11 12t11 12q12 0 12 -12t-12 -12z
M726 1058q-12 0 -12 12t12 12q11 0 11 -12t-11 -12zM853 1115q-12 0 -12 12t12 12q11 0 11 -12t-11 -12zM672 862q84 4 160.5 36t131.5 95q1 12 1 40q-24 -34 -55 -60q-55 -45 -123 -66t-138 -21h-5q13 -13 28 -24zM601 1241q79 5 132 63q-13 5 -27 7q-39 -37 -93 -44
q-7 -12 -12 -26z" />
    <glyph glyph-name="d.swsh" unicode="d__" horiz-adv-x="1851" 
d="M1113 908q-55 0 -102 30t-71 84q1 0 1 1q6 -16 15 -29q176 9 338 147q-7 34 -41 82q-17 7 -33 15q-42 20 -58 23q-9 0 -12 -10q-5 -50 -19 -97q-25 12 -47 29q-36 26 -45 26q-5 0 -9 -4q-25 -46 -35 -99q-21 15 -40 33q-34 31 -41 31q3 -88 27 -147q0 -1 -1 -1
q-27 71 -27 164q0 66 17.5 123.5t59.5 76.5q15 6 33 6q48 0 102 -38.5t98 -90t63 -95.5q14 -37 14 -73q0 -55 -30 -102t-84 -71q-37 -14 -73 -14zM772 7q-19 0 -37 1l-12 -1q-44 3 -68 31q-22 24 -22 57l2 16q-78 -25 -158 -26q-127 0 -240.5 58.5t-172.5 161.5
q-39 69 -39 150q0 37 9 75q27 102 108 179q73 69 178 98q54 15 114 15q130 0 255 -75q8 187 8 401q0 122 -3 254q0 37 24.5 62.5t62.5 27.5q36 0 61.5 -25t27.5 -61q3 -140 3 -268q0 -250 -11 -462l-3 -45q-4 -35 -4 -71q-18 -254 -47 -476q-7 -45 -45 -67h8q144 0 285 76.5
t210 204.5q39 79 63 164q-73 50 -73 147q0 37 6 68q13 102 89 167q20 17 40 17q24 0 28 -31q2 -18 2 -55q0 -40 -5 -80l5 7l-1 3l1 4q39 97 45 201l-2 2q-11 9 -11 24q0 14 11 24q9 6 19 6q13 0 24 -11q6 -9 6 -19q0 -13 -11 -24q-8 -6 -18 -6h-3q-5 -88 -34 -171
q29 32 63 57q23 17 42 17q9 0 18 -6q14 -11 14 -28q0 -24 -15 -49l-57 -104q22 30 53 53q64 105 85 226q-17 9 -17 27q0 14 11 24q9 7 19 7q14 0 24 -12q6 -8 6 -18q0 -14 -11 -24q-8 -7 -17 -7q-19 -108 -72 -205l15 8q67 65 137 125q-4 8 -4 16q0 13 11 24q9 6 19 6
q14 0 24 -11q6 -9 6 -19q0 -13 -11 -24q-8 -6 -18 -6q-8 0 -15 3q-58 -49 -114 -102q14 3 28 3q23 0 38 -13q13 -10 15 -30q0 -21 -14 -39q-49 -84 -124.5 -135.5t-164.5 -51.5q-32 0 -72 9l-10 2q-23 -78 -57 -150.5t-89 -132.5q-77 -78 -193.5 -123t-227.5 -45zM1252 853
l-14 1q-13 1 -28 7q19 25 62 28l17 -2q14 -3 27 -13q-13 -10 -27 -14.5t-37 -6.5zM1376 965q-12 9 -18.5 20t-9 20.5t-2.5 18.5q1 20 7 32q13 -8 19 -19t9 -22.5t3 -23.5q-1 -12 -8 -26zM1134 159q-27 16 -49 40q-41 40 -41 84q0 45 32 83q18 21 43 32q16 8 34 8
q26 0 41 -27q20 -39 20 -80q-2 -82 -66 -130l-3 -1q-2 0 -3 1l-1 -1q2 -2 2 -4q0 -6 -6 -6zM1216 37q-29 2 -42 32q-10 20 -10 43q0 7 1 13t6 6l4 -1l1 1l-2 3q0 2 1.5 3.5t5.5 1.5q31 -7 55 -29q15 -15 15 -35q0 -19 -15 -31q-9 -7 -20 -7zM1284 131q-16 0 -32 2.5
t-31.5 7.5t-27.5 16q-2 2 -2 4q0 5 5 5q1 0 3 -0.5t2 -2.5l-3 -4l4 -3l-4 -2q-6 0 -6 6l1 3q72 79 176 100q23 6 47 6l19 -2q34 -6 36 -41q0 -25 -24 -47q-57 -45 -130 -46zM940 1098q-12 0 -12 12t12 12q11 0 11 -12t-11 -12zM1060 1138q-12 0 -12 12t12 12t12 -12t-12 -12
zM1187 1195q-12 0 -12 12t12 12t12 -12t-12 -12zM1006 942q84 3 160.5 35.5t131.5 94.5q2 11 2 23l-1 18q-63 -90 -175 -126q-67 -21 -136 -21h-10q13 -13 28 -24zM935 1321q79 5 133 62q-14 5 -27 7q-39 -37 -93 -44q-7 -11 -13 -25zM477 261q96 0 181 59q11 103 18 215
q-89 83 -176 103q-35 8 -67 8q-36 0 -68 -9q-60 -17 -103 -57.5t-56 -91.5q-4 -17 -4 -33q0 -35 17 -65q32 -56 99 -91q74 -38 159 -38z" />
    <glyph glyph-name="e.swsh" unicode="e__" horiz-adv-x="1535" 
d="M227 485q128 8 201 37t101 69q16 24 16 45q0 34 -34 51q-18 9 -42 9q-48 0 -117 -45q-83 -60 -125 -166zM777 844q-55 0 -102 30.5t-71 84.5h1q6 -15 15 -28q174 7 338 147q-8 35 -41 82q-17 7 -33 15q-43 20 -58 23q-10 0 -12 -11q-5 -49 -19 -96q-25 12 -47 29
q-36 26 -45 26q-5 0 -9 -4q-25 -47 -35 -99q-21 15 -40 33q-34 31 -41 31q3 -90 27 -148h-1q-27 71 -27 164q0 66 17.5 123t59.5 77q15 6 33 6q48 0 102 -38.5t98 -90.5t63 -96q14 -36 14 -72q0 -55 -30 -102t-84 -71q-37 -15 -73 -15zM455 4q-42 0 -44.5 2.5t-2.5 3.5
q-28 -3 -54 -3q-172 0 -264 128q-65 86 -65 225q0 125 62 243.5t163 191.5q111 77 219 77q67 0 120 -27q100 -51 126 -154q7 -27 7 -56q0 -74 -50 -146.5t-164 -122.5t-302 -58q21 -125 148 -125q99 0 220 81q25 17 51 17q42 0 72 -37q16 -25 16 -51q0 -42 -37 -72
q-118 -83 -239 -106h17q145 0 285.5 76t209.5 204q39 80 63 165q-73 50 -73 147q0 37 5 68q14 100 90 166q21 17 41 17q27 0 27 -32q3 -28 3 -56q0 -39 -6 -78l6 8l-2 4l1 2q40 98 46 202q-14 8 -14 25q0 14 10 22.5t21 8.5q13 0 23 -11q6 -9 6 -19q0 -14 -10 -22.5
t-21 -8.5q-6 -88 -35 -171q29 33 63 57q21 17 42 17q10 0 18 -5q14 -11 14 -29q0 -24 -15 -49l-57 -104q23 32 53 54q63 104 86 225q-7 3 -12.5 10.5t-5.5 17.5q0 13 11 24q9 6 19 6q14 0 22.5 -10t8.5 -21q0 -13 -11 -23q-8 -6 -17 -7q-20 -108 -73 -205q7 5 16 8
q66 65 137 125q-4 8 -4 16q0 14 11 24q9 7 19 7q13 0 21.5 -10t8.5 -21q0 -13 -10 -21.5t-20 -8.5q-8 0 -15 4q-58 -50 -114 -103q13 4 26 4l17 -2q30 -7 37 -33l1 -9q0 -20 -14 -39q-49 -83 -124.5 -134.5t-164.5 -51.5q-32 0 -53 5q-12 3 -29 5q-23 -77 -57 -150t-89 -133
q-76 -78 -193 -123t-228 -45zM916 790l-14 1q-13 1 -28 7q11 13 25 20t33 7q28 0 48 -14q-13 -10 -27 -14.5t-37 -6.5zM1040 902q-12 9 -18.5 19.5t-9 20.5t-2.5 19q1 19 7 32q31 -22 31 -65q-1 -13 -8 -26zM818 157q-28 16 -50 39q-41 41 -41 84q0 46 32 83q19 21 43 32
q17 9 36 9q24 0 39 -27q21 -40 21 -87q-5 -77 -67 -124q-1 -1 -3 -1l-3 1l-1 -1q2 -2 2 -4q0 -5 -5 -5zM900 35q-30 2 -43 31q-10 22 -10 45q1 15 3 16.5t4 1.5l4 -2l1 1l-1 4q0 2 1.5 3.5t4.5 1.5q33 -8 55 -29q15 -16 15 -36q0 -19 -14 -31q-9 -6 -20 -6zM970 129
q-18 0 -36 2q-32 3 -58 23l-2 4q0 6 5 6l6 -3q-2 -1 -3 -3l-1 -1l4 -3q-2 -2 -4 -2q-5 0 -5 5l1 3q46 52 110 80q32 14 65 20q23 6 47 6l20 -2q33 -5 35 -41q0 -28 -24 -47q-46 -40 -130 -46zM604 1034q-12 0 -12 13q0 12 12 12q11 0 11 -12q0 -13 -11 -13zM724 1074
q-12 0 -12 13q0 12 12 12t12 -12q0 -13 -12 -13zM851 1131q-12 0 -12 13q0 12 12 12t12 -12q0 -13 -12 -13zM670 878q84 4 160.5 36.5t131.5 94.5q2 11 2 23q0 9 -1 17q-66 -92 -178 -126q-67 -21 -138 -21h-5q13 -13 28 -24zM599 1257q79 5 133 63q-14 5 -27 7
q-39 -37 -93 -44q-7 -12 -13 -26z" />
    <glyph glyph-name="f.swsh" unicode="f__" horiz-adv-x="1671" 
d="M875 857q-55 0 -102 30t-71 84l1 1q6 -15 15 -29q174 9 338 147q-8 36 -41 82l-38 17q-42 20 -52 22q-5 0 -8.5 -3t-4.5 -8.5t-2 -11.5q-5 -43 -17 -85q-26 13 -49 31q-35 25 -42 25q-6 0 -10 -5q-26 -46 -35 -99q-21 15 -40 33q-34 31 -41 31q3 -88 27 -147l-1 -1
q-27 71 -27 164q0 66 17.5 123.5t59.5 76.5q15 7 33 7q75 -7 153.5 -81t109.5 -144q14 -37 14 -73q0 -55 -30.5 -102t-84.5 -71q-36 -14 -72 -14zM349 -732q-42 3 -67 31q-22 25 -22 57l1 11q7 66 7 142q0 109 -11 239.5t-27 266.5q-38 -10 -68 -30q-23 -14 -48 -14
q-44 0 -74 40q-15 24 -15 49q0 42 40 73q72 45 147 60q-14 139 -14 259q0 140 29 244t106 154q83 48 168 48q118 0 198 -76q53 -50 66 -124q4 -20 4 -42q0 -96 -73 -197q-31 -37 -72 -37q-26 0 -51 17q-37 31 -37 72q0 27 17 51q39 57 39 93l-1 12q-3 18 -15 29
q-15 15 -40 21q-18 5 -37 5q-36 0 -72 -21q-56 -37 -56 -223q0 -114 16 -264q77 4 135 22q15 5 31 5q27 0 49.5 -15t32.5 -42q5 -15 5 -30q0 -60 -63 -85h15q144 0 284.5 76t209.5 204q38 80 63 164q-44 31 -59 70t-15 78q0 34 5 63q12 104 91 171q19 17 40 17q12 0 21 -12
t9 -74q0 -40 -5 -80l5 8l-1 3l1 3q39 98 45 202q-3 1 -4.5 3t-2.5 3q-7 9 -7 19q0 14 12 24q8 7 18 7q14 0 22.5 -10t8.5 -21q0 -13 -10.5 -21.5t-21.5 -8.5q-5 -88 -34 -171q28 32 63 57q20 17 42 17q10 0 18 -5q14 -11 14 -28q0 -25 -16 -50q-27 -52 -56 -104q21 32 53 54
q64 104 85 225q-17 8 -17 27q0 14 11 25q9 6 19 6q14 0 24 -11q6 -9 6 -19q0 -14 -11 -24q-8 -6 -17 -7q-19 -108 -72 -205q8 5 15 8q67 65 137 125q-4 8 -4 16q0 14 11 24q9 7 19 7q14 0 24 -12q6 -8 6 -18q0 -14 -11 -25q-8 -6 -18 -6q-8 0 -15 4q-58 -51 -114 -103
q13 4 26 4l17 -2q30 -7 37 -33l1 -9q0 -20 -14 -39q-49 -83 -124.5 -135t-165.5 -52q-31 0 -71 9l-10 2q-23 -77 -57.5 -150t-89.5 -133q-76 -78 -193 -123t-228 -45q-21 0 -42 2q-72 -18 -144 -22l2 -23q15 -130 26.5 -258.5t11.5 -245.5q0 -87 -9 -165q-5 -34 -30 -56
t-57 -22zM1014 802l-14 1q-13 1 -28 8q20 24 51 26l11 1l17 -2q14 -3 27 -13q-13 -10 -27 -14.5t-37 -6.5zM1138 914q-12 9 -18.5 19.5t-9 20.5t-2.5 19q1 20 7 32q13 -8 19 -18.5t8.5 -21t2.5 -19.5v-6q0 -12 -7 -26zM954 211q-27 15 -49 39q-41 40 -41 84q0 45 32 83
q18 21 43 32q17 9 35 9q25 0 39 -28q21 -41 21 -80q-2 -80 -66 -130q-1 -1 -3 -1l-3 1l-1 -1l2 -3q0 -6 -6 -6zM1037 89q-18 1 -28 11q-25 22 -25 63q1 17 3 18t3 1q3 0 4 -1l2 1l-2 3q0 2 2 4t5 2q31 -8 55 -29q15 -16 15 -36q0 -7 -2 -13q-10 -24 -32 -24zM1107 183
q-18 0 -36 2q-33 3 -58 23q-2 2 -2 4q0 6 5 6q3 -1 3.5 -2t1.5 -1l-3 -4l-2 1l6 -5l-4 -1q-6 0 -6 5l1 3q74 82 176 100q23 6 47 6l19 -2q30 -5 36 -35v-5q0 -28 -25 -48q-54 -47 -159 -47zM702 1047q-12 0 -12 12t12 12q11 0 11 -12t-11 -12zM822 1087q-12 0 -12 12t12 12
t12 -12t-12 -12zM949 1144q-12 0 -12 12t12 12t12 -12t-12 -12zM768 891q84 4 160.5 36t131.5 94q2 13 2 23l-1 18q-63 -90 -175 -126q-67 -21 -136 -21h-10q13 -13 28 -24zM697 1270q6 14 13 25q53 7 93 45q13 -3 27 -8q-54 -57 -133 -62z" />
    <glyph glyph-name="g.swsh" unicode="g__" horiz-adv-x="1841" 
d="M372 193q42 1 87 23q92 41 162 174l-3 19q-2 19 -6 38l-3 4q-108 130 -215 130q-53 -1 -95 -29t-67 -71q-31 -52 -31 -111q0 -44 20 -88q27 -53 75 -74q33 -15 69 -15h7zM915 806q-55 0 -102 30t-71 84l1 1q6 -15 15 -29q176 9 338 147q-7 34 -41 82l-38 17
q-42 20 -52 22q-5 0 -8.5 -3t-4.5 -8.5t-2 -11.5q-5 -43 -17 -85q-26 13 -49 31q-35 25 -42 25q-6 0 -10 -5q-24 -42 -34 -89l-2 -10q-19 15 -37 31q-36 33 -43 33q3 -88 27 -147l-1 -1q-27 71 -27 164q0 66 17.5 123.5t59.5 76.5q15 6 33 6q48 0 102 -38.5t97.5 -90
t62.5 -95.5q15 -37 15 -73q0 -55 -30.5 -102t-84.5 -71q-36 -14 -72 -14zM377 -724q-126 0 -212 74q-54 48 -79 122q-15 44 -15 95q0 46 13 97q8 31 31.5 49.5t53.5 18.5q10 0 21 -3q31 -8 49 -32t18 -54q0 -10 -2 -20q-7 -30 -7 -55q0 -57 34 -86.5t94 -29.5q274 0 274 561
q0 60 -3 120q-53 -48 -112 -76q-79 -40 -158 -40h-13q-74 0 -140 30q-106 47 -162 159q-37 82 -37 163q0 107 55 201q46 79 122 130q83 55 192 57q86 0 178 -46q17 43 63 56q11 3 21 3q29 0 53 -19t32 -49q34 -139 57 -308q2 -8 2 -14q23 -165 26 -334q134 18 251.5 91
t177.5 186q39 79 64 164q-74 50 -74 148q0 37 6 67q13 100 89 167q20 17 41 17q12 0 21 -12t9 -72q0 -41 -6 -82l6 7l-1 7q40 97 46 201l-8 7q-6 9 -6 19q0 14 11 24q9 6 19 6q14 0 24 -11q6 -9 6 -19q0 -13 -11 -24q-8 -6 -17 -6h-3q-5 -88 -35 -171q29 32 63 57
q21 17 43 17q9 0 17 -5q14 -11 14 -29q0 -24 -15 -49l-56 -104q22 31 52 53q65 105 86 226q-17 9 -17 27q0 14 11 24q9 7 19 7q13 0 24 -11q6 -9 6 -19q0 -14 -11 -24q-8 -7 -17 -7q-19 -108 -73 -205l16 8q66 65 137 125q-4 8 -4 16q0 13 11 24q9 6 19 6q13 0 24 -11
q6 -9 6 -19q0 -13 -11 -24q-9 -6 -20 -6q-7 0 -14 3q-58 -49 -114 -102q15 3 28 3q23 0 38 -13q13 -10 15 -30q0 -21 -13 -39q-49 -84 -124.5 -135.5t-164.5 -51.5q-32 0 -72 9l-10 2q-23 -78 -57.5 -150.5t-89.5 -132.5q-65 -67 -160 -109.5t-196 -54.5v-26
q0 -120 -14 -230q-22 -179 -95 -307.5t-210 -175.5q-67 -21 -130 -21zM1053 751l-13 1q-13 1 -29 7q11 14 24.5 20t26.5 7l12 1l17 -2q14 -3 27 -13q-13 -10 -27.5 -14.5t-37.5 -6.5zM1178 863q-12 9 -18.5 19.5t-9 20.5t-2.5 19v6q0 14 7 26q13 -8 19 -18.5t8.5 -21
t2.5 -19.5v-6q0 -12 -7 -26zM1124 184q-28 16 -50 40q-40 39 -40 84t31 83q18 21 44 32q16 8 34 8q25 0 40 -27q21 -40 21 -87q-5 -77 -66 -123l-4 -1q-2 0 -3 1l2 -5q0 -6 -6 -6zM1206 62q-30 2 -43 32q-9 20 -9 43q0 7 1.5 13t4.5 6l4 -1l1 1l-1 3q0 2 1.5 3.5t4.5 1.5
q33 -7 55 -28q16 -16 16 -35q0 -20 -15 -32q-9 -7 -20 -7zM1273 156q-57 0 -91 26q-2 2 -2 4q0 5 6 5q2 0 5 -3l-4 -4l-1 2q1 -2 3 -3t3 -2l-4 -2q-6 0 -6 6l1 3q74 81 175 100q23 6 47 6l20 -2q29 -5 36 -35v-5q0 -28 -25 -48q-46 -40 -130 -46zM742 996q-12 0 -12 12
t12 12q11 0 11 -12t-11 -12zM862 1036q-12 0 -12 12t12 12t12 -12t-12 -12zM989 1093q-12 0 -12 12t12 12t12 -12t-12 -12zM808 840q84 3 160.5 35.5t131.5 94.5q2 11 2 23l-1 18q-63 -90 -176 -126q-66 -21 -135 -21h-10q13 -13 28 -24zM737 1219q79 5 133 62q-14 5 -27 8
q-40 -38 -93 -45q-8 -11 -13 -25z" />
    <glyph glyph-name="h.swsh" unicode="h__" horiz-adv-x="1786" 
d="M860 797q-55 0 -101.5 30.5t-70.5 84.5q6 -15 15 -28q174 7 338 147q-9 35 -40 82l-37 16q-40 19 -54 22q-10 0 -13 -11q-5 -49 -18 -96q-26 13 -49 30q-36 25 -44 25q-5 0 -9 -4q-25 -47 -35 -99q-21 15 -40 33q-34 31 -41 31q4 -90 27 -148q-28 71 -28 164q0 66 18 123
t60 77q16 6 32 6q48 0 102.5 -38.5t98 -90.5t62.5 -96q14 -36 14 -72q0 -55 -30 -102t-84 -71q-37 -15 -73 -15zM683 15q-11 0 -22 3q-30 9 -47.5 33t-17.5 53q0 11 3 22q29 111 29 200q0 81 -20.5 141.5t-55.5 98.5q-48 54 -108 54q-71 0 -132 -78q-46 -59 -76 -165
q13 -132 28 -253l1 -11q0 -33 -22 -58q-24 -28 -66 -31q-32 0 -57 22t-30 56q-16 129 -30 268l-1 14q-34 361 -34 776q0 126 3 263q2 37 27.5 61.5t61.5 24.5q38 -2 62.5 -27t24.5 -62q-3 -135 -3 -258q0 -248 12 -459v-8q105 102 232 102q46 0 90 -14q84 -27 149 -99
q54 -60 87 -151.5t33 -209.5q0 -110 -35 -243q-8 -28 -29 -45q141 10 268.5 84.5t192.5 195.5q38 79 63 164q-44 30 -58.5 70t-14.5 79q0 22 5 70q14 98 90 163q19 17 40 17q12 0 21 -10q9 -16 9 -76q0 -40 -5 -81l5 8l-1 3l1 4q39 97 45 201q-4 3 -7 7q-7 9 -7 18
q0 14 12 25q9 6 19 6q13 0 24 -11q6 -9 6 -19q0 -14 -11 -24q-10 -7 -21 -7q-5 -87 -34 -170q29 32 63 56q20 17 42 17q10 0 18 -5q14 -11 14 -29q0 -24 -15 -49l-57 -103q21 30 53 53q64 105 85 226q-6 2 -11.5 9.5t-5.5 17.5q0 14 11 24q9 6 19 6q14 0 24 -11q6 -9 6 -19
q0 -13 -11 -24q-8 -6 -17 -6q-19 -109 -72 -205l15 7q67 66 137 125q-4 8 -4 16q0 14 11 25q9 6 19 6q14 0 24 -11q6 -9 6 -19q0 -14 -11 -24q-9 -7 -19 -7q-7 0 -14 4q-58 -49 -114 -103q13 4 27 4q24 0 39 -13q13 -11 15 -30q0 -21 -14 -40q-49 -83 -124.5 -134.5
t-164.5 -51.5q-32 0 -72 9l-10 2q-23 -78 -57 -150.5t-90 -133.5q-73 -75 -183.5 -119t-222.5 -48q-18 -9 -38 -9zM999 743l-13 1q-17 2 -29 7q11 13 25.5 20t32.5 7q28 0 49 -14q-25 -18 -65 -21zM1123 855q-30 24 -30 59q0 15 7 32q24 -18 29 -41q2 -12 2 -24
q-1 -13 -8 -26zM1069 176q-27 16 -49 40q-41 39 -41 83q0 46 32 83q18 22 43 33q16 8 34 8q26 0 40 -27q21 -41 21 -80q-2 -82 -66 -131l-3 -1l-4 1q2 -2 2 -4q0 -6 -6 -6zM1151 54q-29 2 -43 31q-9 21 -9 43q1 17 3 18.5t4 1.5l3 -2l2 1l-2 4q0 2 1.5 3.5t5.5 1.5
q31 -8 55 -29q15 -16 15 -36q0 -18 -15 -30q-9 -7 -20 -7zM1222 148q-18 0 -34.5 2.5t-32 7.5t-27.5 15l-2 4q0 6 5 6q2 0 5 -3l-3 -4l4 -3l-4 -2q-6 0 -6 5l1 3q69 78 176 101q23 6 47 6l19 -2q34 -7 36 -41q0 -25 -25 -48q-46 -40 -129 -46zM687 987q-12 0 -12 13
q0 12 12 12t12 -12q0 -13 -12 -13zM807 1027q-11 0 -11 13q0 12 11 12q12 0 12 -12q0 -13 -12 -13zM934 1084q-11 0 -11 13q0 12 11 12q12 0 12 -12q0 -13 -12 -13zM753 831q84 4 161 36.5t132 94.5q1 11 1 23q0 9 -1 17q-23 -33 -55 -60q-54 -45 -122 -66t-139 -21h-5
q13 -13 28 -24zM682 1210q79 5 133 63q-14 5 -27 7q-39 -37 -93 -44q-7 -12 -13 -26z" />
    <glyph glyph-name="i.swsh" unicode="i__" horiz-adv-x="1277" 
d="M509 898q-55 0 -102 30t-71 84l1 1q6 -16 15 -29q176 9 338 147q-7 34 -41 82q-17 7 -33 15q-42 20 -58 23q-9 0 -11 -8.5t-3 -15.5q-5 -43 -17 -83q-25 12 -47 29q-36 26 -45 26q-5 0 -9 -4q-25 -46 -35 -97v-2q-21 15 -40 33q-34 31 -41 31q3 -88 27 -147l-1 -1
q-27 71 -27 164q0 66 17.5 123.5t59.5 76.5q15 6 33 6q48 0 102 -38.5t97.5 -90t62.5 -95.5q15 -37 15 -73q0 -55 -30.5 -102t-84.5 -71q-36 -14 -72 -14zM153 15q-30 0 -53.5 18.5t-31.5 49.5q-25 107 -25 332l1 227q0 52 -1 103q0 37 25 62t62 27q37 0 62 -24.5t27 -61.5
q1 -51 1 -104l-1 -222q0 -212 21 -298q2 -10 2 -20q0 -35 -24 -61q145 7 276 82t197 198q39 79 63 164q-73 50 -73 147q0 37 6 68q13 101 89 167q20 17 41 17q25 0 27 -32q3 -28 3 -56q0 -39 -6 -78l5 7l-1 4l1 3q40 97 46 201q-14 8 -14 26q0 14 11 24q9 6 19 6
q13 0 24 -11q6 -9 6 -19q0 -13 -11 -24q-8 -6 -17 -6h-3q-6 -88 -35 -171q29 32 63 57q21 17 43 17q9 0 17 -5q14 -11 14 -29q0 -24 -15 -49l-57 -104q23 31 53 53q64 105 85 226q-17 10 -17 28q0 13 10 21.5t20 8.5q14 0 22.5 -10t8.5 -20q0 -14 -11 -24q-7 -7 -18 -7
q-19 -108 -72 -205l16 8q66 65 137 125q-5 8 -5 17q0 13 11 23q9 6 19 6q14 0 22.5 -10t8.5 -20q0 -13 -11 -24q-10 -6 -20 -6q-7 0 -14 3q-58 -49 -114 -102q14 3 28 3q23 0 38 -13q13 -10 15 -30q0 -21 -14 -39q-49 -84 -124.5 -135.5t-164.5 -51.5q-30 0 -66 8l-16 3
q-23 -78 -57 -150.5t-89 -132.5q-75 -77 -187.5 -121.5t-225.5 -46.5q-21 -17 -52 -17zM647 843l-13 1q-13 1 -28 7q11 14 24.5 20t37.5 8l17 -2q14 -3 27 -13q-13 -10 -27.5 -14.5t-37.5 -6.5zM772 955q-12 9 -18.5 20t-9 20.5t-2.5 18.5v6q0 14 7 26q13 -8 19 -19t8.5 -21
t2.5 -19v-6q0 -12 -7 -26zM560 184q-29 16 -50 40q-41 40 -41 84q0 45 32 83q18 21 43 32q17 8 34 8q26 0 41 -27q20 -38 20 -79q-2 -83 -66 -131q-1 -1 -3 -1l-3 1l-1 -1q2 -2 2 -4q0 -6 -5 -6zM641 62q-29 2 -42 32q-10 20 -10 43q1 17 3 18t4 1l4 -1l1 1q-1 1 -1 3
t1.5 3.5t4.5 1.5q32 -7 55 -28q15 -16 15 -36q0 -7 -2 -13q-11 -25 -33 -25zM709 156q-57 0 -91 26q-2 2 -2 4q0 5 5 5q1 0 3 -0.5t3 -2.5q-3 -1 -4 -4l4 -3q-2 -2 -4 -2q-5 0 -5 6l1 3q46 51 110 80q32 14 65 20q23 6 47 6l19 -2q34 -6 36 -42q0 -27 -24 -46
q-46 -40 -130 -46zM336 1088q-12 0 -12 12t12 12q11 0 11 -12t-11 -12zM456 1128q-12 0 -12 12t12 12t12 -12t-12 -12zM583 1185q-12 0 -12 12t12 12t12 -12t-12 -12zM402 932q84 3 160.5 35.5t131.5 94.5q2 11 2 23l-1 18q-63 -90 -175 -126q-67 -21 -136 -21h-10
q13 -13 28 -24zM331 1311q79 5 133 62q-14 5 -27 7q-40 -37 -93 -44q-7 -11 -13 -25zM121 881q-35 0 -60.5 23t-28.5 59q-2 23 -2 40.5t-2.5 28t-2.5 20.5q0 30 18 54t49 32q11 3 21 3q30 0 53.5 -18.5t31 -48t8.5 -59t2 -39.5v-6q0 -34 -23 -59.5t-58 -29.5h-6z" />
    <glyph glyph-name="j.swsh" unicode="j__" horiz-adv-x="1648" 
d="M1000 215q-24 0 -47 6q-113 33 -139 154h1q3 -16 7 -31q48 -10 97 -10q31 0 62 4q107 17 205 64q0 42 -19 90l-31 25q-43 35 -50 35q-8 0 -12 -8q-17 -46 -42 -89q-23 19 -41 43q-29 35 -38 35q-3 0 -6 -3q-34 -36 -55 -80l-4 -7q-16 19 -29.5 39.5t-28.5 38.5q-2 3 -5 4
q-13 -61 -13 -110q0 -22 3 -40h-1q-2 17 -2 39q0 56 16.5 124.5t47.5 117.5q35 55 89 60q10 0 21 -3q72 -25 129 -116t70 -167q2 -13 2 -27q0 -24 -6 -47q-33 -114 -154 -139q-13 -2 -27 -2zM330 -637q-127 0 -211 74q-56 47 -80 122q-14 44 -14 96q0 163 98 163q10 0 20 -2
q31 -8 49 -32t18 -54q0 -10 -2 -20q-7 -30 -7 -55q0 -57 34 -86.5t94 -29.5q137 0 203 129q75 149 75 429q0 162 -23 327t-56 302q-2 10 -2 20q0 30 18 54t49 32q10 2 20 2q30 0 54 -18t32 -49q35 -146 59.5 -323t24.5 -351q0 -121 -15 -233q-49 -368 -281 -466l46 -2
q115 0 226 43t184 124q57 67 102 143q-42 47 -42 107q0 33 10 64.5t21 57.5q38 92 126 136q16 8 33 8q19 0 29 -16q2 -6 2 -12q-5 -64 -37 -141l7 6l-1 3l2 4q62 84 94 184q-3 4 -6 9t-3 11q0 18 19 28q6 3 12 3q18 0 28 -18q3 -6 3 -12q0 -18 -18 -28q-7 -3 -14 -3l-8 1
q-27 -83 -75 -157q35 25 75 40q16 7 33 7q16 0 28 -11q8 -9 8 -20q0 -25 -27.5 -54.5t-55.5 -58.5l-26 -28q29 24 64 38q88 86 139 198q-12 8 -12 23q0 17 19 28q6 3 12 3q18 0 28 -18q3 -6 3 -12q0 -18 -18 -28q-7 -3 -13 -3h-5q-45 -100 -121 -180l17 3q80 46 163 88l-1 8
q0 9 4.5 17t12 11.5t13.5 3.5q18 0 28 -18q3 -6 3 -12q0 -18 -18 -29q-6 -2 -11 -2q-12 0 -22 8q-69 -34 -136 -72q23 0 42 -8q28 -15 28 -41q0 -21 -24 -44q-55 -55 -122 -86.5t-137 -31.5q-41 0 -74 9.5t-70 30.5q-42 -70 -93 -132t-119 -107q-62 -39 -140.5 -57.5
t-159.5 -18.5q-40 0 -78 4l-4 -1q-67 -21 -130 -21zM1102 130l-15 2q-30 4 -51 20q14 10 27 13l17 2l12 -1q32 -5 50 -28q-15 -6 -28 -7zM1223 211q-11 12 -14 24.5t-3 27.5q0 21 17 43q17 -20 17 -50q0 -22 -17 -45zM782 -543q-24 22 -39 50q-20 36 -21 68q0 29 15.5 54.5
t38.5 42t50 20.5l18 2q40 0 49 -39q5 -21 5 -40q0 -25 -6 -49q-24 -73 -95 -104h-2l-4 2l-1 -1l2 -3q0 -5 -6 -5zM839 -683q-6 0 -13 3q-30 16 -30 57q0 21 7 40q2 4 5 4t5 -3l2 1l-1 2q0 6 6 6l3 -1q28 -15 45 -42q8 -13 8 -26t-8 -24q-12 -17 -29 -17zM1009 -620
q-60 0 -121 23q-36 15 -50 37l-1 3q0 6 6 6l5 -5l-5 -3l3 -4l-2 -1q-3 0 -4.5 2t-1.5 4t2 3q81 55 175 55l19 -1q35 0 66 -12q26 -13 26 -39v-4q-7 -31 -37 -46q-38 -18 -80 -18zM836 448q-12 1 -12 11q0 5 3 9t9 4h3q9 -4 9 -11q0 -5 -3 -9t-9 -4zM962 457q-12 1 -12 11
q0 5 3.5 9t8.5 4h3q9 -4 9 -11q0 -5 -3 -9t-9 -4zM1099 481q-12 1 -12 11q0 5 3 8.5t9 3.5q12 -1 12 -11q0 -4 -3 -8t-9 -4zM954 270q126 0 220 65q6 15 10 39q-30 -27 -68 -45q-77 -35 -159 -35q-61 0 -120 16q9 -15 21 -30q47 -10 96 -10zM930 662q53 1 97 31
q-12 8 -24 14q-35 -21 -77 -21l-24 1q-10 -10 -19 -22q19 -3 38 -3h9zM576 926q-35 0 -60 23t-28 58l-2 17q-1 19 -2.5 31.5t-4.5 25t-3 22.5q0 30 18.5 53.5t49.5 31.5q10 2 20 2q30 0 54 -18t32 -49q5 -24 7 -38.5t3 -28t4 -35.5v-6q0 -35 -23 -60t-58 -29h-7z" />
    <glyph glyph-name="k.swsh" unicode="k__" horiz-adv-x="1791" 
d="M865 806q-55 0 -101.5 30t-70.5 84v1q6 -15 15 -29q176 9 338 147q-7 32 -40 82l-41 18q-40 19 -50 21q-10 0 -13 -11q-5 -49 -18 -97q-27 13 -51 32q-34 24 -41 24q-6 0 -10 -5q-25 -46 -35 -99q-21 15 -40 33q-34 31 -41 31q4 -88 27 -147q-28 70 -28 163
q0 66 18 123.5t60 76.5q16 6 32 6q48 0 102.5 -38.5t98 -90t62.5 -95.5q15 -37 15 -73q0 -55 -30.5 -102t-84.5 -71q-35 -14 -73 -14zM667 15q-17 0 -34 7q-57 23 -111 60.5t-109 103.5q-72 87 -148 259q-18 -33 -29 -69q13 -130 28 -252l1 -11q0 -33 -22 -58
q-24 -28 -66 -31q-32 0 -57 22t-30 56q-16 130 -30 271l-1 8q-34 367 -34 779q0 126 3 263q2 37 27.5 61.5t61.5 24.5q38 -2 62.5 -27t24.5 -62q-3 -135 -3 -258q0 -220 8 -359l5 -131l26 25q10 10 20 18q134 113 250 113q56 0 85 -26q28 -30 28 -66q0 -12 -3 -23
q-11 -37 -44 -54q-5 -3 -8.5 -4t-5.5 -2q-14 -4 -28 -4q-10 0 -21 2q-5 1 -11 1q-40 0 -109 -55q85 -214 157 -300q37 -45 74.5 -70.5t77.5 -42.5q26 -11 40 -33.5t14 -48.5q0 -34 -24 -59q145 7 276 82t198 198q38 79 63 164q-44 30 -58.5 70t-14.5 79q0 22 5 70
q14 98 90 163q19 17 40 17q12 0 21 -12t9 -74q0 -40 -5 -80l5 7l-1 4l1 3q39 97 45 201q-4 3 -7 7q-7 9 -7 19q0 14 12 24q9 6 19 6q13 0 24 -11q6 -9 6 -19q0 -13 -11 -24q-8 -6 -18 -6h-3q-5 -88 -34 -171q29 32 63 57q24 17 43 17q9 0 17 -5q14 -11 14 -29q0 -24 -15 -49
l-57 -104q21 31 53 53q64 105 85 226q-17 9 -17 27q0 14 11 24q9 7 19 7q14 0 24 -11q6 -9 6 -19q0 -14 -11 -24q-8 -7 -17 -7q-19 -108 -72 -205l15 8q67 65 137 125q-4 8 -4 16q0 13 11 24q9 6 19 6q14 0 24 -11q6 -9 6 -19q0 -13 -11 -24q-9 -6 -19 -6q-7 0 -14 3
q-58 -49 -114 -102q14 3 28 3q23 0 38 -13q13 -10 15 -30q0 -21 -14 -39q-49 -84 -124.5 -135.5t-164.5 -51.5q-32 0 -72 9l-10 2q-23 -78 -57 -150.5t-90 -132.5q-75 -77 -187.5 -121.5t-225.5 -46.5q-24 -17 -52 -17zM1004 751l-13 1q-14 1 -29 7q11 14 24 19q13 7 27 8
l12 1l16 -2q14 -3 28 -13q-25 -18 -65 -21zM1128 863q-30 24 -30 59q0 16 7 32q24 -18 29 -41q2 -12 2 -24q-1 -12 -8 -26zM1074 184q-27 16 -49 40q-41 40 -41 84q0 45 32 83q18 21 43 32q16 8 34 8q26 0 41 -27q20 -39 20 -80q-2 -82 -66 -130l-3 -1q-2 0 -3 1l-1 -1
q2 -2 2 -4q0 -6 -6 -6zM1156 62q-29 2 -43 32q-9 20 -9 43q1 17 3 18t3 1q3 0 4 -1l2 1l-2 3q0 2 1.5 3.5t5.5 1.5q31 -7 55 -28q15 -16 15 -36q0 -7 -2 -13q-11 -25 -33 -25zM1224 156q-58 0 -91 26q-2 2 -2 4q0 5 5 5q1 0 3 -0.5t2 -2.5l-3 -4l4 -3l-4 -2q-6 0 -6 6l1 3
q74 82 176 100q23 6 47 6l19 -2q34 -6 36 -41q0 -28 -25 -47q-46 -40 -129 -46zM692 996q-12 0 -12 12t12 12t12 -12t-12 -12zM812 1036q-11 0 -11 12t11 12q12 0 12 -12t-12 -12zM939 1093q-11 0 -11 12t11 12q12 0 12 -12t-12 -12zM758 840q84 3 161 35.5t132 94.5
q1 11 1 23l-1 18q-23 -34 -55 -61q-54 -44 -120.5 -65t-135.5 -21h-10q13 -13 28 -24zM687 1219q79 5 133 62q-14 5 -27 8q-39 -37 -93 -45q-7 -11 -13 -25z" />
    <glyph glyph-name="l.swsh" unicode="l__" horiz-adv-x="1297" 
d="M520 904q-55 0 -102 30t-71 84h1q6 -15 15 -28q176 9 338 147q-7 34 -41 82q-17 7 -33 15q-42 20 -58 23q-9 0 -11 -8.5t-3 -15.5q-5 -43 -17 -83q-25 12 -47 29q-36 26 -45 26q-5 0 -9 -4q-26 -47 -35 -99q-21 15 -40 33q-34 31 -41 31q3 -89 27 -148h-1q-27 71 -27 164
q0 66 17.5 123.5t59.5 76.5q15 6 33 6q48 0 102 -38.5t97.5 -90t62.5 -95.5q15 -37 15 -73q0 -55 -30.5 -102t-84.5 -71q-36 -14 -72 -14zM177 24q-32 0 -57 22q-50 44 -83 648q-12 214 -12 466q0 126 3 263q2 37 27.5 61.5t61.5 24.5q38 -2 62.5 -26.5t24.5 -59.5
q-3 -129 -3 -248q0 -565 63 -1051l1 -13q0 -42 -35 -68q146 5 280 80t201 200q39 79 64 164q-74 50 -74 148q0 37 6 67q13 100 89 167q20 17 41 17q12 0 21 -12t9 -72q0 -41 -6 -82l6 7l-1 7q40 97 46 201l-8 7q-6 9 -6 19q0 14 11 24q9 6 19 6q14 0 24 -11q6 -9 6 -19
q0 -13 -11 -24q-8 -6 -17 -6h-3q-5 -88 -35 -171q29 32 63 57q21 17 43 17q9 0 17 -5q14 -11 14 -29q0 -24 -15 -49l-56 -104q22 31 52 53q65 105 86 226q-17 9 -17 27q0 14 11 24q9 7 19 7q13 0 24 -11q6 -9 6 -19q0 -14 -11 -24q-8 -7 -17 -7q-19 -108 -73 -205l16 8
q66 65 137 125q-4 8 -4 16q0 13 11 24q9 6 19 6q13 0 24 -11q6 -9 6 -19q0 -13 -11 -24q-9 -6 -20 -6q-7 0 -14 3q-58 -49 -114 -102q15 3 28 3q23 0 38 -13q13 -10 15 -30q0 -21 -13 -39q-49 -84 -124.5 -135.5t-164.5 -51.5q-30 0 -69 8l-14 3q-22 -78 -56.5 -150.5
t-89.5 -132.5q-76 -78 -192.5 -123t-227.5 -45h-7q-11 -4 -23 -7zM658 849l-13 1q-13 1 -28 7q11 13 24.5 19.5t37.5 8.5l17 -2q14 -3 27 -13q-13 -10 -27.5 -14.5t-37.5 -6.5zM783 961q-12 9 -18.5 19.5t-9 20.5t-2.5 19v6q0 12 7 26q13 -9 19 -19.5t8.5 -20.5t2.5 -19v-6
q0 -12 -7 -26zM580 184q-28 16 -50 40q-40 39 -40 84t31 83q18 21 44 32q16 8 34 8q25 0 40 -27q21 -40 21 -87q-5 -77 -66 -123l-4 -1q-2 0 -3 1l-1 -1q2 -2 2 -4q0 -6 -5 -6zM662 62q-31 2 -43 32q-9 20 -9 43q0 7 1.5 13t4.5 6l4 -1l1 1l-1 3q0 2 1.5 3.5t4.5 1.5
q33 -7 55 -28q15 -16 15 -35q0 -20 -14 -32q-9 -7 -20 -7zM729 156q-57 0 -91 26q-2 2 -2 4q0 5 6 5q2 0 5 -3l-1 -1q-2 -1 -3 -3l-1 2q1 -2 2.5 -3t2.5 -2q-2 -2 -4 -2q-5 0 -5 6l1 3q46 51 110 80q32 14 65 20q23 6 47 6l20 -2q29 -5 36 -35v-5q0 -28 -25 -48
q-46 -40 -130 -46zM347 1094q-12 0 -12 12t12 12q11 0 11 -12t-11 -12zM467 1134q-12 0 -12 12t12 12t12 -12t-12 -12zM594 1191q-12 0 -12 12t12 12t12 -12t-12 -12zM413 938q84 3 160.5 35.5t131.5 94.5q2 11 2 23l-1 18q-63 -90 -175 -126q-67 -21 -136 -21h-10
q13 -13 28 -24zM342 1316q79 6 133 63q-14 5 -27 7q-40 -37 -93 -44q-7 -12 -13 -26z" />
    <glyph glyph-name="m.swsh" unicode="m__" horiz-adv-x="2103" 
d="M1177 806q-55 0 -102 30t-71 84l15 -28q176 9 339 147l-9 26q-11 26 -32 56q-19 8 -37 17q-44 20 -54 22q-10 0 -12 -11q-6 -49 -19 -97q-26 13 -49 31q-35 25 -43 25q-6 0 -9 -5q-24 -42 -34 -89l-2 -10q-18 14 -35 29q-38 35 -46 35q4 -88 27 -147q-27 70 -27 163
q0 66 17.5 123.5t59.5 76.5q16 6 32 6q48 0 102.5 -38.5t98 -90t62.5 -95.5q15 -37 15 -73q0 -55 -30.5 -102t-84.5 -71q-36 -14 -72 -14zM974 16q-39 1 -63 27.5t-24 60.5v6q5 85 5 165q0 137 -15 252t-45 189q-18 47 -33 56v-1l2 -2t1 -2q-56 -34 -143 -223
q18 -118 18 -241q0 -89 -10 -174q-4 -35 -29.5 -56.5t-58.5 -21.5q-41 2 -66 29q-22 25 -22 58l1 11q9 78 9 158q0 111 -16 214.5t-47 175.5q-21 48 -40 60q-1 0 -1.5 -1t-4.5 -3q-64 -37 -162 -264q22 -196 22 -369q0 -37 -25.5 -62.5t-61.5 -25.5q-37 0 -63 25.5t-26 61.5
q0 124 -9 228t-21 203q-19 164 -21 216q0 34 23.5 59.5t66.5 27.5q54 0 81 -56q51 73 101 103q53 34 104 34q46 0 88 -26q61 -37 101 -121q105 161 216 161q44 0 85 -26q66 -41 105 -140q36 -89 54 -223t18 -290q0 -84 -5 -170q-3 -34 -25 -56q146 5 279 80t200 200
q39 79 63 164q-73 50 -73 147q0 37 6 68q13 101 89 167q20 17 41 17q25 0 27 -32q3 -28 3 -56q0 -39 -6 -78l5 7l-1 4l1 3q40 97 46 201q-14 8 -14 26q0 14 11 24q9 6 19 6q13 0 24 -11q6 -9 6 -19q0 -13 -11 -24q-8 -6 -17 -6h-3q-6 -88 -35 -171q29 32 63 57q21 17 43 17
q9 0 17 -5q14 -11 14 -29q0 -24 -15 -49l-57 -104q23 31 53 53q64 105 85 226q-17 10 -17 28q0 13 10 21.5t20 8.5q14 0 22.5 -10t8.5 -21q0 -13 -11 -23q-7 -7 -18 -7q-19 -108 -72 -205l16 8q66 65 137 125q-5 8 -5 17q0 13 11 23q9 6 19 6q14 0 22.5 -10t8.5 -20
q0 -13 -11 -24q-9 -6 -20 -6q-7 0 -14 3q-58 -49 -114 -102q14 3 28 3q23 0 38 -13q13 -10 15 -30q0 -21 -14 -39q-49 -84 -124.5 -135.5t-164.5 -51.5q-30 0 -66 8l-16 3q-23 -78 -57 -150.5t-89 -132.5q-76 -78 -192 -123t-227 -45q-23 -16 -51 -16zM1315 751l-13 1
q-13 1 -29 7q11 14 24.5 20t26.5 7l12 1l16 -2q15 -3 28 -13q-14 -10 -28 -14.5t-37 -6.5zM1440 863q-13 9 -19 19.5t-9 22t-3 23.5q1 13 8 26q13 -8 19 -18.5t8.5 -21t2.5 -19.5q-1 -19 -7 -32zM1386 184q-28 16 -50 40q-41 40 -41 84q0 45 32 83q19 21 43 32q17 8 34 8
q26 0 41 -27q20 -38 20 -79q-2 -84 -66 -131q-1 -1 -3 -1l-3 1l-1 -1q2 -2 2 -4q0 -6 -5 -6zM1467 62q-29 2 -42 32q-10 20 -10 43q1 17 3 18t4 1l4 -1l1 1q-1 1 -1 3t1.5 3.5t4.5 1.5q32 -7 55 -28q15 -16 15 -36q0 -7 -2 -13q-11 -25 -33 -25zM1535 156q-57 0 -91 26
q-2 2 -2 4q0 5 5 5q1 0 3 -0.5t3 -2.5q-3 -1 -4 -4l4 -3q-2 -2 -4 -2q-5 0 -5 6l1 3q46 51 110 80q32 14 65 20q23 6 47 6l20 -2q33 -6 35 -42q0 -27 -24 -46q-46 -40 -130 -46zM1003 996q-11 0 -11 12t11 12q12 0 12 -12t-12 -12zM1124 1036q-12 0 -12 12t12 12
q11 0 11 -12t-11 -12zM1251 1093q-12 0 -12 12t12 12q11 0 11 -12t-11 -12zM1070 840q84 3 160.5 35.5t131.5 94.5q1 11 1 41q-63 -90 -176 -126q-66 -21 -135 -21h-10q13 -13 28 -24zM999 1219q79 5 132 62q-14 5 -27 8q-39 -38 -93 -45q-7 -11 -12 -25zM798 773l1 -2z" />
    <glyph glyph-name="n.swsh" unicode="n__" horiz-adv-x="1724" 
d="M798 826q-55 0 -102 30.5t-71 84.5h1q6 -15 15 -29q174 9 338 147q-8 37 -41 82l-38 17q-42 20 -52 22q-11 0 -13 -11q-6 -49 -19 -97q-26 13 -49 31q-35 25 -42 25q-6 0 -10 -5q-24 -42 -34 -90l-2 -8q-20 15 -39 32q-33 30 -36 30.5t-5 0.5q2 -88 27 -147h-1
q-27 70 -27 163q0 67 17.5 124t59.5 76q15 7 33 7q48 0 102 -38.5t97.5 -90.5t62.5 -96q15 -37 15 -73q0 -55 -30.5 -101.5t-84.5 -70.5q-36 -15 -72 -15zM168 27q-37 0 -63 25.5t-26 62.5q0 131 -9.5 242t-22.5 216q-20 176 -22 228q0 35 23.5 60.5t65.5 27.5
q31 0 54 -18.5t31 -48.5q105 153 219 153q48 0 91 -27q129 -80 176 -370q21 -131 21 -269q0 -93 -10 -183q-5 -41 -38 -63q146 5 279.5 80t200.5 200q39 79 64 164q-74 51 -74 148q0 37 5 67q14 101 90 167q20 17 41 17q12 0 21 -12t9 -72q0 -41 -6 -82l6 8l-1 5
q40 98 46 203q-3 1 -4.5 3t-3.5 3q-6 9 -6 19q0 14 11 24q9 7 19 7q14 0 24 -12q6 -8 6 -18q0 -14 -10 -22.5t-21 -8.5q-5 -88 -35 -171q29 32 63 57q21 17 42 17q10 0 18 -5q14 -11 14 -29q0 -24 -15 -49q-29 -52 -56 -104q22 32 52 54q65 104 86 225q-17 9 -17 27
q0 14 10 22.5t20 8.5q13 0 24 -11q6 -9 6 -19q0 -14 -11 -24q-8 -6 -17 -7q-20 -108 -73 -205l16 8q66 65 137 125q-4 8 -4 16q0 14 11 24q9 7 18 7q14 0 25 -12q6 -8 6 -18q0 -14 -11 -25q-9 -6 -19 -6q-7 0 -15 4q-58 -51 -114 -103q13 4 26 4l17 -2q30 -7 37 -33l1 -9
q0 -20 -13 -39q-49 -83 -124.5 -135t-165.5 -52q-30 0 -68 8l-14 3q-23 -77 -57 -150t-89 -133q-76 -78 -193.5 -123t-228.5 -45h-7q-12 -5 -27 -5l-11 1q-34 4 -56 29t-22 58l1 11q9 83 9 168q0 119 -17 229.5t-50 187.5q-22 52 -45 66h-1q-3 0 -10 -5q-71 -40 -175 -284
q23 -215 23 -392q0 -37 -25.5 -63t-61.5 -26zM936 771l-13 1q-13 1 -29 8q10 11 21 17l3 2q15 6 39 8l17 -2q14 -3 27 -13q-13 -10 -27.5 -14.5t-37.5 -6.5zM1061 883q-12 9 -18.5 19.5t-9 20.5t-2.5 19v6q0 14 7 27q13 -9 19 -19.5t8.5 -20.5t2.5 -19v-7q0 -12 -7 -26z
M1007 205q-28 15 -50 39q-40 40 -40 84q0 45 31 83q18 21 44 32q16 9 35 9q24 0 39 -28q21 -40 21 -87q-5 -76 -66 -123l-3 -1l-4 1l-1 -1q2 -2 2 -4q0 -5 -5 -5zM1084 82q-27 6 -38 32q-9 21 -9 43q0 7 1.5 13t4.5 6l4 -1l1 1l-1 3q0 2 1.5 4t4.5 2q33 -8 55 -29
q15 -16 15 -36q0 -7 -2 -13q-10 -25 -33 -25h-4zM1159 177q-18 0 -36 2q-32 3 -58 23q-2 2 -2 4t2 4t4 2l5 -3q-1 -2 -3 -3l-1 -1l-1 1q1 -2 2.5 -3t2.5 -2q-1 -1 -3 -1q-6 0 -6 5l1 3q46 51 110 80q32 14 65 20q23 6 47 6l20 -2q29 -5 36 -35v-5q0 -28 -25 -48
q-46 -40 -130 -46zM625 1016q-12 0 -12 12t12 12q11 0 11 -12t-11 -12zM745 1056q-12 0 -12 12t12 12q6 0 9 -4t3 -8q0 -12 -12 -12zM872 1113q-12 0 -12 12t12 12t12 -12t-12 -12zM691 860q84 4 160.5 36t131.5 95q2 12 2 22l-1 18q-63 -91 -178 -126q-68 -21 -138 -21h-5
q13 -13 28 -24zM620 1239q79 5 132 62q-13 5 -26 8q-39 -37 -93 -44q-8 -12 -13 -26z" />
    <glyph glyph-name="o.swsh" unicode="o__" horiz-adv-x="1580" 
d="M789 853q-55 0 -102 30t-71 84l1 1q6 -16 14 -29q81 4 155 34q101 42 184 113q-7 34 -41 82q-17 7 -33 15q-42 20 -58 23q-9 0 -12 -10q-6 -50 -19 -97q-25 12 -47 29q-36 26 -45 26q-5 0 -9 -4q-24 -42 -34 -89l-2 -10q-19 15 -37 31q-36 33 -43 33q2 -89 27 -147l-1 -1
q-27 71 -27 164q0 66 17.5 123.5t59.5 76.5q15 6 33 6q48 0 102 -38.5t97.5 -90t62.5 -95.5q15 -37 15 -73q0 -55 -30.5 -102t-84.5 -71q-36 -14 -72 -14zM415 21q-33 0 -64 13q-105 48 -130 204q-5 31 -5 65q0 95 41 198q30 53 81 53q17 0 35 -8q25 -11 39 -33t14 -48
q0 -17 -7 -35q-26 -64 -26 -123q0 -63 20 -100q3 -6 6 -9q79 17 126 85q70 99 70 238q0 50 -11 97q-17 76 -59 115q-26 23 -66 23t-94 -26q-103 -51 -152 -172q-31 -74 -31 -180q0 -53 9 -114l1 -14q0 -32 -20.5 -56t-53.5 -30l-14 -1q-32 0 -56.5 20.5t-30.5 53.5
q-12 76 -12 142q0 141 44 244q40 99 103 164.5t133 99.5q97 47 177 47q105 0 179 -68q86 -80 115 -208q15 -66 15 -136q0 -56 -10 -113q-21 -123 -87.5 -222t-178.5 -144q146 5 279 80t200 200q39 79 63 164q-73 50 -73 147q0 37 6 68q13 101 89 167q20 17 41 17
q25 0 27 -32q3 -28 3 -56q0 -39 -6 -78l5 7l-1 4l1 3q40 97 46 201q-14 8 -14 26q0 14 11 24q9 6 19 6q13 0 24 -11q6 -9 6 -19q0 -13 -11 -24q-8 -6 -17 -6h-3q-6 -88 -35 -171q29 32 63 57q21 17 43 17q9 0 17 -5q14 -11 14 -29q0 -24 -15 -49l-57 -104q23 31 53 53
q64 105 85 226q-17 10 -17 28q0 13 10 21.5t20 8.5q14 0 22.5 -10t8.5 -20q0 -14 -11 -24q-7 -7 -18 -7q-19 -108 -72 -205l16 8q66 65 137 125q-5 8 -5 17q0 13 11 23q9 6 19 6q14 0 22.5 -10t8.5 -20q0 -13 -11 -24q-10 -6 -20 -6q-7 0 -14 3q-58 -49 -114 -102q14 3 28 3
q23 0 38 -13q13 -10 15 -30q0 -21 -14 -39q-49 -84 -124.5 -135.5t-164.5 -51.5q-30 0 -66 8l-16 3q-23 -78 -57 -150.5t-89 -132.5q-77 -79 -194 -123.5t-228 -44.5h-16q-44 -11 -68 -11zM927 798l-13 1q-13 1 -29 7q11 14 24 19q16 7 39 9l17 -2q14 -3 27 -13
q-14 -10 -28 -14.5t-37 -6.5zM1052 910q-11 8 -17 16l-2 3q-11 22 -11 40v6q0 14 7 26q13 -8 19 -19t8.5 -21t2.5 -19v-6q0 -12 -7 -26zM863 184q-29 16 -50 40q-41 40 -41 84q0 45 32 83q18 21 43 32q17 8 34 8q26 0 41 -27q20 -38 20 -79q-2 -83 -66 -131q-1 -1 -3 -1
l-3 1l-1 -1q2 -2 2 -4q0 -6 -5 -6zM944 62q-29 2 -42 32q-10 20 -10 43q1 17 3 18t4 1l4 -1l1 1q-1 1 -1 3t1.5 3.5t4.5 1.5q31 -7 55 -28q15 -16 15 -36q0 -7 -2 -13q-11 -25 -33 -25zM1012 156q-57 0 -91 26q-2 2 -2 4q0 5 5 5q1 0 3 -0.5t3 -2.5q-3 -1 -4 -4l4 -3
q-2 -2 -4 -2q-5 0 -5 6l1 3q46 51 110 80q32 14 65 20q23 6 47 6l19 -2q34 -6 36 -42q0 -27 -24 -46q-46 -40 -130 -46zM616 1043q-12 0 -12 12t12 12q11 0 11 -12t-11 -12zM736 1083q-12 0 -12 12t12 12q11 0 11 -12t-11 -12zM863 1140q-12 0 -12 12t12 12t12 -12t-12 -12z
M682 887q84 3 160.5 35.5t131.5 94.5q2 11 2 23l-1 18q-63 -90 -176 -126q-66 -21 -135 -21h-10q13 -13 28 -24zM611 1266q79 5 132 62q-13 5 -26 7q-40 -37 -93 -44q-8 -11 -13 -25z" />
    <glyph glyph-name="p.swsh" unicode="p__" horiz-adv-x="1525" 
d="M599 806q-55 0 -102 30t-71 84l1 1q6 -15 14 -29q176 9 339 147q-7 34 -41 82l-38 17q-42 20 -52 22q-11 0 -13 -11q-6 -49 -19 -97q-25 12 -47 29q-37 27 -45 27q-5 0 -9 -5q-24 -42 -34 -89l-2 -10q-19 15 -37 31q-36 33 -43 33q2 -88 27 -147l-1 -1q-27 71 -27 164
q0 66 17.5 123.5t59.5 76.5q16 6 32 6q48 0 102.5 -38.5t98 -90t62.5 -95.5q15 -37 15 -73q0 -55 -30.5 -102t-84.5 -71q-36 -14 -72 -14zM117 -731q-37 0 -62 24.5t-27 61.5q-3 115 -3 227q0 249 13 480q39 725 92 771q25 22 58 22q42 -3 65 -28.5t23 -58.5l-1 -11
q47 17 90 21l35 2q84 0 154 -41q84 -47 128 -137q37 -74 37 -165q0 -44 -10 -91q-14 -74 -69 -156q-60 -89 -166 -147q142 9 271 83.5t194 196.5q39 79 63 164q-73 50 -73 147q0 37 6 68q13 101 89 167q20 17 41 17q12 0 19.5 -9t7.5 -23q3 -28 3 -56q0 -39 -6 -78l6 7l-1 7
q40 97 46 201q-14 8 -14 26q0 14 11 24q9 6 19 6q14 0 24 -11q6 -9 6 -19q0 -13 -11 -24q-8 -6 -17 -6h-3q-6 -88 -35 -171q29 32 63 57q21 17 43 17q9 0 17 -5q14 -11 14 -29q0 -24 -15 -49l-57 -104q23 31 53 53q64 105 86 226q-18 9 -18 27q0 14 12 24q9 7 19 7
q13 0 24 -11q6 -9 6 -19q0 -14 -11 -24q-8 -7 -17 -7q-20 -108 -73 -205l16 8q66 65 137 125q-4 8 -4 16q0 13 11 24q9 6 19 6q13 0 24 -11q6 -9 6 -19q0 -13 -11 -24q-9 -6 -20 -6q-7 0 -14 3q-58 -49 -114 -102q14 3 28 3q23 0 38 -13q13 -10 15 -30q0 -21 -13 -39
q-50 -84 -125 -135.5t-165 -51.5q-29 0 -68 8l-14 3q-23 -78 -57 -150.5t-89 -132.5q-76 -78 -190 -122t-228 -46q-59 -25 -128 -25q-57 0 -108 16q-11 -215 -11 -445q0 -108 3 -220q0 -37 -24.5 -62t-62.5 -27zM737 751l-13 1q-13 1 -29 7q11 14 24.5 20t26.5 7l12 1l16 -2
q15 -3 28 -13q-14 -10 -28 -14.5t-37 -6.5zM862 863q-12 9 -18.5 19.5t-9 20.5t-2.5 19v6q0 14 7 26q13 -8 19 -19t8.5 -21t2.5 -19v-6q0 -12 -7 -26zM808 184q-28 16 -50 40q-40 40 -40 85t31 82q19 21 43 32q17 8 34 8q26 0 41 -27q21 -40 21 -87q-5 -77 -66 -123l-4 -1
q-2 0 -3 1l-1 -1q2 -2 2 -4q0 -6 -5 -6zM890 62q-31 2 -43 32q-10 20 -10 42q2 18 3.5 19t3.5 1l4 -1l1 1l-1 3q0 2 1.5 3.5t4.5 1.5q33 -7 55 -29q15 -15 15 -35q0 -7 -3 -15.5t-11.5 -15.5t-19.5 -7zM957 156q-57 0 -91 26q-2 2 -2 4q0 5 5 5q3 0 6 -3l-1 -1q-2 -1 -3 -3
l4 -3q-2 -2 -4 -2q-5 0 -5 6l1 3q46 51 110 80q32 14 65 20q23 6 47 6l20 -2q33 -6 35 -42q0 -27 -24 -46q-57 -45 -130 -46zM426 996q-12 0 -12 12t12 12q11 0 11 -12t-11 -12zM546 1036q-12 0 -12 12t12 12q11 0 11 -12t-11 -12zM673 1093q-12 0 -12 12t12 12q11 0 11 -12
t-11 -12zM492 840q84 3 160.5 35.5t131.5 94.5q2 11 2 23l-1 18q-63 -90 -176 -126q-66 -21 -135 -21h-10q13 -13 28 -24zM421 1219q79 5 132 62q-13 5 -27 7q-39 -37 -92 -44q-8 -11 -13 -25zM318 182q46 0 84 22q56 33 93 86q34 51 42 92q5 28 5 53q0 50 -19.5 90.5
t-55.5 60.5q-30 18 -68 18l-16 -1q-61 -6 -132 -60q-16 -156 -28 -335q50 -26 95 -26z" />
    <glyph glyph-name="q.swsh" unicode="q__" horiz-adv-x="1763" 
d="M836 806q-55 0 -101.5 30t-70.5 84v1q6 -15 15 -29q176 9 338 147q-8 35 -40 82q-19 8 -37 17q-44 20 -54 22q-10 0 -12 -11q-6 -49 -19 -97q-26 13 -49 31q-35 25 -43 25q-6 0 -9 -5q-24 -42 -34 -89l-2 -10q-19 15 -37 31q-37 33 -44 33q4 -88 27 -147q-27 70 -27 163
q0 66 17.5 123.5t59.5 76.5q16 6 32 6q48 0 102.5 -38.5t98 -90t62.5 -95.5q15 -37 15 -73q0 -55 -30.5 -102t-84.5 -71q-35 -14 -73 -14zM627 -687q-37 2 -62 27t-25 62q3 111 3 220q0 229 -11 445q-49 -16 -107 -16q-91 0 -166 42q-96 55 -154 141q-55 82 -70 156
q-10 47 -10 91q0 91 37 164q45 91 128 138q70 41 154 41l35 -2q45 -4 90 -21l-1 10q0 33 22 57q23 28 66 31q33 0 58 -21.5t30 -55.5q44 -335 65 -779q144 9 273 83.5t195 196.5q39 79 63 164q-73 50 -73 147q0 37 6 68q13 101 89 167q20 17 40 17q13 0 21 -10
q10 -15 10 -78q0 -39 -6 -78l5 7l-1 4l1 3q39 97 45 201l-2 2q-11 9 -11 24q0 14 11 24q9 6 19 6q13 0 24 -11q6 -9 6 -19q0 -13 -11 -24q-8 -6 -18 -6h-3q-5 -88 -34 -171q29 32 63 57q21 17 43 17q9 0 17 -5q14 -11 14 -29q0 -24 -15 -49l-57 -104q23 31 53 53
q64 105 85 226q-17 9 -17 27q0 14 11 24q9 7 19 7q14 0 24 -11q7 -9 7 -19q0 -14 -12 -24q-8 -7 -17 -7q-19 -108 -72 -205l16 8q66 65 137 125q-5 8 -5 17q0 13 11 23q9 6 19 6q14 0 24 -11q7 -9 7 -19q0 -13 -11 -24q-10 -6 -20 -6q-7 0 -14 3q-58 -49 -114 -102
q14 3 28 3q23 0 38 -13q13 -10 15 -30q0 -21 -14 -39q-49 -84 -124.5 -135.5t-164.5 -51.5q-30 0 -66 8l-16 3q-23 -78 -57 -150.5t-89 -132.5q-72 -73 -178.5 -117t-215.5 -51q9 -195 9 -403q0 -113 -3 -230q-2 -37 -27 -61.5t-62 -24.5zM975 751l-13 1q-14 1 -29 7
q11 14 24.5 20t26.5 7l12 1l16 -2q15 -3 28 -13q-14 -10 -28 -14.5t-37 -6.5zM1100 863q-31 23 -31 65q1 13 8 26q30 -23 30 -59q0 -15 -7 -32zM1046 184q-29 16 -50 40q-41 40 -41 84q0 45 32 83q18 21 43 32q17 8 34 8q26 0 41 -27q20 -38 20 -79q-2 -83 -66 -131l-3 -1
q-2 0 -3 1l-1 -1q2 -2 2 -4t-1.5 -4t-4.5 -2zM1127 62q-29 2 -42 32q-10 20 -10 43q1 17 3 18t4 1l4 -1l1 1q-1 1 -1 3t1.5 3.5t4.5 1.5q31 -7 55 -28q15 -16 15 -36q0 -7 -2 -13q-11 -25 -33 -25zM1195 156q-58 0 -91 26q-2 2 -2 4q0 5 5 5q1 0 3 -0.5t2 -2.5l-3 -4l4 -3
l-4 -2q-6 0 -6 6l2 3q46 51 110 80q31 14 65 20q23 6 47 6l19 -2q34 -6 36 -42q0 -27 -24 -46q-46 -40 -130 -46zM663 996q-6 0 -9 4t-3 8q0 12 12 12t12 -12t-12 -12zM783 1036q-11 0 -11 12t11 12q12 0 12 -12t-12 -12zM910 1093q-11 0 -11 12t11 12q12 0 12 -12t-12 -12z
M730 840q83 3 160 35.5t132 94.5q1 11 1 23l-1 18q-23 -34 -55 -61q-54 -44 -120 -65t-135 -21h-10q13 -13 28 -24zM658 1219q79 5 133 62q-14 5 -27 8q-38 -37 -93 -45q-7 -11 -13 -25zM426 226q46 0 95 26q-12 179 -28 335q-70 54 -132 59l-19 1q-36 0 -65 -17
q-36 -20 -55.5 -60.5t-19.5 -90.5q0 -25 5 -53q9 -42 44 -93.5t91 -84.5q38 -22 84 -22z" />
    <glyph glyph-name="r.swsh" unicode="r__" horiz-adv-x="1641" 
d="M715 1478q-55 0 -102 30t-71 84h1q6 -15 15 -28q80 4 155 34q100 42 183 113q-7 34 -41 82q-17 7 -33 15q-42 20 -58 23q-9 0 -11 -8.5t-3 -15.5q-5 -43 -17 -83q-25 12 -47 29q-36 26 -45 26q-5 0 -9 -4q-26 -47 -35 -99q-21 15 -40 33q-34 31 -41 31q3 -90 27 -148h-1
q-27 71 -27 164q0 66 17.5 123.5t59.5 76.5q15 6 33 6q48 0 102 -38.5t98 -90t63 -96.5q14 -36 14 -72q0 -55 -30 -102t-84 -71q-37 -14 -73 -14zM168 7q-37 0 -62.5 25.5t-25.5 62.5q-5 254 -33 457q-12 110 -22 222v7q0 35 24.5 61t62.5 27q62 0 87 -66q25 36 49 62
q82 89 173 89q59 0 106.5 -38t80.5 -100q10 -21 10 -42q0 -32 -22 -59q141 11 268 85.5t191 194.5q39 79 64 164q-74 50 -74 147q0 37 5 68q14 100 90 167q20 17 41 17q12 0 21 -11t9 -73q0 -41 -6 -83l6 8l-1 7q40 97 46 201q-4 3 -7 7q-7 9 -7 20q0 13 11 23q9 6 19 6
q14 0 24 -11q7 -9 7 -19q0 -13 -11 -24q-8 -6 -17 -6h-4q-6 -88 -34 -171q27 32 62 57q21 17 42 17q10 0 19 -6q13 -11 13 -28q0 -24 -15 -50l-56 -103q22 30 52 53q65 105 86 226q-17 7 -17 27q0 14 11 24q9 7 18 7q14 0 25 -12q6 -9 6 -19q0 -13 -11 -24q-8 -6 -17 -6
q-19 -108 -73 -205l16 8q66 65 137 125q-4 8 -4 16q0 13 11 24q9 6 19 6q13 0 24 -11q6 -9 6 -19q0 -14 -11 -24q-9 -6 -19 -6q-7 0 -15 3q-58 -49 -114 -102q14 3 29 3q22 0 38 -13q12 -10 14 -30q0 -21 -13 -39q-49 -84 -124.5 -135.5t-164.5 -51.5q-32 0 -72 9l-10 2
q-23 -78 -57.5 -150.5t-89.5 -132.5q-72 -75 -180 -119t-219 -49l-12 -8q-20 -10 -41 -10q-47 0 -78 47q-16 31 -31 42q-1 1 -1.5 2t-1.5 1q-13 -2 -40 -32q-65 -67 -146 -258q20 -171 24 -393q0 -36 -26 -62t-62 -26zM854 1423l-14 1q-13 1 -28 7q11 13 24.5 19.5t37.5 8.5
l17 -2q14 -3 27 -13q-13 -10 -27 -14.5t-37 -6.5zM978 1535q-12 9 -18.5 19.5t-9 20.5t-2.5 19q1 19 7 32q13 -9 19 -19.5t8.5 -20.5t2.5 -19v-6q0 -12 -7 -26zM924 856q-28 16 -50 40q-40 39 -40 83q0 46 32 84q17 21 43 32q16 8 34 8q26 0 40 -27q21 -41 21 -80
q-2 -81 -66 -131l-3 -1l-4 2l2 -5q0 -6 -6 -6zM1006 734q-30 2 -43 32q-9 20 -9 42q1 17 3 18.5t4 1.5l3 -1l1 1l-1 3q0 2 1.5 3.5t4.5 1.5q33 -7 55 -29q16 -15 16 -34q0 -8 -3.5 -16.5t-12 -15.5t-19.5 -7zM1074 828q-60 0 -91 26q-2 2 -2 4q0 5 5 5q3 0 3.5 -1t1.5 -2
l-4 -4l-1 2q1 -2 3 -3t3 -2l-4 -2q-6 0 -6 6l1 3q47 52 110 79q32 14 65 21q24 6 47 6l20 -2q30 -5 36 -35v-5q0 -28 -25 -49q-57 -43 -129 -45zM542 1668q-12 0 -12 12t12 12q11 0 11 -12t-11 -12zM662 1708q-12 0 -12 12t12 12t12 -12t-12 -12zM789 1765q-12 0 -12 12
t12 12t12 -12t-12 -12zM608 1512q84 3 160.5 35.5t131.5 94.5q2 11 2 23l-1 18q-63 -91 -178 -127q-67 -21 -138 -21h-5q13 -12 28 -23zM537 1890q79 6 133 63q-14 5 -27 7q-39 -36 -93 -44q-7 -12 -13 -26z" />
    <glyph glyph-name="s.swsh" unicode="s__" horiz-adv-x="1616" 
d="M689 1461q-55 0 -101.5 30.5t-70.5 84.5q6 -15 15 -29q174 9 338 147q-3 14 -8 27q-12 26 -32 56q-22 9 -43 19q-38 17 -48 19q-10 0 -12 -11q-9 -60 -19 -97q-28 14 -53 33q-31 23 -39 23q-6 0 -10 -5q-23 -42 -33 -90l-2 -8q-20 15 -38.5 31t-36.5 30q-2 2 -3.5 2.5
t-2.5 0.5q4 -90 27 -148q-27 70 -27 164q0 66 17.5 123t59.5 77q16 6 32 6q48 0 102.5 -38.5t98 -90.5t62.5 -96q15 -35 15 -73q0 -55 -30.5 -101.5t-84.5 -70.5q-35 -15 -73 -15zM382 15q-103 0 -202 49q-69 34 -112 88.5t-43 126.5q0 58 34 127q30 48 79 48q20 0 40 -10
q48 -30 48 -78q0 -20 -10 -39.5t-10 -36.5q0 -42 54 -70q60 -28 125 -28h12q84 2 84 46q0 36 -60.5 108.5t-210.5 190.5q-96 76 -96 165q0 68 50.5 129.5t125.5 93.5q61 25 118 25q19 0 36 -3q60 -10 97.5 -47t37.5 -105q0 -69 -31 -97q146 5 280 80t202 200q39 80 63 164
q-73 51 -73 148q0 37 5 68q14 100 90 166q21 17 41 17q12 0 20 -9q10 -16 10 -76q0 -41 -6 -81l5 8l-1 3l1 3q39 98 45 202q-13 11 -13 25t10 22.5t20 8.5q13 0 24 -11q6 -9 6 -19q0 -14 -11 -24q-9 -7 -21 -7q-5 -88 -34 -171q29 32 63 57q20 17 42 17q10 0 18 -5
q14 -11 14 -29q0 -24 -15 -49l-57 -104q23 32 53 54q64 104 85 225q-6 3 -11.5 10.5t-5.5 17.5q0 13 11 24q9 6 19 6q14 0 24 -11q7 -9 7 -19q0 -14 -12 -24q-8 -6 -17 -7q-19 -108 -72 -205q7 5 16 8q66 65 137 125q-5 8 -5 17q0 13 10 21.5t21 8.5q13 0 21.5 -10t8.5 -20
q0 -14 -12 -24q-9 -7 -19 -7q-7 0 -14 4q-58 -50 -114 -103q13 4 26 4l17 -2q30 -7 37 -33l1 -9q0 -20 -14 -39q-49 -83 -124 -135t-164 -52q-33 0 -53 6l-30 5q-23 -77 -57 -150t-89 -133q-77 -79 -194 -123.5t-229 -44.5q-22 -13 -47 -13q-41 0 -68 31q-20 25 -20 56l1 13
q-18 -1 -41 -12q-36 -15 -57 -40q-5 -6 -5 -14q0 -14 22 -33q122 -96 195.5 -178.5t105.5 -151.5t32 -124q0 -67 -39 -114q-76 -87 -209 -91zM828 1406l-13 1q-14 1 -29 8q11 13 24 19t38 8q24 0 45 -15q-25 -18 -65 -21zM953 1518q-24 19 -29 42q-2 11 -2 24q1 12 8 26
q30 -23 30 -60q0 -15 -7 -32zM898 840q-27 15 -49 39q-41 41 -41 84q0 45 32 83q18 21 43 32q17 9 36 9q24 0 39 -27q7 -15 11 -29q9 -25 9 -52q-2 -81 -66 -130q-1 -1 -3 -1l-3 1l-1 -1q2 -1 2 -3q0 -6 -6 -6zM981 718q-30 2 -43 31q-10 21 -10 43q1 17 3 18.5t4 1.5l4 -2
l1 1l-1 4q0 2 1.5 3.5t4.5 1.5q31 -8 55 -29q15 -16 15 -36q0 -7 -2 -13q-10 -24 -32 -24zM1051 812q-18 0 -36 2q-33 3 -58 23l-2 4q0 6 5 6q3 -1 5 -3l-3 -4l4 -3l-4 -2q-6 0 -6 5l1 3q47 52 111 80q30 14 65 20q23 6 47 6l19 -2q34 -5 36 -41q0 -28 -24 -47
q-46 -40 -130 -46zM516 1651q-12 0 -12 12t12 12t12 -12t-12 -12zM636 1691q-11 0 -11 13q0 12 11 12q12 0 12 -12q0 -13 -12 -13zM763 1748q-11 0 -11 12t11 12q12 0 12 -12t-12 -12zM582 1495q84 4 161 36t132 95l1 22l-1 18q-23 -34 -55 -60q-55 -45 -122.5 -66
t-137.5 -21h-5q12 -13 27 -24zM511 1874q79 5 133 63q-14 5 -27 7q-39 -37 -93 -44q-7 -12 -13 -26z" />
    <glyph glyph-name="u.swsh" unicode="u__" horiz-adv-x="1727" 
d="M920 825q-55 0 -102 30.5t-71 84.5l15 -29q174 9 339 147l-3 9q-8 32 -38 74q-22 9 -43 19q-37 17 -48 19q-10 0 -12 -11q-9 -60 -19 -97q-26 13 -49 31q-35 25 -42 25q-6 0 -10 -5q-24 -42 -34 -90l-2 -8q-19 14 -37 30.5t-38 30.5l-5 3q3 -90 26 -148q-27 70 -27 164
q0 66 17.5 123t59.5 77q16 6 32 6q48 0 102.5 -38.5t98 -90.5t62.5 -96q15 -35 15 -73q0 -55 -30.5 -101.5t-84.5 -70.5q-36 -15 -72 -15zM613 15q-34 0 -59 23t-29 58l-4 61q-102 -142 -211 -142q-48 0 -92 28q-127 84 -173 374q-20 131 -20 271q0 96 10 188q4 34 29 56
t58 22q43 -3 66 -29t23 -58l-1 -11q-10 -85 -10 -174q0 -120 17 -232t50 -190q23 -52 45 -67l9 5q69 40 173 281q-18 200 -18 408q0 36 25.5 61.5t61.5 25.5q37 0 62 -25t27 -63q0 -154 11.5 -313t24.5 -306q11 -114 13 -164q0 -34 -23 -60q142 10 270 84.5t193 195.5
q39 79 64 164q-74 50 -74 148q0 37 6 67q13 100 89 167q20 17 41 17q12 0 21 -12t9 -72q0 -41 -6 -82l6 7l-1 7q40 97 46 201q-4 3 -7 7q-7 9 -7 20q0 13 11 23q9 6 19 6q14 0 24 -11q7 -9 7 -18q0 -14 -12 -25q-8 -6 -17 -6h-3q-6 -88 -34 -171q27 32 62 57q21 17 43 17
q10 0 18 -5q13 -11 13 -29q0 -24 -15 -49l-56 -104q22 31 52 53q65 105 86 226q-17 9 -17 27q0 14 11 24q9 7 19 7q13 0 24 -11q6 -9 6 -19q0 -14 -11 -24q-8 -7 -17 -7q-19 -108 -73 -205l16 8q66 65 137 125q-4 8 -4 16q0 13 11 24q9 6 19 6q13 0 24 -11q6 -9 6 -19
q0 -13 -11 -24q-9 -6 -20 -6q-7 0 -14 3q-58 -49 -114 -102q14 3 29 3q22 0 38 -13q12 -10 14 -30q0 -21 -13 -39q-49 -84 -124.5 -135.5t-164.5 -51.5q-32 0 -72 9l-10 2q-23 -78 -57.5 -150.5t-89.5 -132.5q-73 -75 -182 -119t-220 -49q-20 -14 -46 -17h-7zM1058 770
l-13 1q-13 1 -29 8q10 11 21 17l3 2q13 6 38 8q25 0 45 -15q-14 -10 -28 -14.5t-37 -6.5zM1183 882q-12 9 -19 20q-11 19 -11 39v7q0 12 7 26q13 -9 19 -20q11 -19 11 -39v-7q0 -12 -7 -26zM1010 184q-28 16 -50 40q-40 39 -40 84t32 83q17 21 43 32q16 8 34 8q26 0 40 -27
q21 -41 21 -80q-2 -82 -66 -130l-3 -1l-4 1l2 -5q0 -6 -6 -6zM1092 62q-30 2 -43 32q-9 20 -9 43q0 7 1.5 13t4.5 6l4 -1l1 1l-1 3q0 2 1.5 3.5t4.5 1.5q33 -7 55 -28q16 -16 16 -35q0 -20 -15 -32q-9 -7 -20 -7zM1160 156q-59 0 -91 26q-2 2 -2 4q0 5 5 5q3 0 3.5 -1
t1.5 -2l-4 -4l-1 2q1 -2 3 -3t3 -2l-4 -2q-6 0 -6 6l1 3q74 81 175 100q24 6 47 6l20 -2q30 -5 36 -35v-5q0 -28 -25 -48q-46 -40 -129 -46zM746 1015q-11 0 -11 12t11 12q12 0 12 -12t-12 -12zM867 1055q-12 0 -12 13q0 12 12 12q11 0 11 -12q0 -13 -11 -13zM994 1112
q-12 0 -12 12t12 12q11 0 11 -12t-11 -12zM813 859q84 4 160.5 36t131.5 95q1 12 1 40q-24 -34 -55 -60q-55 -45 -123 -66t-138 -21h-5q13 -13 28 -24zM742 1238q79 5 132 63q-13 5 -27 7q-38 -37 -93 -44q-7 -12 -12 -26z" />
    <glyph glyph-name="v.swsh" unicode="v__" horiz-adv-x="1452" 
d="M736 944q-55 0 -102 30t-71 84q0 1 1 1q6 -15 14 -29q176 9 339 147q-8 36 -41 82l-38 17q-42 20 -52 22q-11 0 -13 -11q-6 -49 -19 -97q-26 13 -49 31q-35 25 -42 25q-6 0 -10 -5q-24 -43 -34 -93l-2 -6q-19 15 -37 31q-36 33 -43 33q2 -88 27 -147q-1 0 -1 -1
q-27 71 -27 164q0 66 17.5 123.5t59.5 76.5q15 7 33 7q75 -7 154 -81q123 -117 123 -217q0 -55 -30.5 -102t-84.5 -71q-36 -14 -72 -14zM282 29q-71 0 -129 74.5t-93 245t-35 460.5v58q2 37 27.5 62t61.5 25q37 -2 62 -27t25 -60l-1 -108q0 -308 24.5 -431t59.5 -123
q49 0 135 172q98 203 98 351q0 70 -17 70q-36 0 -62 25.5t-26 62.5t26 62.5t62 25.5q69 0 111.5 -31.5t62 -86.5t19.5 -128q0 -187 -116 -430q-46 -92 -104 -159.5t-122 -95.5h22q144 0 284.5 76t208.5 204q39 79 64 164q-74 50 -74 148q0 37 6 67v4q15 98 89 163
q20 17 41 17q12 0 21 -11t9 -73q0 -41 -6 -82l6 7l-1 7q40 97 46 201q-14 11 -14 27q0 13 11 23q9 6 19 6q14 0 22.5 -10t8.5 -20q0 -13 -11 -24q-9 -6 -21 -6q-6 -88 -34 -171q27 32 62 57q21 17 43 17q10 0 18 -5q13 -11 13 -29q0 -24 -15 -49q-28 -54 -56 -104
q22 31 52 53q65 105 86 226q-17 9 -17 27q0 14 10 22.5t20 8.5q13 0 24 -11q6 -9 6 -19q0 -14 -11 -24q-8 -7 -17 -7q-19 -108 -73 -205l16 8q66 65 137 125q-4 8 -4 16q0 13 11 24q9 6 19 6q14 0 24 -11q6 -9 6 -19q0 -13 -11 -24q-9 -6 -20 -6q-7 0 -14 3
q-58 -49 -114 -102q14 3 29 3q41 0 51 -34l1 -9q0 -21 -13 -39q-49 -84 -124.5 -135.5t-164.5 -51.5q-38 0 -72 9l-10 2q-23 -78 -57.5 -150.5t-89.5 -132.5q-76 -79 -192.5 -123.5t-227.5 -44.5q-22 0 -43 2q-2 0 -3 1q-22 -6 -43 -6h-2zM874 889l-13 1q-13 1 -29 8
q11 13 24.5 19t26.5 7l12 1l17 -2q14 -3 27 -13q-14 -10 -28 -14.5t-37 -6.5zM999 1001q-12 9 -18.5 19.5t-9 20.5t-2.5 19v6q0 14 7 26q13 -8 19 -18.5t8.5 -21t2.5 -19.5v-6q0 -12 -7 -26zM735 184q-28 16 -50 40q-40 39 -40 84t32 83q17 21 43 32q16 8 34 8q26 0 40 -27
q21 -41 21 -80q-2 -82 -66 -130l-3 -1l-4 1l2 -5q0 -6 -6 -6zM817 62q-30 2 -43 32q-9 20 -9 43q0 7 1.5 13t4.5 6l4 -1l1 1l-1 3q0 2 1.5 3.5t4.5 1.5q33 -7 55 -28q16 -16 16 -35q0 -20 -15 -32q-9 -7 -20 -7zM885 156q-59 0 -91 26q-2 2 -2 4q0 5 5 5q3 0 3.5 -1t1.5 -2
l-4 -4l-1 2q1 -2 3 -3t3 -2l-4 -2q-6 0 -6 6l1 3q74 81 175 100q24 6 47 6l20 -2q30 -5 36 -35v-5q0 -28 -25 -48q-46 -40 -129 -46zM563 1134q-12 0 -12 12t12 12q11 0 11 -12t-11 -12zM683 1174q-12 0 -12 12t12 12q11 0 11 -12t-11 -12zM810 1231q-12 0 -12 12t12 12
t12 -12t-12 -12zM629 978q84 4 160.5 36t131.5 94q2 13 2 23l-1 18q-63 -90 -176 -126q-66 -21 -135 -21h-10q13 -13 28 -24zM558 1357q5 14 13 25q54 8 93 45q13 -3 26 -8q-53 -57 -132 -62z" />
    <glyph glyph-name="w.swsh" unicode="w__" horiz-adv-x="1843" 
d="M1140 933q-55 0 -101.5 30t-70.5 84v1q6 -15 15 -29q176 9 339 147l-9 26q-11 26 -32 56q-19 8 -37 17q-44 20 -54 22q-10 0 -12 -11q-6 -49 -19 -97q-25 12 -47 29q-37 27 -46 27q-5 0 -8 -5q-24 -42 -34 -89l-2 -10q-19 15 -37 31q-37 33 -44 33q4 -88 27 -147
q-27 70 -27 163q0 66 17.5 123.5t59.5 76.5q16 6 32 6q48 0 102.5 -38.5t98 -90t62.5 -95.5q15 -37 15 -73q0 -55 -30.5 -102t-84.5 -71q-35 -14 -73 -14zM299 10q-33 0 -65 15q-69 33 -114 129q-95 220 -95 656v57q0 36 26 61.5t63 25.5q37 -2 62 -27.5t25 -61.5v-50
q0 -401 79 -587q12 -24 19 -35q61 51 139 284q-18 153 -18 335v55q2 37 27.5 62t61.5 25q37 -2 62 -27t25 -60v-53q0 -177 18 -326q38 -295 72 -295q27 2 78 92q64 109 103 251q51 178 51 243q0 19 -7 22q-30 9 -47 32.5t-17 52.5q0 12 3 24q9 30 32.5 47t52.5 17
q12 0 24 -3q61 -19 88.5 -82t27.5 -152q0 -113 -38 -248q-45 -163 -121 -293q-61 -106 -138 -153q146 5 279 80t200 200q39 79 64 164q-74 50 -74 148q0 37 6 67q13 101 89 167q20 17 41 17q12 0 21 -12t9 -72q0 -41 -6 -82l6 7l-1 7q40 97 46 201l-8 7q-6 9 -6 19
q0 14 11 24q9 6 19 6q14 0 24 -11q6 -9 6 -19q0 -13 -11 -24q-8 -6 -17 -6h-3q-5 -88 -35 -171q29 32 63 57q21 17 43 17q9 0 17 -5q14 -11 14 -29q0 -24 -15 -49l-56 -104q22 31 52 53q65 105 86 226q-17 9 -17 27q0 14 11 24q9 7 19 7q13 0 24 -11q6 -9 6 -19
q0 -14 -11 -24q-8 -7 -17 -7q-20 -108 -73 -205l16 8q66 65 137 125q-4 8 -4 16q0 13 11 24q9 6 19 6q13 0 24 -11q6 -9 6 -19q0 -13 -11 -24q-9 -6 -20 -6q-7 0 -14 3q-58 -49 -114 -102q14 3 28 3q23 0 38 -13q13 -10 15 -30q0 -21 -13 -39q-49 -84 -124.5 -135.5
t-164.5 -51.5q-30 0 -69 8l-14 3q-23 -78 -57 -150.5t-89 -132.5q-76 -78 -192.5 -123t-226.5 -45h-7q-33 -15 -70 -15q-114 0 -183 165q-47 -84 -92 -124q-57 -48 -114 -48zM1279 878l-13 1q-14 1 -29 7q11 14 24.5 20t26.5 7l12 1l16 -2q15 -3 28 -13q-14 -10 -28 -14.5
t-37 -6.5zM1404 990q-31 23 -31 65q1 13 8 26q30 -23 30 -59q0 -17 -7 -32zM1126 184q-28 16 -50 40q-40 39 -40 84t31 83q19 21 43 32q17 8 34 8q26 0 41 -27q21 -40 21 -87q-5 -77 -66 -123l-4 -1q-2 0 -3 1l-1 -1q2 -2 2 -4q0 -6 -5 -6zM1208 62q-31 2 -43 32
q-10 20 -10 42q2 18 3.5 19t3.5 1l4 -1l1 1l-1 3q0 2 1.5 3.5t4.5 1.5q33 -7 55 -28q15 -16 15 -36q0 -19 -14 -31q-9 -7 -20 -7zM1275 156q-57 0 -91 26q-2 2 -2 4q0 5 6 5q2 0 5 -3l-1 -1q-2 -1 -3 -3l-1 2q1 -2 2.5 -3t2.5 -2q-2 -2 -4 -2q-5 0 -5 6l1 3q46 51 110 80
q32 14 65 20q23 6 47 6l20 -2q33 -6 35 -42q0 -27 -24 -46q-46 -40 -130 -46zM967 1123q-11 0 -11 12t11 12q12 0 12 -12t-12 -12zM1087 1163q-11 0 -11 12t11 12q12 0 12 -12t-12 -12zM1215 1220q-12 0 -12 12t12 12q11 0 11 -12t-11 -12zM1034 967q83 3 160 35.5t132 94.5
q1 11 1 23l-1 18q-22 -34 -55 -61q-54 -44 -120 -65t-135 -21h-10q13 -13 28 -24zM962 1346q79 5 133 62q-14 5 -27 7q-38 -36 -93 -44q-7 -11 -13 -25zM309 184l-4 3z" />
    <glyph glyph-name="x.swsh" unicode="x__" horiz-adv-x="1807" 
d="M1038 858q-55 0 -101.5 30.5t-70.5 84.5q6 -15 15 -28q172 6 338 146q-3 14 -8 27q-12 26 -32 56q-22 9 -43 19q-38 17 -48 19q-10 0 -12 -11q-9 -60 -19 -97q-28 14 -53 33q-32 23 -40 23q-5 0 -9 -5q-23 -42 -33 -90l-2 -8q-20 15 -38.5 31t-36.5 30q-2 2 -3.5 2.5
t-2.5 0.5q4 -90 27 -148q-27 70 -27 164q0 66 17.5 123t59.5 77q16 6 32 6q48 0 102.5 -38.5t98 -90.5t62.5 -96q15 -35 15 -73q0 -55 -30.5 -101.5t-84.5 -70.5q-35 -15 -73 -15zM699 -6l-12 -1q-34 0 -62 26q-138 145 -225 292q-86 -147 -224 -292q-29 -26 -63 -26
q-33 0 -61 25q-27 29 -27 63t26 62q79 82 138 167.5t109 173.5q-50 87 -109 173t-138 167q-26 28 -26 62t27 63q28 25 61 25q34 0 63 -26q138 -145 224 -292q87 147 225 292q29 26 63 26q33 0 61 -25q26 -28 26 -63q0 -33 -25 -62q-79 -81 -138 -167t-109 -173
q50 -88 109 -173.5t138 -167.5q25 -29 25 -62q0 -34 -26 -63q-9 -8 -19 -14q143 0 282.5 76.5t208.5 203.5q39 80 63 164q-73 51 -73 148q0 37 5 68q14 100 90 166q21 17 41 17q27 0 27 -32q3 -28 3 -56q0 -39 -6 -78l6 8l-2 4l1 2q40 98 46 202l-8 6q-6 9 -6 19
q0 14 10 22.5t21 8.5q13 0 23 -11q6 -9 6 -19q0 -14 -10 -22.5t-21 -8.5q-6 -88 -35 -171q29 32 63 57q21 17 42 17q10 0 18 -5q14 -11 14 -29q0 -24 -15 -49l-57 -104q23 32 53 54q64 104 86 225q-7 3 -12.5 10.5t-5.5 17.5q0 13 11 24q9 6 19 6q14 0 22.5 -10t8.5 -21
q0 -13 -11 -23q-8 -6 -17 -7q-20 -108 -73 -205l16 8q66 65 137 125q-4 8 -4 16q0 14 10 22.5t20 8.5q13 0 24 -11q6 -9 6 -19q0 -14 -11 -24q-9 -7 -19 -7q-8 0 -15 4q-58 -50 -114 -103q13 4 26 4l17 -2q30 -7 37 -33l1 -9q0 -20 -13 -39q-49 -83 -124.5 -135t-164.5 -52
q-33 0 -53 6l-30 5q-23 -77 -57 -150t-89 -133q-77 -78 -193.5 -123t-227.5 -45zM1175 803l-11 1q-14 1 -29 8q20 25 58 27q29 0 49 -15q-22 -16 -51 -19zM1302 915q-24 19 -29 42q-2 11 -2 24q1 12 8 26q30 -23 30 -59q0 -16 -7 -33zM1090 146q-28 15 -51.5 39.5
t-34.5 56.5q-4 14 -4 29q0 44 31 81q19 21 43 32q17 9 36 9q24 0 39 -27q21 -40 21 -87q-5 -77 -66 -124l-3 -1l-4 1l-1 -1q2 -2 2 -4q0 -5 -5 -5zM1172 24q-30 2 -43 31q-10 21 -10 42q2 19 3.5 20t3.5 1l4 -2l1 1l-1 4q0 2 1.5 3.5t4.5 1.5q33 -8 55 -29q15 -16 15 -36
q0 -19 -14 -31q-9 -6 -20 -6zM1242 118q-18 0 -36 2q-32 3 -58 23l-2 4q0 6 5 6l6 -3q-2 -1 -3 -3l-1 -1l4 -3q-2 -2 -4 -2q-5 0 -5 5l1 3q46 52 110 80q32 14 65 20q23 6 47 6l20 -2q33 -5 35 -41q0 -28 -24 -47q-46 -40 -130 -46zM865 1048q-12 0 -12 13q0 12 12 12
t12 -12q0 -13 -12 -13zM985 1088q-11 0 -11 13q0 12 11 12q12 0 12 -12q0 -13 -12 -13zM1112 1145q-11 0 -11 13q0 12 11 12q12 0 12 -12q0 -13 -12 -13zM931 892q84 4 161 36t132 95l1 22l-1 18q-23 -34 -55 -60q-54 -45 -122 -66t-139 -21h-5q13 -13 28 -24zM860 1271
q79 5 133 63q-14 5 -27 7q-39 -37 -93 -44q-7 -12 -13 -26z" />
    <glyph glyph-name="y.swsh" unicode="y__" horiz-adv-x="1892" 
d="M966 806q-55 0 -102 30t-71 84q1 0 1 1q6 -15 15 -29q176 9 338 147q-7 34 -41 82l-38 17q-42 20 -52 22q-11 0 -13 -11q-5 -49 -19 -97q-26 13 -49 31q-35 25 -42 25q-6 0 -10 -5q-25 -46 -35 -99q-21 15 -40 33q-34 31 -41 31q4 -88 27 -147q0 -1 -1 -1q-27 71 -27 164
q0 66 17.5 123.5t59.5 76.5q15 6 33 6q48 0 102 -38.5t98 -90t63 -95.5q14 -37 14 -73q0 -55 -30 -102t-84 -71q-37 -14 -73 -14zM382 -637q-126 0 -212 74q-54 47 -79 122q-15 44 -15 95q0 164 99 164q10 0 20 -2q31 -8 49 -32t18 -54q0 -10 -2 -20q-7 -30 -7 -55
q0 -57 34.5 -86.5t93.5 -29.5q37 0 78 13q144 51 183 378q14 116 14 242l-1 57q-121 -102 -254 -102q-65 0 -126 24q-91 36 -156 124q-94 128 -94 330q0 123 40 275q9 29 32.5 46.5t52.5 17.5q11 0 23 -3q30 -8 47.5 -31.5t17.5 -53.5q0 -11 -3 -23q-35 -130 -35 -229
q0 -142 61 -226q58 -75 137 -75q73 0 144 61q53 47 95 129q-23 213 -62 373q-3 11 -3 21q0 29 19 53t49 32q10 2 20 2q30 0 54 -18.5t32 -49.5q42 -176 68 -413q1 -6 1 -14q17 -158 17 -315q0 -61 -3 -121q145 6 278 81t200 199q38 79 63 164q-74 50 -74 148q0 37 6 67
q13 100 89 167q20 17 41 17q12 0 21 -12t9 -74q0 -40 -5 -80l5 7l-1 7q40 97 46 201q-4 3 -7 7q-7 9 -7 20q0 13 11 23q9 6 19 6q14 0 24 -11q7 -9 7 -19q0 -13 -11 -24q-9 -6 -18 -6h-3q-6 -88 -34 -171q27 32 62 57q21 17 43 17q10 0 18 -5q13 -11 13 -29q0 -24 -15 -49
l-56 -104q21 31 53 53q64 105 85 226q-17 9 -17 27q0 14 11 24q9 7 19 7q13 0 24 -11q6 -9 6 -19q0 -14 -11 -24q-8 -7 -17 -7q-19 -108 -73 -205l16 8q66 65 137 125q-4 8 -4 16q0 13 11 24q9 6 19 6q14 0 24 -11q6 -9 6 -19q0 -13 -11 -24q-9 -6 -20 -6q-7 0 -14 3
q-58 -49 -114 -102q14 3 29 3q47 0 52 -44q0 -20 -13 -38q-49 -84 -124.5 -135.5t-164.5 -51.5q-32 0 -72 9l-10 2q-23 -78 -57.5 -150.5t-89.5 -132.5q-73 -76 -183 -120t-222 -48q-15 -285 -106 -461q-73 -140 -210 -187q-67 -21 -130 -21zM1105 751l-14 1q-13 1 -28 7
q11 14 24 19q12 7 27 8l11 1l17 -2q14 -3 27 -13q-13 -10 -27 -14.5t-37 -6.5zM1229 863q-12 9 -18.5 19.5t-9 20.5t-2.5 19q1 20 7 32q13 -8 19 -18.5t9 -22.5t3 -24q-1 -12 -8 -26zM1175 184q-27 16 -50 40q-40 39 -40 84t32 83q17 21 43 32q16 8 34 8q26 0 40 -27
q21 -41 21 -80q-2 -82 -66 -130l-3 -1l-4 1l2 -5q0 -6 -6 -6zM1257 62q-30 2 -43 32q-9 20 -9 43q1 17 3 18t3 1q3 0 4 -1l1 1l-1 3q0 2 1.5 3.5t4.5 1.5q33 -7 55 -28q16 -16 16 -35q0 -20 -15 -32q-9 -7 -20 -7zM1325 156q-59 0 -91 26q-2 2 -2 4q0 5 5 5q3 0 3.5 -1
t1.5 -2l-4 -4l-1 2q1 -2 3 -3t3 -2l-4 -2q-6 0 -6 6l1 3q74 81 175 100q24 6 48 6l19 -2q30 -5 36 -35v-5q0 -28 -25 -48q-46 -40 -129 -46zM793 996q-12 0 -12 12t12 12q11 0 11 -12t-11 -12zM913 1036q-12 0 -12 12t12 12t12 -12t-12 -12zM1040 1093q-12 0 -12 12t12 12
t12 -12t-12 -12zM859 840q84 3 160.5 35.5t131.5 94.5q2 11 2 23l-1 18q-63 -90 -175 -126q-67 -21 -136 -21h-10q13 -13 28 -24zM788 1219q79 5 133 62q-14 5 -27 8q-40 -38 -93 -45q-7 -11 -13 -25z" />
    <glyph glyph-name="z.swsh" unicode="z__" horiz-adv-x="2020" 
d="M1093 789q-55 0 -101.5 30.5t-70.5 84.5q6 -15 15 -28q172 6 339 146l-9 27q-11 26 -32 56q-22 9 -43 19q-38 17 -48 19q-10 0 -12 -11q-9 -60 -19 -97q-26 13 -49 31q-35 25 -44 25q-5 0 -8 -4q-24 -43 -34 -91l-2 -8q-19 15 -37 31q-37 33 -44 33q4 -90 27 -148
q-27 71 -27 164q0 66 17.5 123t59.5 77q16 6 32 6q48 0 102.5 -38.5t98 -90.5t62.5 -96q15 -36 15 -72q0 -55 -30.5 -102t-84.5 -71q-35 -15 -73 -15zM909 16l-14 -1q-22 0 -43 12q-63 35 -216 35q-101 0 -193.5 -9.5t-181.5 -20.5q-70 -10 -140 -17q-32 0 -59 24
q-28 29 -28 64q0 33 24 61l503 532q-74 -17 -146 -30.5t-137 -13.5q-77 0 -140 28.5t-103 102.5q-10 20 -10 41q0 47 47 78q21 10 41 10q48 0 78 -47q19 -36 92 -36q48 0 111 12l141 30q70 16 138 28.5t129 12.5q37 0 63 -25.5t26 -62.5q0 -39 -29 -65l-509 -539
q139 16 271 16q213 0 315 -56q44 -31 44 -77q0 -22 -12.5 -43.5t-33.5 -33.5h3q144 0 284.5 76.5t209.5 203.5q39 80 63 165q-73 50 -73 147q0 37 5 68q14 101 90 167q20 17 40 17q13 0 21 -10q10 -17 10 -79q0 -39 -6 -78q1 1 2.5 3t2.5 5l-1 3l1 4q39 97 45 201l-2 2
q-11 9 -11 24q0 13 11 24q9 6 19 6q13 0 24 -11q6 -9 6 -19q0 -14 -11 -24q-9 -7 -21 -7q-5 -87 -34 -171q29 33 63 57q21 17 42 17q10 0 18 -5q14 -11 14 -29q0 -24 -15 -49l-57 -104q23 32 53 54q64 105 85 225q-17 8 -17 28q0 14 11 24q9 6 19 6q14 0 24 -11q7 -9 7 -19
q0 -14 -12 -24q-8 -6 -17 -6q-19 -109 -72 -205l16 7q66 66 137 125q-5 8 -5 17q0 14 11 24q9 6 19 6q14 0 24 -11q7 -9 7 -19q0 -14 -10 -22.5t-21 -8.5q-7 0 -14 4q-58 -49 -114 -103q13 4 27 4q24 0 39 -13q13 -11 15 -31q0 -20 -14 -39q-49 -83 -124.5 -134.5
t-164.5 -51.5q-30 0 -66 8l-16 3q-23 -78 -57 -150.5t-89 -133.5q-77 -78 -193.5 -123t-227.5 -45zM1219 735q-14 1 -29 8q11 13 24 19q17 8 34 8q30 0 49 -15q-10 -7 -26 -13q-20 -7 -52 -7zM1357 847q-24 18 -28 41q-3 12 -3 24q1 12 8 26q30 -23 30 -59q0 -19 -7 -32z
M1303 168q-64 37 -87 96q-4 14 -4 27q0 46 32 83q18 22 43 33q17 8 35 8q25 0 40 -27q20 -38 20 -79q-2 -83 -66 -132q-1 -1 -3 -1l-3 1l-1 -1q2 -1 2 -3t-1.5 -4t-4.5 -2zM1384 46q-29 2 -42 31q-10 21 -10 43q1 17 3 18.5t4 1.5l4 -2l1 1l-1 4q0 2 1.5 3.5t4.5 1.5
q31 -8 55 -29q15 -16 15 -36q0 -18 -15 -30q-9 -7 -20 -7zM1455 140q-18 0 -34.5 2.5t-32 7.5t-27.5 15l-2 4q0 6 5 6q1 0 2.5 -1t2 -1t0.5 -1l-3 -4l4 -3l-4 -2q-6 0 -6 5l2 3q46 52 110 80q31 14 65 20q24 7 47 7l19 -2q34 -7 36 -42q0 -28 -24 -47q-46 -40 -130 -46z
M920 979q-11 0 -11 13q0 12 11 12q12 0 12 -12q0 -13 -12 -13zM1040 1019q-11 0 -11 13q0 12 11 12q12 0 12 -12q0 -13 -12 -13zM1168 1076q-12 0 -12 13q0 12 12 12q11 0 11 -12q0 -13 -11 -13zM987 823q83 4 160 36.5t132 94.5q1 11 1 23q0 9 -1 17q-22 -34 -55 -60
q-55 -45 -122.5 -66t-137.5 -21h-5q13 -13 28 -24zM915 1202q79 5 133 63q-14 5 -27 7q-38 -36 -93 -44q-7 -12 -13 -26z" />
    <glyph glyph-name="a.titl" unicode="__a" horiz-adv-x="1718" 
d="M901 771q-36 0 -73 14q-54 24 -84 71t-30 102q0 36 14 73q19 44 63 95.5t98 90t102 38.5q17 0 32 -6q42 -19 60 -76.5t18 -123.5q0 -93 -27 -164q-1 0 -1 1q23 59 27 147q-7 0 -41 -31q-19 -18 -40 -33q-10 53 -35 99q-4 5 -10 5q-7 0 -42 -25q-23 -18 -49 -31
q-14 48 -19 97q-2 11 -13 11q-10 -2 -50 -21l-41 -18q-33 -50 -40 -82q162 -138 338 -147q9 14 15 29q0 -1 1 -1q-24 -54 -71 -84t-102 -30zM1183 166q-67 0 -105 32q-24 25 -24 55q0 18 8 36q16 33 49.5 63t81.5 47q41 15 87 15q109 0 202 -87q-3 -29 -8 -56
q-156 -105 -291 -105zM1187 -11q122 0 261 65q18 -34 57 -45q11 -3 21 -3q30 0 54 18.5t32 48.5q15 58 31 142q25 134 25 250q0 190 -78 296q-35 45 -80 72q-87 47 -189 47q-42 0 -84 -7q-142 -25 -253 -108q-64 -48 -101 -109q-12 -22 -12 -45q0 -45 43 -76q22 -12 45 -12
q45 0 76 43q19 32 55 59q75 56 176 74q29 5 57 5q55 0 97 -23q18 -10 30 -26q31 -44 39 -116q-106 52 -207 52q-78 0 -148 -25q-79 -30 -140 -83.5t-92 -121.5q-26 -56 -26 -113q0 -47 20 -92.5t63.5 -86.5t104.5 -62h-10q-144 0 -284.5 76.5t-209.5 204.5q-38 79 -63 164
q44 30 59 69.5t15 78.5q0 34 -5 63q-12 103 -90 171q-20 17 -41 17q-12 0 -21 -12t-9 -74q0 -40 5 -80l-5 7l1 4l-1 3q-39 97 -45 201q4 3 7 7q7 9 7 19q0 14 -11 24q-9 6 -19 6q-14 0 -22.5 -10t-8.5 -20q0 -13 11 -24q9 -6 18 -6h3q5 -88 34 -171q-28 32 -63 57
q-24 17 -43 17q-9 0 -17 -5q-14 -11 -14 -28q0 -25 16 -50q27 -53 56 -104q-21 31 -53 53q-63 105 -85 226q17 9 17 27q0 14 -11 24q-9 7 -19 7q-14 0 -24 -11q-6 -9 -6 -19q0 -14 11 -24q8 -7 17 -7q20 -108 72 -205l-15 8q-66 65 -137 125q4 8 4 16q0 13 -11 24
q-9 6 -19 6q-14 0 -24 -11q-6 -9 -6 -19q0 -13 11 -24q9 -6 19 -6q7 0 14 3q59 -49 114 -102q-14 3 -28 3q-40 0 -52 -34l-1 -8q0 -21 14 -40q49 -84 124.5 -135.5t164.5 -51.5q34 0 68 8l14 3q23 -78 57.5 -150.5t89.5 -132.5q76 -79 192.5 -123.5t227.5 -44.5q22 0 43 2
q43 -10 90 -10zM763 716l13 1q13 1 28 7q-10 14 -24 19q-12 7 -27 8l-11 1l-17 -2q-14 -3 -28 -13q14 -10 28 -14.5t38 -6.5zM638 828q30 23 30 59q0 19 -7 32q-24 -18 -28 -41q-3 -12 -3 -24q1 -12 8 -26zM689 148q-6 0 -6 6l2 5l-3 -1l-4 1q-64 48 -66 130q0 39 21 80
q14 27 40 27q18 0 34 -8q25 -11 43 -32q32 -38 32 -83t-41 -84q-21 -24 -49 -40zM615 27h-5q-22 0 -33 25q-2 6 -2 13q0 20 15 36q24 21 55 28q4 0 5.5 -1.5t1.5 -3.5l-2 -3l2 -1q1 1 4 1q1 0 3 -1t3 -18q0 -23 -9 -43q-12 -26 -38 -32zM542 121l-33 2q-83 6 -129 46
q-25 20 -25 48v5q6 30 36 35l19 2q24 0 47 -6q102 -18 176 -100l1 -3q0 -6 -6 -6l-4 2l4 3l-3 4q1 1 1.5 2t3.5 1q5 0 5 -5q0 -2 -2 -4q-33 -26 -91 -26zM1074 961q-12 0 -12 12t12 12t12 -12t-12 -12zM954 1001q-12 0 -12 12t12 12t12 -12t-12 -12zM827 1058q-12 0 -12 12
t12 12q11 0 11 -12t-11 -12zM1008 805q15 11 28 24h-10q-69 0 -135.5 21t-120.5 65q-32 27 -55 61l-1 -18l1 -23q55 -62 132 -94.5t161 -35.5zM1079 1184q-6 14 -13 25q-54 7 -93 45q-13 -3 -27 -8q54 -57 133 -62z" />
    <glyph glyph-name="b.titl" unicode="__b" horiz-adv-x="1896" 
d="M779 790q-37 0 -73 15q-54 24 -84.5 70.5t-30.5 101.5q0 38 15 73q19 44 63 96t98 90.5t102 38.5q17 0 32 -6q42 -20 60 -77t18 -123q0 -94 -28 -164q23 58 27 148l-2 -1q-6 -1 -38 -30q-19 -18 -41 -33l-2 8q-10 48 -33 90q-4 5 -10 5q-7 0 -41 -24q-24 -19 -51 -32
q-13 48 -18 97q-3 11 -13 11q-10 -2 -47 -19l-44 -19q-32 -49 -40 -83q164 -138 338 -147q9 14 15 29q-24 -54 -70.5 -84.5t-101.5 -30.5zM1151 -70q-31 0 -54 19q-21 -2 -43 -2q-111 0 -227.5 44.5t-192.5 123.5q-55 60 -89.5 132.5t-57.5 150.5l-14 -3q-34 -8 -68 -8
q-89 0 -164.5 51.5t-124.5 135.5q-14 19 -14 40q2 19 15 29q15 13 38 13q14 0 28 -3q-55 53 -114 102q-7 -3 -15 -3q-10 0 -18 6q-11 11 -11 24q0 10 6 19q10 11 24 11q10 0 19 -6q11 -11 11 -24q0 -8 -4 -16q70 -60 137 -125l15 -8q-52 97 -72 205q-9 0 -17 7
q-11 10 -11 24q0 10 6 18q10 12 24 12q10 0 19 -7q11 -10 11 -24q0 -18 -17 -27q22 -121 85 -226q32 -22 53 -53q-29 51 -56 104q-16 25 -16 50q0 17 14 28q8 5 17 5q19 0 43 -17q35 -25 63 -57q-29 83 -34 171h-3q-9 0 -18 6q-11 11 -11 24q0 10 8.5 20t22.5 10q10 0 18 -6
q12 -10 12 -24q0 -10 -7 -19q-3 -4 -7 -7q6 -104 45 -201l1 -4l-1 -3l5 -7q-5 40 -5 80q0 37 2 55q4 31 28 31q21 0 41 -17q78 -68 90 -171q5 -29 5 -63q0 -39 -15 -78.5t-59 -69.5q25 -85 63 -164q70 -128 210.5 -204.5t284.5 -76.5l31 1q-37 40 -69 528q-18 245 -18 575
q0 128 3 268q2 36 27 61t62 25q37 -2 62 -27.5t25 -61.5q-3 -141 -3 -269q0 -206 8 -387q125 75 255 75q59 0 114 -15q104 -29 177 -98q83 -76 108 -179q9 -39 9 -76q0 -80 -39 -149q-58 -103 -171 -161.5t-242 -58.5q-78 1 -157 26l2 -16q0 -33 -21.5 -57.5t-55.5 -29.5z
M640 735q-40 3 -65 21q21 15 45 15q26 -3 39 -8.5t23 -18.5q-15 -7 -29 -8zM516 847q-8 17 -8 32q0 35 30 60q8 -16 8 -32q0 -35 -30 -60zM689 98q-6 0 -6 6q0 2 2 4l-1 1q-1 -1 -3 -1l-3 1q-64 48 -66 130q0 39 21 80q14 27 40 27q18 0 34 -8q25 -11 43 -32q32 -38 32 -83
t-41 -84q-21 -24 -49 -40zM615 -23h-5q-11 0 -20 7q-15 12 -15 31q0 20 15 35q24 22 55 29q4 0 5.5 -1.5t1.5 -3.5l-2 -3l2 -1q1 1 4 1q1 0 3 -1t3 -18q0 -23 -9 -43q-12 -26 -38 -32zM542 71l-33 2q-73 1 -129 46q-25 20 -25 48v5q6 30 36 35l19 2q24 0 47 -6
q102 -18 176 -100l1 -3q0 -6 -6 -6l-4 2l4 3l-3 4q1 1 1.5 2t3.5 1q5 0 5 -5q0 -2 -2 -4q-12 -11 -27.5 -16t-31 -7.5t-32.5 -2.5zM952 980q-12 0 -12 12t12 12t12 -12t-12 -12zM832 1020q-12 0 -12 12t12 12q11 0 11 -12t-11 -12zM705 1077q-12 0 -12 12t12 12q11 0 11 -12
t-11 -12zM886 824q-84 4 -161 36t-132 95l-1 22l1 18q23 -34 55 -60q54 -45 122 -66t139 -21h5q-13 -13 -28 -24zM957 1203q-6 14 -13 26q-54 7 -93 44q-13 -2 -27 -7q54 -58 133 -63zM1395 184q86 0 159 38q68 35 99 91q17 30 17 65q0 16 -4 33q-13 51 -56 91.5t-104 57.5
q-32 9 -68 9q-32 0 -67 -8q-85 -20 -176 -103q9 -112 19 -215q85 -59 181 -59z" />
    <glyph glyph-name="c.titl" unicode="__c" horiz-adv-x="1571" 
d="M799 761q-36 0 -73 14q-54 24 -84 71t-30 102q0 36 14 72q19 45 63 96.5t98.5 90t101.5 38.5q18 0 32 -6q42 -19 60 -76.5t18 -123.5q0 -93 -27 -164h-1q23 59 27 148q-7 0 -41 -31q-19 -18 -40 -33q-10 52 -35 99q-4 4 -9 4q-9 0 -45 -26q-22 -17 -47 -29q-14 47 -19 97
q-2 10 -12 10q-16 -3 -58 -23q-16 -8 -33 -15q-34 -48 -41 -82q162 -138 338 -147q9 13 15 28h1q-24 -54 -71 -84t-102 -30zM1155 -2l23 1q127 7 289 119q37 31 37 72q0 27 -16 51q-30 37 -72 37q-26 0 -51 -16q-119 -83 -200 -87h-12q-43 0 -66 15q-34 17 -58 51
q-45 67 -51 159l-1 26q0 81 33.5 142.5t83.5 99.5q70 51 138 51q19 0 36 -5q57 -14 80 -90q9 -30 32.5 -47.5t52.5 -17.5q11 0 23 3q30 9 47.5 32.5t17.5 52.5q0 11 -3 23q-26 89 -78 142q-84 83 -206 83q-43 0 -88 -11q-83 -20 -157 -75q-82 -61 -135 -158t-53 -223
q0 -164 85 -289q48 -69 121 -106q10 -6 29 -13q-145 6 -277 81t-199 199q-38 79 -63 164q44 30 59 69.5t15 77.5q0 34 -5 63q-12 104 -90 172q-20 17 -41 17q-25 0 -28 -32q-2 -20 -2 -54q0 -40 5 -81q-2 5 -5 8l1 3l-1 4q-39 97 -45 201q4 3 7 7q7 9 7 19q0 14 -11 24
q-9 6 -19 6q-14 0 -22.5 -10t-8.5 -20q0 -13 11 -24q8 -6 17 -6h4q5 -88 34 -171q-28 32 -63 57q-23 17 -42 17q-9 0 -18 -6q-14 -11 -14 -28q0 -24 16 -50l56 -103q-21 30 -53 53q-63 105 -85 226q17 9 17 27q0 14 -11 24q-9 7 -19 7q-14 0 -24 -12q-6 -8 -6 -18
q0 -14 11 -25q8 -6 17 -6q20 -108 72 -205l-15 8q-66 65 -137 125q4 8 4 16q0 13 -11 24q-9 6 -19 6q-14 0 -24 -11q-6 -9 -6 -19q0 -14 11 -24q8 -6 18 -6q8 0 15 3q59 -49 114 -102q-14 3 -28 3q-23 0 -38 -13q-13 -10 -15 -29q0 -21 14 -40q49 -84 124.5 -135.5
t164.5 -51.5q34 0 68 8l14 3q23 -78 57.5 -150.5t89.5 -132.5q76 -78 192 -123t227 -45h16q41 -11 86 -11zM661 706l13 1q13 1 28 7q-20 25 -62 28l-17 -2q-14 -3 -27 -13q13 -10 27 -14.5t38 -6.5zM536 818q13 9 19 19.5t8.5 20.5t2.5 19q-1 19 -7 32q-13 -9 -19 -19.5
t-9 -22t-3 -23.5q1 -12 8 -26zM689 160q-6 0 -6 6l2 5l-3 -1l-4 1q-64 48 -66 130q0 39 21 80q14 27 40 27q18 0 34 -8q25 -11 43 -32q32 -38 32 -84q0 -44 -41 -83q-21 -24 -49 -40zM615 39h-5q-11 0 -20 7q-15 12 -15 30q0 20 15 36q24 22 55 29q4 0 5.5 -1.5t1.5 -3.5
l-2 -3l2 -1l3 1q5 0 6 -6t1 -13q0 -23 -9 -43q-12 -26 -38 -32zM542 133l-33 2q-72 2 -129 45q-25 21 -25 49v5q6 30 36 35l19 2q24 0 47 -6q35 -7 66 -21q63 -27 110 -79l1 -3q0 -6 -6 -6l-4 2l4 3l-3 4q1 1 1.5 2t3.5 1q5 0 5 -5q0 -2 -2 -4q-12 -11 -27.5 -16t-31 -7.5
t-32.5 -2.5zM972 951q-12 0 -12 12q0 4 3 8t9 4q12 0 12 -12t-12 -12zM852 991q-12 0 -12 12t12 12t12 -12t-12 -12zM725 1048q-12 0 -12 12t12 12t12 -12t-12 -12zM906 795q15 11 28 24h-10q-69 0 -136 21q-112 36 -175 126l-1 -18q0 -12 2 -23q55 -62 131.5 -94.5
t160.5 -35.5zM977 1173q-6 14 -13 26q-54 8 -93 44q-13 -2 -27 -7q54 -57 133 -63z" />
    <glyph glyph-name="d.titl" unicode="__d" horiz-adv-x="1691" 
d="M901 880q-36 0 -72 15q-54 24 -84.5 70.5t-30.5 101.5q0 38 15 73q19 44 62.5 96t98 90.5t101.5 38.5q18 0 33 -6q42 -20 59.5 -77t17.5 -123q0 -94 -27 -164h-1q25 58 27 148q-1 0 -2.5 -0.5t-3.5 -2.5q-18 -14 -36 -30t-38 -31l-2 8q-10 48 -34 90q-4 5 -10 5
q-7 0 -42 -25q-23 -18 -49 -31q-10 37 -19 97q-2 11 -12 11q-11 -2 -48 -19q-21 -10 -43 -19q-33 -47 -41 -83q165 -138 339 -147q8 14 14 29h1q-24 -54 -71 -84.5t-102 -30.5zM1489 -2q-42 3 -65 29.5t-23 59.5q0 8 2 16q-78 -26 -158 -26q-90 0 -175 29h-13
q-112 0 -229 44.5t-194 123.5q-55 60 -89 133t-57 150l-15 -2q-35 -9 -68 -9q-89 0 -164.5 52t-124.5 135q-13 19 -13 39q4 34 38 42l17 2q13 0 26 -4q-55 53 -114 103q-7 -4 -15 -4q-10 0 -19 7q-11 10 -11 24q0 10 6 19q11 11 24 11q10 0 20 -8.5t10 -22.5q0 -8 -4 -16
q71 -60 137 -125l16 -8q-53 97 -73 205q-9 1 -17 7q-11 10 -11 24q0 10 6 19q11 11 24 11q10 0 19 -6q11 -11 11 -24q0 -10 -5.5 -17.5t-11.5 -10.5q22 -121 86 -225q30 -22 53 -54l-57 104q-15 25 -15 49q0 18 14 29q8 5 18 5q21 0 42 -17q35 -25 63 -57q-29 83 -35 171
q-10 0 -20.5 8.5t-10.5 22.5q0 10 6 19q10 11 23 11q11 0 21 -8.5t10 -22.5q0 -10 -6 -19l-8 -6q7 -104 46 -202l-1 -6l6 -8q-6 39 -6 78q0 62 9 79q8 9 21 9q20 0 41 -17q76 -66 90 -166q5 -31 5 -68q0 -97 -74 -148q25 -84 64 -164q67 -125 201 -200t281 -80q-20 8 -38 17
q-114 60 -173 162q-39 70 -39 151q0 36 9 74q27 104 108 180q73 68 178 98q53 14 111 14q132 0 258 -75q8 187 8 402q0 122 -3 254q0 37 24.5 62t62.5 27q36 0 61.5 -24.5t27.5 -61.5q3 -139 3 -267q0 -250 -11 -463l-3 -42q-4 -35 -4 -73q-18 -255 -47 -476
q-5 -35 -29.5 -56.5t-57.5 -21.5zM763 825q-23 2 -37 6.5t-28 14.5q20 15 45 15q25 -2 38 -8l3 -2q11 -6 21 -17q-16 -7 -29 -8zM638 937q-7 14 -7 26v7q0 20 11 39q7 11 19 20q7 -14 7 -26v-7q0 -20 -11 -39q-6 -11 -19 -20zM689 258q-5 0 -5 5q0 2 2 4l-1 1l-4 -1l-3 1
q-61 47 -66 123q0 48 21 88q15 27 39 27q19 0 36 -9q25 -11 43 -32q31 -38 31 -82q0 -45 -40 -85q-22 -24 -50 -39zM615 137h-6q-22 0 -31 24q-2 6 -2 13q0 20 15 36q23 21 55 29q3 0 4.5 -2t1.5 -4l-1 -3l1 -1l4 2q2 0 3.5 -1t3.5 -20q0 -22 -10 -42q-11 -24 -38 -31z
M540 231l-30 1q-84 6 -130 46q-24 19 -24 47q2 36 35 41l20 2q24 0 47 -6q33 -6 65 -20q64 -28 110 -80l1 -3q0 -5 -5 -5q-2 0 -4 2l4 3l-1 1q-2 1 -3 3l5 3q6 0 6 -6l-2 -4q-26 -20 -58 -23q-18 -2 -36 -2zM1074 1070q-11 0 -11 12t11 12q12 0 12 -12t-12 -12zM954 1110
q-11 0 -11 13q0 12 11 12q12 0 12 -12q0 -13 -12 -13zM827 1167q-12 0 -12 12t12 12t12 -12t-12 -12zM1008 914q15 11 28 24h-5q-70 0 -138 21t-123 66q-31 26 -55 60l-1 -18q0 -10 2 -22q55 -63 131.5 -95t160.5 -36zM1079 1293q-5 14 -13 26q-53 7 -93 44q-13 -2 -26 -7
q53 -58 132 -63zM1245 253q100 0 181 58q11 104 18 215q-119 111 -242 111q-36 0 -69 -9q-60 -17 -103 -57t-56 -91q-4 -17 -4 -34q0 -35 17 -65q32 -55 99 -90q74 -38 159 -38z" />
    <glyph glyph-name="e.titl" unicode="__e" horiz-adv-x="1565" 
d="M902 781q-37 0 -73 15q-54 24 -84.5 70.5t-30.5 101.5q0 36 15 73q19 44 63 96t98 90.5t102 38.5q17 0 32 -7q42 -19 60 -76t18 -124q0 -93 -28 -163q23 59 27 147q-1 0 -4.5 -0.5t-35.5 -29.5q-19 -18 -41 -33l-2 8q-10 48 -33 90q-4 5 -10 5q-7 0 -41 -24
q-24 -19 -51 -32q-12 48 -19 97q-2 11 -12 11q-10 -2 -54 -22q-18 -9 -37 -17q-32 -47 -40 -82q164 -138 338 -147q9 14 15 29q-24 -54 -70.5 -84.5t-101.5 -30.5zM1020 476q42 107 125 167q69 45 117 45q24 0 42 -9q34 -19 34 -51q0 -21 -16 -45q-28 -40 -101 -69.5
t-201 -37.5zM1151 -1q151 0 318 113q37 31 37 72q0 27 -16 51q-30 37 -72 37q-26 0 -51 -16q-121 -81 -220 -81q-80 0 -121 53q-19 28 -27 71q188 9 302 59t164 122.5t50 145.5q0 29 -7 56q-26 103 -126 155q-53 27 -120 27q-108 0 -219 -77q-101 -73 -163 -191.5
t-62 -243.5q0 -139 65 -226q53 -73 132 -103l11 -5q-143 10 -271 84.5t-194 195.5q-39 79 -63 164q73 51 73 148q0 36 -5 67q-14 103 -90 167q-20 17 -40 17q-13 0 -21.5 -12t-8.5 -74q0 -40 5 -80l-5 8l1 3l-1 3q-39 97 -45 202l4 3q9 9 9 22q0 14 -11 24q-9 7 -18 7
q-14 0 -25 -12q-6 -8 -6 -18q0 -14 11 -24q9 -7 21 -7q5 -88 34 -171q-28 32 -63 57q-20 17 -42 17q-10 0 -18 -5q-14 -11 -14 -29q0 -24 15 -49l57 -104q-22 32 -53 54q-63 104 -85 225q17 9 17 27q0 14 -10 22.5t-21 8.5q-13 0 -23 -11q-6 -9 -6 -19q0 -14 11 -24
q8 -6 17 -7q19 -108 72 -205l-15 8q-67 65 -137 125q4 8 4 16q0 14 -11 24q-9 7 -19 7q-14 0 -24 -12q-7 -8 -7 -18q0 -14 12 -25q8 -6 18 -6q8 0 15 4q59 -51 114 -103q-13 4 -26 4l-17 -2q-34 -8 -38 -42q0 -20 14 -39q49 -83 124.5 -135t164.5 -52q33 0 67 8l15 3
q23 -77 57 -150t89 -133q77 -79 194 -123.5t228 -44.5h10q41 -8 85 -8zM763 726l13 1q14 1 29 8q-10 13 -24 19t-39 8l-16 -2q-14 -3 -28 -13q25 -18 65 -21zM638 838q31 23 31 59q0 17 -8 33q-30 -24 -30 -60q0 -15 7 -32zM690 159q-6 0 -6 6q0 2 2 3l-1 1l-3 -1q-2 0 -3 1
q-64 49 -66 130q0 41 21 80q14 28 39 28q18 0 35 -9q25 -11 43 -32q32 -38 32 -83q0 -43 -41 -84q-21 -24 -49 -39zM616 37h-4q-23 0 -34 25q-2 6 -2 13q0 20 15 36q24 21 55 29q3 0 5 -2t2 -4l-2 -3l1 -1l4 1q2 0 4 -1t3 -18q0 -22 -10 -43q-11 -25 -37 -32zM540 132
q-105 0 -160 47q-24 19 -24 46q2 36 36 42l19 2q24 0 47 -6q102 -18 176 -100l1 -3q0 -5 -6 -5l-4 1l6 5l-2 -1l-3 4q2 2 5 3q5 0 5 -6q0 -2 -2 -4q-25 -20 -58 -23q-18 -2 -36 -2zM1075 971q-12 0 -12 12t12 12t12 -12t-12 -12zM955 1011q-12 0 -12 12t12 12q11 0 11 -12
t-11 -12zM828 1068q-12 0 -12 12t12 12q11 0 11 -12t-11 -12zM1009 815q15 11 28 24h-5q-71 0 -139 20.5t-122 65.5q-32 27 -55 61l-1 -18l1 -22q55 -63 132 -95t161 -36zM1080 1194q-6 14 -13 26q-55 7 -93 44q-13 -3 -27 -8q54 -57 133 -62z" />
    <glyph glyph-name="f.titl" unicode="__f" horiz-adv-x="1786" 
d="M901 736q-36 0 -73 15q-54 24 -84 71t-30 102q0 36 14 72q19 44 63 96t98 90.5t102 38.5q17 0 32 -6q42 -20 60 -77t18 -123q0 -93 -28 -164q23 58 27 148q-7 0 -41 -31q-19 -18 -40 -33q-10 52 -35 99q-4 4 -9 4q-8 0 -42 -24q-24 -19 -51 -32q-13 49 -18 97
q-3 11 -13 11q-14 -3 -49 -20q-21 -10 -42 -18q-32 -49 -40 -83q166 -140 338 -146q9 13 15 28q-24 -54 -70.5 -84.5t-101.5 -30.5zM1316 -740q33 0 57.5 21.5t29.5 56.5q9 77 9 164q0 117 -11.5 246t-26.5 259l-2 23q90 4 177 32q27 11 42.5 33.5t15.5 49.5q0 15 -5 30
q-10 27 -32.5 42.5t-50.5 15.5q-15 0 -30 -5q-58 -19 -135 -23q-16 150 -16 265q0 186 56 223q36 21 74 21q18 0 35 -5q25 -6 40 -22q12 -11 15 -28l1 -12q0 -36 -39 -93q-17 -25 -17 -52q0 -41 37 -71q25 -17 52 -17q40 0 71 36q73 101 73 197q0 22 -4 42q-13 75 -66 125
q-81 76 -197 76q-86 0 -169 -48q-77 -51 -106 -155t-29 -244q0 -120 14 -259q-75 -14 -147 -59q-40 -31 -40 -74q0 -25 15 -49q13 -18 31 -29q-145 6 -278 81t-200 200q-38 79 -63 164q44 30 59 69.5t15 77.5q0 34 -5 63q-12 104 -90 172q-20 17 -41 17q-12 0 -21 -10
q-9 -16 -9 -77q0 -40 5 -80q-1 3 -2.5 5t-2.5 3l1 3l-1 4q-39 97 -45 201q4 3 7 7q7 9 7 18q0 14 -12 25q-8 6 -18 6q-14 0 -22.5 -10t-8.5 -21q0 -13 11 -21.5t21 -8.5q5 -87 34 -171q-28 33 -63 57q-20 17 -42 17q-10 0 -18 -5q-14 -11 -14 -28q0 -25 16 -50l56 -103
q-21 30 -53 53q-63 105 -85 225q17 8 17 28q0 14 -11 24q-9 6 -19 6q-14 0 -24 -11q-6 -9 -6 -19q0 -14 11 -24q8 -6 17 -6q20 -109 72 -205l-15 7q-66 66 -137 125q4 8 4 16q0 14 -11 25q-9 6 -19 6q-14 0 -24 -11q-6 -9 -6 -19q0 -14 11 -24q9 -7 19 -7q7 0 14 4
q59 -49 114 -103q-13 4 -27 4q-24 0 -38 -12t-16 -30q0 -22 14 -41q49 -83 124.5 -134.5t164.5 -51.5q34 0 68 8l14 3q23 -78 57.5 -150.5t89.5 -133.5q76 -78 192.5 -122.5t227.5 -44.5h28q25 0 47 14q30 20 68 30q15 -142 27 -276q11 -123 11 -231q0 -76 -7 -141l-1 -11
q0 -33 23 -59t66 -29zM775 682l5 1q12 2 24 7q-10 13 -24.5 20t-33.5 7q-29 0 -49 -15q14 -9 27 -13t25.5 -5.5t25.5 -1.5zM638 794q30 24 30 59q0 18 -7 32q-24 -18 -29 -42q-2 -11 -2 -23q1 -13 8 -26zM689 114q-6 0 -6 6l2 3l-1 1l-3 -1q-2 0 -3 1q-64 50 -66 131
q0 40 21 80q14 27 39 27q18 0 35 -8q25 -11 43 -33q32 -37 32 -83q0 -13 -4 -27q-21 -57 -86 -96zM615 -7h-5q-11 0 -20 7q-15 12 -15 30q0 20 15 36q24 21 55 29q4 0 5.5 -1.5t1.5 -3.5l-2 -4l2 -1l3 2q2 0 4 -1.5t3 -18.5q0 -22 -9 -43q-12 -24 -38 -31zM539 87
q-105 0 -159 47q-25 20 -25 48v5q6 30 36 36l19 2q24 0 47 -6q106 -23 176 -101l1 -3q0 -5 -6 -5l-4 2l4 3l-3 4q3 3 5 3q5 0 5 -6l-2 -4q-12 -10 -27.5 -15t-32 -7.5t-34.5 -2.5zM1074 926q-12 0 -12 13q0 12 12 12t12 -12q0 -13 -12 -13zM954 966q-12 0 -12 13q0 12 12 12
t12 -12q0 -13 -12 -13zM827 1023q-12 0 -12 13q0 12 12 12q11 0 11 -12q0 -13 -11 -13zM1008 770q15 11 28 24h-5q-71 0 -139 21t-122 66q-32 26 -55 60q-1 -8 -1 -17q0 -12 1 -23q55 -62 132 -94.5t161 -36.5zM1079 1149q-6 14 -13 26q-54 7 -93 44q-13 -2 -27 -7
q54 -58 133 -63z" />
    <glyph glyph-name="g.titl" unicode="__g" horiz-adv-x="1708" 
d="M909 1075q-6 0 -9 4t-3 8q0 5 3 8.5t9 3.5t9 -3.5t3 -8.5q0 -4 -3 -8t-9 -4zM662 1172q-6 0 -9 4t-3 8q0 5 3 8.5t9 3.5t9 -3.5t3 -8.5q0 -4 -3 -8t-9 -4zM789 1115q-6 0 -9 4t-3 8q0 5 3 8.5t9 3.5t9 -3.5t3 -8.5q0 -4 -3 -8t-9 -4zM908 999q23 59 27 148q-3 0 -6 -2
q-18 -14 -35 -29q-19 -18 -40 -33q-10 52 -35 99q-4 4 -9 4q-4 0 -8 -2q-19 -11 -37 -24q-22 -17 -47 -29q-14 47 -19 97q-1 5 -4.5 7.5t-7.5 2.5l-5 -1q-25 -9 -50 -21q-18 -8 -37 -16q-20 -30 -31 -56q-6 -12 -9 -26q83 -71 183 -113q75 -30 155 -34q9 13 15 28zM914 1297
q-6 14 -13 26q-53 7 -93 44q-13 -2 -27 -7q54 -57 133 -63zM1200 172h-7q-45 0 -83.5 22.5t-60.5 67.5q-21 44 -21 89q0 81 54.5 144t139.5 68q49 0 104 -30.5t113 -100.5l3 -4q6 -28 9 -58q-52 -100 -119 -148t-132 -50zM1192 -5q75 1 147 28.5t138 88.5q4 -63 4 -125
q0 -133 -19.5 -249t-63 -195t-115.5 -103q-42 -13 -79 -13q-60 0 -94.5 29t-34.5 85q0 18 5 37q5 20 5 41q0 37 -26 63t-62 26q-30 0 -54.5 -18.5t-32.5 -49.5q-12 -51 -12 -96q0 -92 41.5 -158t111 -101t154.5 -35q63 0 131 21q120 40 191 143.5t101 252t30 318.5
q0 185 -27 375q0 8 -2 15q-23 170 -57 310q-8 30 -32 49t-54 19q-27 0 -50 -16t-34 -43q-92 46 -179 46q-164 -8 -268 -121t-104 -269q0 -97 44 -177.5t122 -128.5q0 -1 1 -2q-125 9 -247 76q-141 76 -210 204q-39 79 -63 164q44 30 58.5 69t14.5 78q0 37 -5 68q-1 2 -1 4
q-14 98 -89 163q-20 17 -41 17q-12 0 -21 -10q-5 -10 -6 -22v-1q-3 -28 -3 -55q0 -40 6 -79l-5 8l1 3l-1 4q-39 97 -45 201l2 2q3 2 5 5q6 9 6 19q0 14 -11 24q-9 6 -19 6q-13 0 -24 -11q-6 -9 -6 -19q0 -14 11 -24q8 -6 17 -6h4q5 -88 34 -171q-28 32 -63 57q-21 16 -42 16
q-10 0 -18 -5q-14 -11 -14 -29q0 -24 15 -49l57 -103q-23 30 -53 53q-63 105 -85 226q3 1 5.5 3t4.5 5q7 9 7 20q0 13 -11 23q-9 6 -19 6q-14 0 -24 -11q-7 -9 -7 -18q0 -14 12 -25q8 -6 17 -6q19 -108 72 -205l-16 8q-65 65 -137 125q5 8 5 16q0 13 -11 24q-9 6 -19 6
q-14 0 -24 -11q-7 -9 -7 -19q0 -14 11 -24q9 -6 19 -6q8 0 15 3q59 -49 114 -102q-14 3 -28 3q-8 0 -15 -1q-13 -3 -23.5 -11.5t-13.5 -21.5l-1 -9q0 -21 14 -39q49 -84 124.5 -135.5t164.5 -51.5q33 0 67 8l15 3q23 -78 57 -150.5t89 -132.5q77 -79 194 -124
q108 -42 212 -45q69 -35 152 -35zM473 942q12 9 18 19q7 11 10 22q2 9 2 18v7q-1 12 -7 25q-13 -9 -19 -19q-7 -11 -9 -22q-3 -12 -3 -24q1 -12 8 -26zM598 830l13 1q13 1 28 7q-10 13 -24 19q-12 6 -27 8l-11 1l-17 -2q-14 -3 -27 -13q13 -10 26 -14t25 -6zM631 178
q-11 -9 -24 -13q-16 -5 -31 -7q-16 -3 -33 -3l-33 2q-73 2 -130 45q-24 20 -24 47v7q5 29 36 35l19 2q24 0 47 -6q33 -7 65 -21q62 -26 107 -76h1q2 0 3.5 -1.5t1.5 -3.5t-1 -3zM616 61h-5q-11 0 -20 7t-13 17q-2 7 -2 13q0 20 15 36q24 22 54 29h2q2 0 3.5 -1.5t1.5 -3.5
t-1 -3l1 -1l3 1q3 0 4.5 -1t2.5 -4l1 -15q0 -22 -10 -43q-11 -24 -37 -31zM690 182q-3 0 -4.5 2t-1.5 4t2 4l-1 1l-4 -2l-2 1q-61 47 -66 124v8q0 26 8 51q4 13 12 28t20 22q10 5 21 5q18 0 34 -8q25 -11 43 -32q32 -38 32 -84q0 -13 -4 -27q-12 -32 -37 -56
q-21 -24 -50 -40zM550 1055q-1 8 -1 17zM549 1072q0 36 14 73q19 44 63 95.5t98.5 90t101.5 38.5q18 0 32 -6q42 -19 60 -76.5t18 -123.5q0 -93 -27 -164q-24 -54 -71 -84t-102 -30q-36 0 -73 14q-54 24 -84 71q-23 37 -29 79q55 -62 132 -94q77 -33 161 -36q15 11 28 24
h-10q-69 0 -135.5 21t-120.5 65q-32 27 -55 61q-1 -9 -1 -18z" />
    <glyph glyph-name="h.titl" unicode="__h" horiz-adv-x="1807" 
d="M711 897q-36 0 -73 15q-54 24 -84 70.5t-30 101.5q0 36 14 73q19 44 63 96t98.5 90.5t101.5 38.5q18 0 33 -7q42 -19 59.5 -76t17.5 -124q0 -93 -27 -163h-1q24 59 27 147q-1 0 -4.5 -0.5t-35.5 -29.5q-19 -18 -41 -33q-10 52 -35 98q-4 5 -10 5q-7 0 -42 -25
q-23 -18 -49 -31q-14 48 -19 97q-2 11 -13 11q-10 -2 -52 -22l-38 -17q-33 -45 -41 -82q164 -138 338 -147q9 14 15 29h1q-24 -54 -71 -84.5t-102 -30.5zM1637 7q-11 0 -23 3q-30 9 -47.5 32.5t-17.5 52.5q0 12 3 23q29 111 29 199q0 81 -20.5 141.5t-55.5 99.5
q-48 54 -108 54q-71 0 -132 -79q-46 -58 -76 -164q13 -131 28 -254l1 -11q0 -33 -22 -57q-24 -28 -66 -31q-30 0 -54 19h-20q-111 0 -228 44.5t-194 123.5q-55 60 -89 132.5t-57 150.5l-15 -3q-34 -8 -67 -8q-89 0 -164.5 51.5t-124.5 135.5q-14 18 -14 39q2 20 15 30
q15 13 38 13q14 0 28 -3q-55 53 -114 102q-7 -3 -15 -3q-10 0 -19 6q-11 10 -11 23q0 11 8.5 21t22.5 10q10 0 19 -6q11 -11 11 -24q0 -8 -5 -16q71 -60 137 -125l16 -8q-53 97 -72 205q-10 0 -18 6q-11 11 -11 24q0 10 7 19q10 11 24 11q10 0 19 -6q11 -10 11 -23
q0 -11 -7 -20q-4 -5 -10 -8q22 -121 85 -226q30 -23 53 -53l-57 103q-15 25 -15 49q0 18 14 29q8 5 18 5q39 0 105 -73q-29 83 -35 171h-3q-9 0 -17 6q-11 10 -11 24q0 10 6 19q11 11 24 11q10 0 19 -6q11 -10 11 -24q0 -18 -14 -26q7 -104 46 -201l1 -4l-1 -3l5 -8
q-6 39 -6 79q0 30 3 56q2 32 27 32q21 0 41 -17q76 -66 90 -167q5 -31 5 -68q0 -97 -73 -147q24 -85 63 -164q69 -128 209.5 -204.5t284.5 -76.5h10q-18 20 -22 48q-16 130 -30 269l-1 13q-34 365 -34 777q0 126 3 263q2 37 27.5 61.5t61.5 24.5q38 -2 62.5 -27.5
t24.5 -61.5q-3 -135 -3 -259q0 -247 12 -459v-8q104 102 232 102q46 0 90 -14q84 -26 149 -99q54 -60 87 -151.5t33 -208.5q0 -111 -35 -243q-9 -30 -32.5 -47.5t-52.5 -17.5zM573 842q-24 2 -38 6.5t-27 14.5q14 10 27 13l17 2q25 -2 38.5 -8t23.5 -19q-15 -7 -28 -8z
M448 954q-7 14 -7 26v7q0 9 2.5 19t8.5 20.5t19 19.5q6 -14 7 -33q0 -9 -2.5 -19t-8.5 -20.5t-19 -19.5zM689 186q-5 0 -5 6q0 2 2 4l-1 1l-4 -2l-2 1q-64 49 -66 132q0 41 20 79q15 27 41 27q18 0 34 -8q25 -11 43 -32q32 -38 32 -84q0 -43 -41 -83q-21 -24 -50 -40z
M616 65h-5q-11 0 -20 7q-15 12 -15 30q0 20 15 36q24 22 55 29q3 0 4.5 -1.5t1.5 -3.5t-1 -3l1 -1l3 1q6 0 7 -6t1 -14q0 -22 -10.5 -44.5t-36.5 -29.5zM543 159l-33 2q-73 2 -130 45q-24 20 -24 47q2 35 36 42l19 2q24 0 47 -6q33 -7 65 -21q64 -27 110 -80l1 -3
q0 -5 -5 -5q-2 0 -4 2l4 3q-1 3 -4 4q2 2 3.5 2.5t2.5 0.5q5 0 5 -5q0 -2 -2 -4q-33 -26 -91 -26zM884 1087q-11 0 -11 12t11 12q12 0 12 -12t-12 -12zM764 1127q-12 0 -12 12t12 12t12 -12t-12 -12zM637 1184q-12 0 -12 12t12 12t12 -12t-12 -12zM818 931q15 11 28 24h-5
q-71 0 -138 21q-115 35 -178 126l-1 -18q0 -10 2 -22q55 -63 131.5 -95t160.5 -36zM889 1310q-6 14 -13 26q-53 7 -93 44q-13 -3 -27 -8q54 -57 133 -62z" />
    <glyph glyph-name="i.titl" unicode="__i" horiz-adv-x="1210" 
d="M739 844q-36 0 -73 15q-54 24 -84.5 71t-30.5 102q0 36 15 72q19 44 63 96t98 90.5t102 38.5q17 0 32 -6q42 -20 60 -77t18 -123q0 -93 -28 -164q23 58 27 148q-7 0 -41 -31q-19 -18 -40 -33q-10 52 -35 99q-4 4 -9 4q-9 0 -45 -26q-23 -17 -48 -30q-13 49 -18 97
q-3 11 -13 11q-14 -3 -54 -22l-37 -16q-32 -49 -40 -83q166 -140 338 -146q9 13 15 28q-24 -54 -70.5 -84.5t-101.5 -30.5zM1055 -2q47 0 47 7q0 4 -4 6q29 10 45.5 33t16.5 52q0 10 -2 20q-21 85 -21 297l1 222q0 54 -1 105q-2 36 -27 61t-62 25q-37 -2 -62 -27.5
t-25 -61.5q1 -51 1 -103l-1 -227q0 -225 25 -333q15 -51 66 -65q-149 3 -286 78.5t-205 202.5q-39 79 -63 164q73 50 73 147q0 37 -5 68q-14 101 -90 167q-20 17 -40 17q-25 0 -28 -32q-3 -24 -3 -53q0 -41 6 -82l-5 8l1 3l-1 4q-39 97 -45 201l2 2q11 9 11 24q0 14 -11 24
q-9 6 -19 6q-13 0 -24 -11q-6 -9 -6 -19q0 -14 11 -24q8 -6 17 -6h4q5 -88 34 -171q-66 73 -105 73q-10 0 -18 -5q-14 -11 -14 -28q0 -24 15 -50l57 -103q-23 30 -53 53q-63 105 -85 226q17 7 17 27q0 14 -11 24q-9 6 -19 6q-14 0 -24 -11q-7 -9 -7 -18q0 -14 12 -25
q8 -6 17 -6q19 -108 72 -205l-16 8q-65 65 -137 125q5 8 5 16q0 13 -11 24q-9 6 -19 6q-14 0 -24 -11q-7 -9 -7 -19q0 -14 12 -24q8 -6 18 -6q8 0 15 3q59 -49 114 -102q-14 3 -28 3q-23 0 -38 -13q-13 -10 -15 -30q0 -21 14 -39q49 -84 124.5 -135.5t164.5 -51.5q33 0 67 8
l15 3q23 -78 57 -150.5t89 -132.5q77 -79 193.5 -124t227.5 -45zM600 790l13 1q17 2 29 7q-10 13 -25 20t-33 7q-28 0 -49 -14q25 -18 65 -21zM476 902q30 24 30 59q0 15 -7 32q-24 -18 -29 -42q-2 -11 -2 -23q1 -13 8 -26zM690 150q-3 0 -4.5 2t-1.5 4t2 4l-1 1l-3 -2l-3 1
q-64 49 -66 131q0 41 20 80q14 27 41 27q18 0 34 -8q25 -11 43 -32q32 -38 32 -84q0 -43 -41 -83q-21 -24 -50 -40zM616 29h-5q-11 0 -20 7q-15 12 -15 30q0 20 15 36q24 22 55 29q3 0 4.5 -1.5t1.5 -3.5t-1 -3l1 -1l3 1q6 0 7 -6t1 -14q0 -22 -10.5 -44.5t-36.5 -29.5z
M543 123l-33 2q-73 2 -130 45q-24 20 -24 47q2 35 36 42l19 2q24 0 47 -6q35 -7 65 -21q65 -27 111 -80l1 -3q0 -5 -6 -5l-4 2l4 3l-3 4q0 2 2 2.5t3 0.5q5 0 5 -5q0 -2 -2 -4q-12 -11 -27.5 -16t-31 -7.5t-32.5 -2.5zM912 1034q-12 0 -12 13q0 12 12 12t12 -12
q0 -13 -12 -13zM792 1074q-12 0 -12 13q0 12 12 12q11 0 11 -12q0 -13 -11 -13zM665 1131q-12 0 -12 13q0 12 12 12q11 0 11 -12q0 -13 -11 -13zM846 878q15 11 28 24h-5q-71 0 -139 21t-122 66q-32 27 -55 60q-1 -8 -1 -17q0 -12 1 -23q55 -62 132 -94.5t161 -36.5z
M917 1257q-6 14 -13 26q-54 7 -93 44q-13 -2 -27 -7q54 -58 133 -63zM1045 873q35 4 58 29t23 60l-2 43q-1 31 -8.5 61t-31.5 48t-54 18q-10 0 -20 -2q-31 -8 -49 -32t-18 -55q0 -10 2.5 -20t2.5 -28t2 -41q3 -35 28 -58t60 -23h7z" />
    <glyph glyph-name="j.titl" unicode="__j" horiz-adv-x="1669" 
d="M901 167q-36 0 -72 14q-54 24 -84.5 71t-30.5 102q0 36 15 73q19 44 62.5 95.5t98 90t101.5 38.5q18 0 33 -6q42 -19 59.5 -76.5t17.5 -123.5q0 -93 -27 -164l-1 1q24 59 27 147q-7 0 -43 -33q-18 -16 -37 -31l-2 10q-10 47 -34 89q-4 4 -9 4q-9 0 -45 -26
q-22 -17 -47 -29q-12 42 -17 85q-1 6 -2 11.5t-4.5 8.5t-8.5 3q-10 -2 -52 -22l-38 -17q-34 -48 -41 -82q162 -138 338 -147q9 13 15 29l1 -1q-24 -54 -71 -84t-102 -30zM1163 -646q-88 0 -162 41q-103 11 -201.5 54t-165.5 112q-55 60 -89.5 132.5t-57.5 150.5l-14 -3
q-34 -8 -68 -8q-89 0 -164.5 51.5t-124.5 135.5q-13 18 -13 39q2 20 15 30q15 13 38 13q13 0 28 -3q-55 53 -114 102q-7 -3 -14 -3q-11 0 -20 6q-11 11 -11 24q0 10 6 19q11 11 24 11q10 0 19 -6q11 -11 11 -24q0 -8 -4 -16q71 -60 137 -125l16 -8q-54 97 -73 205
q-9 0 -17 7q-11 10 -11 24q0 10 6 19q11 11 24 11q10 0 19 -7q11 -10 11 -24q0 -18 -17 -27q21 -121 86 -226q31 -22 52 -53l-56 104q-15 25 -15 49q0 18 14 29q8 5 17 5q22 0 43 -17q35 -25 63 -57q-29 83 -35 171h-3q-9 0 -17 6q-11 11 -11 24q0 10 6 19q10 11 24 11
q10 0 19 -6q11 -10 11 -24q0 -10 -6 -19l-8 -7q6 -104 46 -201l-1 -7l6 -7q-6 41 -6 82q0 35 2 53q4 31 28 31q21 0 41 -17q76 -67 89 -167q6 -30 6 -67q0 -98 -74 -148q25 -85 64 -164q59 -111 173 -183.5t245 -91.5l-6 4q-10 7 -18 15q-56 48 -80 122q-14 44 -14 97
q0 163 97 163q10 0 21 -3q31 -8 49 -32t18 -54q0 -10 -2 -20q-7 -30 -7 -54q0 -57 34 -87t94 -30q137 0 203 129q75 149 75 430q0 161 -23 326t-56 302q-2 10 -2 20q0 31 18 54.5t49 31.5q11 3 21 3q30 0 53.5 -19t31.5 -49q35 -146 59.5 -322.5t24.5 -351.5
q0 -120 -15 -232q-52 -390 -308 -476q-68 -22 -133 -22zM763 112q-23 2 -37.5 6.5t-27.5 14.5q14 10 27 13l17 2l12 -1q14 -1 27 -7t24 -20q-16 -6 -29 -7zM638 224q-7 14 -7 26v6q0 9 2.5 19t9 21t18.5 19q7 -12 7 -26v-6q0 -9 -2.5 -19t-8.5 -20.5t-19 -19.5zM689 -456
q-6 0 -6 6l2 5q-1 -1 -3 -1l-4 1q-61 46 -66 123q0 47 21 87q15 27 40 27q18 0 34 -8q26 -11 43 -32q32 -38 32 -83t-40 -84q-22 -24 -50 -40zM615 -577h-5q-11 0 -19.5 7t-12 15.5t-3.5 16.5q0 19 16 34q23 22 55 29q3 0 4.5 -1.5t1.5 -3.5l-1 -3l1 -1l4 1q3 0 4.5 -6
t1.5 -13q0 -23 -9 -43q-11 -26 -38 -32zM543 -483l-33 2q-73 1 -130 46q-25 20 -25 48v5q7 30 36 35l20 2q24 0 47 -6q101 -19 175 -100l1 -3q0 -6 -6 -6l-4 2q1 1 3 2t3 3l-1 -2l-4 4q3 3 5 3q6 0 6 -5q0 -2 -2 -4q-34 -26 -91 -26zM1074 357q-11 0 -11 12t11 12
q12 0 12 -12t-12 -12zM954 397q-12 0 -12 12t12 12t12 -12t-12 -12zM827 454q-12 0 -12 12t12 12t12 -12t-12 -12zM1008 201q15 11 28 24h-10q-69 0 -135 21q-113 36 -176 126l-1 -18q0 -12 2 -23q55 -62 131.5 -94.5t160.5 -35.5zM1079 580q-5 14 -13 25q-53 7 -93 44
q-13 -2 -27 -7q54 -57 133 -62zM1412 918q-35 0 -60 22.5t-28 58.5l-2 16q-1 20 -2.5 32t-4.5 24.5t-3 22.5q0 30 18.5 53.5t49.5 31.5q11 3 21 3q30 0 53.5 -18.5t31.5 -48.5q6 -25 8 -40t3 -28.5t3 -34.5v-6q0 -34 -23 -59.5t-58 -28.5h-7z" />
    <glyph glyph-name="k.titl" unicode="__k" horiz-adv-x="1738" 
d="M710 881q-36 0 -72 15q-54 24 -84.5 71t-30.5 102q0 36 15 72q19 44 63 96t98 90.5t102 38.5q17 0 32 -6q42 -20 59.5 -77t17.5 -123q0 -94 -27 -164q24 58 26 148q-1 0 -5 -3q-21 -15 -39 -31.5t-36 -29.5l-2 8q-10 48 -34 91q-4 4 -9 4q-8 0 -43 -25q-23 -18 -49 -31
q-10 37 -19 97q-2 11 -12 11q-11 -2 -48 -19q-21 -10 -43 -19q-30 -42 -38 -74l-3 -9q167 -140 339 -146l15 28q-24 -54 -71 -84.5t-102 -30.5zM1600 7q-17 0 -35 7q-57 23 -111 60.5t-109 103.5q-72 87 -148 259q-18 -33 -29 -69q13 -132 28 -253l1 -11q0 -33 -23 -59
t-65 -29q-17 0 -32 6l-22 -1q-111 0 -228 45t-193 124q-55 60 -89.5 132.5t-57.5 150.5l-14 -3q-34 -8 -68 -8q-89 0 -164.5 51.5t-124.5 135.5q-14 19 -14 40q2 19 15 29q15 13 38 13q14 0 28 -3q-55 53 -114 102q-7 -3 -15 -3q-10 0 -18 6q-11 11 -11 24q0 10 6 19
q10 11 24 11q10 0 19 -6q11 -11 11 -24q0 -8 -4 -16q71 -60 137 -125l15 -8q-52 97 -72 205q-9 0 -17 6q-11 11 -11 25q0 10 6 18q10 12 24 12q10 0 19 -7q11 -10 11 -24q0 -18 -17 -27q22 -121 85 -226q32 -23 53 -53l-56 103q-16 26 -16 50q0 17 14 28q9 6 18 6
q19 0 42 -17q35 -25 63 -57q-29 83 -34 171h-3q-9 0 -18 6q-11 11 -11 24q0 10 8.5 20t22.5 10q10 0 19 -6q11 -10 11 -24q0 -10 -7 -19q-3 -4 -7 -7q6 -104 45 -201l1 -4l-1 -3q3 -3 5 -8q-5 41 -5 81q0 34 2 54q3 32 28 32q21 0 41 -17q78 -68 90 -172q5 -29 5 -63
q0 -38 -15 -77.5t-59 -69.5q25 -85 63 -164q69 -128 209 -204.5t284 -76.5h5q-30 22 -36 61q-16 130 -30 271l-1 9q-34 365 -34 779q0 126 3 263q2 37 27.5 61.5t61.5 24.5q38 -2 62.5 -27.5t24.5 -61.5q-3 -135 -3 -259q0 -220 8 -359l5 -131l46 44q134 113 250 113
q56 0 84.5 -27.5t28.5 -64.5q0 -12 -3 -24q-11 -37 -44 -53l-14 -7q-13 -4 -25 -4t-24 3l-9 1q-40 0 -111 -55q85 -215 157 -300q37 -45 74.5 -71t77.5 -42q26 -11 40 -33.5t14 -48.5q0 -17 -7 -34q-12 -25 -33.5 -39t-47.5 -14zM577 827q-20 1 -40 5q-14 4 -30 15
q19 15 48 15q37 -1 59 -27q-16 -7 -29 -8h-8zM447 938q-6 14 -7 33q0 9 2.5 19t9 20.5t18.5 19.5q7 -14 7 -26v-6q0 -9 -2.5 -19.5t-8.5 -21t-19 -19.5zM689 173q-6 0 -6 6q0 2 2 4l-1 1q-1 -1 -3 -1l-3 1q-64 48 -66 130q0 39 21 80q14 27 40 27q18 0 34 -8q25 -11 43 -32
q32 -38 32 -83t-41 -84q-21 -24 -49 -40zM615 52h-5q-11 0 -20 7q-15 12 -15 31q0 20 15 35q24 22 55 29q4 0 5.5 -1.5t1.5 -3.5l-2 -3l2 -1l3 1q5 0 6 -6t1 -13q0 -23 -9 -43q-12 -26 -38 -32zM542 146l-33 2q-73 1 -129 46q-25 20 -25 48v5q6 30 36 35l19 2q24 0 47 -6
q104 -21 176 -100l1 -3q0 -6 -6 -6l-4 2l4 3l-3 4q1 1 1.5 2t3.5 1q5 0 5 -5q0 -2 -2 -4q-12 -11 -27.5 -16t-31 -7.5t-32.5 -2.5zM884 1071q-12 0 -12 13q0 12 12 12q11 0 11 -12q0 -13 -11 -13zM763 1111q-11 0 -11 13q0 12 11 12q12 0 12 -12q0 -13 -12 -13zM636 1168
q-11 0 -11 13q0 12 11 12q12 0 12 -12q0 -13 -12 -13zM817 915q16 11 28 24h-5q-70 0 -138 21t-123 66q-31 26 -55 60q0 -29 1 -40q55 -62 131.5 -94.5t160.5 -36.5zM888 1294q-5 14 -12 26q-55 7 -93 44q-14 -2 -27 -7q53 -58 132 -63z" />
    <glyph glyph-name="l.titl" unicode="__l" horiz-adv-x="1249" 
d="M736 853q-36 0 -73 14q-54 24 -84 71t-30 102q0 36 14 73q19 44 63 95.5t98.5 90t101.5 38.5q18 0 32 -6q42 -19 60 -76.5t18 -123.5q0 -93 -27 -164h-1q23 59 27 148q-7 0 -41 -31q-19 -18 -40 -33q-10 52 -35 99q-4 4 -9 4q-9 0 -45 -26q-22 -17 -47 -29q-14 47 -19 97
q-2 10 -12 10q-15 -3 -55 -22l-37 -16q-33 -50 -40 -82q162 -138 338 -147q9 13 15 28h1q-24 -54 -71 -84t-102 -30zM1055 -2q-111 0 -227.5 45t-193.5 124q-55 60 -89 132.5t-57 150.5l-15 -3q-34 -8 -67 -8q-89 0 -164.5 51.5t-124.5 135.5q-14 18 -14 39q2 20 15 30
q15 13 38 13q14 0 28 -3q-55 53 -114 102q-7 -3 -15 -3q-10 0 -19 6q-11 10 -11 24q0 10 7 19q10 11 24 11q10 0 19 -6q11 -11 11 -24q0 -8 -5 -16q72 -60 137 -125l16 -8q-53 97 -72 205q-9 0 -17 6q-12 11 -12 25q0 9 7 18q10 11 24 11q10 0 19 -6q11 -10 11 -23
q0 -11 -7 -20q-2 -4 -10 -8q22 -121 85 -226q30 -23 53 -53l-57 103q-15 25 -15 49q0 18 14 29q8 5 18 5q39 0 105 -73q-29 83 -34 171h-4q-9 0 -17 6q-11 10 -11 24q0 10 6 19q11 11 24 11q10 0 19 -6q11 -10 11 -24q0 -15 -11 -24l-2 -2q6 -104 45 -201l1 -4l-1 -3l5 -8
q-6 39 -6 79q0 30 3 56q2 32 27 32q21 0 41 -17q76 -66 90 -167q5 -31 5 -68q0 -97 -73 -147q24 -85 63 -164q69 -128 209.5 -204.5t285.5 -76.5h15q-39 21 -47 68q-35 270 -53 591q-12 215 -12 467q0 126 3 263q2 37 27.5 61.5t61.5 24.5q38 -2 62.5 -26.5t24.5 -59.5
q-3 -129 -3 -248q0 -565 63 -1051l1 -12q0 -33 -23 -59t-64 -29l-14 2q0 -1 -1 -1q-21 -2 -42 -2zM598 798q-24 2 -38 6.5t-27 14.5q13 10 27 13l17 2q42 -3 62 -28q-15 -6 -28 -7zM473 910q-7 14 -8 26q0 45 31 65q6 -13 7 -32q0 -9 -2.5 -19t-9 -20.5t-18.5 -19.5z
M690 150q-3 0 -4.5 2t-1.5 4t2 4l-1 1l-4 -2l-2 1q-64 49 -66 132q0 41 20 79q15 27 41 27q18 0 34 -8q25 -11 43 -32q32 -38 32 -84q0 -43 -41 -83q-21 -24 -50 -40zM616 29h-5q-11 0 -20 7q-15 12 -15 30q0 20 15 36q24 22 55 29q3 0 4.5 -1.5t1.5 -3.5t-1 -3l1 -1l3 1
q6 0 7 -6t1 -14q0 -22 -10.5 -44.5t-36.5 -29.5zM543 123l-33 2q-73 2 -130 45q-24 20 -24 47q2 35 36 42l19 2q24 0 47 -6q33 -7 65 -21q64 -27 110 -80l2 -3q0 -5 -6 -5l-4 2l4 3l-3 4q0 2 2 2.5t3 0.5q5 0 5 -5q0 -2 -2 -4q-12 -11 -27.5 -16t-31 -7.5t-32.5 -2.5z
M909 1043q-12 0 -12 12t12 12t12 -12t-12 -12zM789 1083q-12 0 -12 12t12 12t12 -12t-12 -12zM662 1140q-12 0 -12 12t12 12t12 -12q0 -4 -3 -8t-9 -4zM843 887q15 11 28 24h-10q-69 0 -135.5 21t-120.5 65q-32 27 -55 61l-1 -18l1 -23q55 -62 132 -94.5t161 -35.5z
M914 1265q-6 14 -13 26q-53 7 -93 44q-13 -2 -27 -7q54 -57 133 -63z" />
    <glyph glyph-name="m.titl" unicode="__m" horiz-adv-x="2076" 
d="M901 798q-36 0 -73 14q-54 24 -84 71t-30 102q0 36 14 72q19 45 63 96.5t98.5 90t101.5 38.5q18 0 33 -6q42 -19 59.5 -76.5t17.5 -123.5q0 -93 -27 -164h-1q24 58 27 148q-7 0 -41 -31q-19 -18 -40 -33q-10 52 -35 99q-4 4 -9 4q-9 0 -45 -26q-22 -17 -47 -29
q-14 47 -19 97q-3 10 -12 10q-16 -3 -58 -23q-16 -8 -33 -15q-34 -48 -41 -82q83 -71 183 -113q75 -30 155 -34q9 13 15 28h1q-24 -54 -71 -84t-102 -30zM1933 8q34 0 59.5 23.5t28.5 58.5q5 86 5 170q0 156 -18 290t-54 224q-39 98 -105 140q-40 25 -84 25
q-112 0 -217 -160q-40 82 -101 121q-42 26 -88 26q-107 0 -205 -137q-27 56 -83 56q-39 -1 -63.5 -27t-24.5 -61q2 -48 21 -216q12 -98 21 -202t9 -228q0 -49 45 -76l-24 -1q-145 0 -285.5 76.5t-209.5 204.5q-37 79 -63 164q74 50 74 147q0 37 -5 68q-14 100 -90 167
q-20 17 -41 17q-25 0 -28 -32q-2 -20 -2 -54q0 -40 5 -81q-2 5 -5 8l1 7q-40 97 -46 201q4 3 7 7q7 9 7 20q0 13 -11 23q-9 6 -19 6q-14 0 -24 -11q-7 -9 -7 -19q0 -13 11 -24q8 -6 17 -6h4q6 -88 34 -171q-27 32 -62 57q-21 17 -42 17q-10 0 -19 -6q-13 -11 -13 -28
q0 -24 15 -50l56 -103q-21 30 -52 53q-65 105 -86 226q17 7 17 27q0 14 -11 24q-9 7 -18 7q-14 0 -25 -12q-6 -9 -6 -19q0 -13 11 -24q8 -6 17 -6q19 -108 73 -205l-16 8q-66 65 -137 125q4 8 4 16q0 13 -11 24q-9 6 -19 6q-14 0 -24 -11q-6 -9 -6 -19q0 -14 11 -24
q9 -6 19 -6q7 0 15 3q59 -49 114 -102q-14 3 -29 3l-15 -1q-33 -8 -37 -43q0 -20 13 -38q49 -84 124.5 -135.5t164.5 -51.5q34 0 68 8l14 3q23 -78 57.5 -150.5t89.5 -132.5q76 -79 193 -124t228 -45q21 0 42 2l2 1q12 -3 24 -3q36 0 61.5 26t25.5 63q0 173 -22 368
q98 227 162 264l6 5q19 -13 40 -60q31 -72 47 -175.5t16 -215.5q0 -80 -9 -158l-1 -11q0 -32 23 -58t66 -29q33 0 58 22t29 56q10 85 10 174q0 123 -18 241q87 189 143 223q0 3 -3 5v1q15 -10 33 -56q30 -74 45 -189t15 -253q0 -80 -5 -165v-5q0 -35 24.5 -61t63.5 -27z
M763 743l13 1q13 1 28 7q-20 25 -62 28l-17 -2q-13 -3 -27 -13q13 -10 27 -14.5t38 -6.5zM638 855q13 9 19 19.5t8.5 20.5t2.5 19q-1 19 -7 32q-13 -9 -19 -19.5t-9 -22t-3 -23.5q1 -12 8 -26zM689 175q-6 0 -6 6l2 5l-4 -2l-3 1q-64 50 -66 131q0 39 21 80q14 27 40 27
q18 0 34 -8q26 -11 43 -32q32 -38 32 -84q0 -44 -40 -83q-23 -24 -50 -40zM615 54h-5q-11 0 -19.5 7t-12 15.5t-3.5 16.5q0 19 16 34q23 22 55 29q3 0 4.5 -1.5t1.5 -3.5l-1 -3l1 -1l3 1q5 0 6 -6t1 -14q0 -22 -9 -42q-11 -26 -38 -32zM542 148l-33 2q-72 2 -129 45
q-25 21 -25 49v5q6 30 36 35l19 2q24 0 48 -6q33 -7 65 -21q63 -27 110 -79l1 -3q0 -6 -6 -6l-4 2q1 1 3 2t3 3l-1 -2l-4 4q1 1 1.5 2t3.5 1q5 0 5 -5q0 -2 -2 -4q-31 -26 -91 -26zM1074 988q-11 0 -11 12t11 12q12 0 12 -12t-12 -12zM954 1028q-12 0 -12 12t12 12t12 -12
t-12 -12zM827 1085q-12 0 -12 12t12 12t12 -12t-12 -12zM1008 832q15 11 28 23h-5q-71 0 -138 21q-115 36 -178 127l-1 -18q0 -12 2 -23q55 -62 131.5 -94.5t160.5 -35.5zM1079 1210q-6 14 -13 26q-53 7 -93 44q-13 -2 -27 -7q54 -57 133 -63zM1757 763l-1 1q1 0 1 -1z" />
    <glyph glyph-name="n.titl" unicode="__n" horiz-adv-x="1687" 
d="M810 827q-36 0 -73 14q-54 24 -84 71t-30 102q0 36 14 72q19 45 63 96.5t98 90t102 38.5q17 0 32 -6q42 -19 60 -76.5t18 -123.5q0 -93 -27 -164h-1q23 58 27 148q-7 0 -41 -31q-19 -18 -40 -33q-10 52 -35 99q-4 4 -9 4q-9 0 -45 -26q-22 -17 -47 -29q-14 47 -19 97
q-2 10 -12 10q-15 -3 -55 -22l-37 -16q-33 -50 -40 -82q83 -71 183 -113q75 -30 155 -34q9 13 15 28h1q-24 -54 -71 -84t-102 -30zM1099 19q36 0 61.5 26t25.5 62q0 176 -23 393q104 243 175 284l11 5q23 -15 45 -67q33 -76 50 -186.5t17 -230.5q0 -85 -9 -168l-1 -11
q0 -32 23 -58t66 -29q33 0 57.5 22t29.5 56q10 90 10 183q0 139 -21 269q-47 290 -176 371q-43 27 -91 27q-113 0 -219 -153q-8 30 -32 48.5t-55 18.5q-39 -1 -63 -27.5t-24 -60.5q2 -49 21 -219q19 -173 23 -225q10 -111 10 -243q0 -45 41 -73q-149 3 -285.5 78.5
t-205.5 201.5q-37 80 -63 165q74 50 74 147q0 37 -5 68q-14 100 -90 167q-21 17 -41 17q-13 0 -21 -10q-9 -16 -9 -77q0 -40 5 -80q-1 3 -2.5 5t-2.5 3l1 7q-40 97 -46 201q4 3 7 7q7 9 7 19q0 13 -11 24q-9 6 -19 6q-14 0 -24 -11q-7 -9 -7 -19q0 -14 11 -24q11 -7 21 -7
q6 -88 34 -171q-27 33 -62 57q-21 17 -43 17q-9 0 -18 -5q-13 -11 -13 -29q0 -24 15 -49l56 -104q-21 32 -52 54q-65 104 -86 225q6 3 11.5 10.5t5.5 17.5q0 13 -11 24q-9 6 -19 6q-13 0 -24 -11q-6 -9 -6 -19q0 -14 11 -24q8 -6 17 -6q19 -109 73 -206l-16 8
q-66 66 -137 125q4 8 4 16q0 14 -11 25q-9 6 -19 6q-14 0 -24 -11q-6 -9 -6 -19q0 -14 11 -24q9 -7 19 -7q8 0 15 4q59 -49 114 -103q-14 4 -27 4q-8 0 -17 -2q-33 -8 -37 -43q0 -19 13 -38q49 -83 124.5 -134.5t164.5 -51.5q34 0 68 8l14 2q23 -77 57.5 -149.5t89.5 -133.5
q76 -78 192.5 -122.5t227.5 -44.5h19q13 -4 26 -4zM672 772l13 1q13 1 28 7q-20 25 -62 28l-17 -2q-18 -6 -27 -13q13 -10 27 -14.5t38 -6.5zM547 884q30 23 30 59q0 18 -7 32q-24 -18 -28 -41q-3 -12 -3 -24q1 -12 8 -26zM689 174q-6 0 -6 6l2 4l-4 -1q-2 0 -3 1
q-64 50 -66 131q0 40 21 80q14 27 39 27q18 0 35 -8q26 -12 43 -33q32 -37 32 -83q0 -13 -4 -27q-20 -58 -86 -96zM615 53h-6q-22 0 -31 24q-3 7 -3 14q0 19 16 35q23 21 55 29q3 0 4.5 -2t1.5 -4l-1 -3l1 -1l3 2q2 0 4 -1.5t3 -18.5q0 -22 -9 -43q-11 -24 -38 -31zM539 147
q-105 0 -159 47q-25 20 -25 48v5q7 37 54 37q24 0 49 -6q102 -19 175 -100l1 -3q0 -5 -6 -5l-4 2q5 2 6 4l-1 -1q-2 1 -3 3l-1 1q2 2 5 3q5 0 5 -6l-2 -4q-33 -25 -94 -25zM983 1017q-12 0 -12 12t12 12t12 -12t-12 -12zM863 1057q-12 0 -12 12t12 12t12 -12t-12 -12z
M736 1114q-12 0 -12 12t12 12t12 -12q0 -4 -3 -8t-9 -4zM917 861q15 11 28 23h-5q-71 0 -138.5 21t-122.5 66q-32 27 -55 61l-1 -18l1 -23q55 -62 132 -94.5t161 -35.5zM988 1239q-6 14 -13 26q-54 7 -93 44q-13 -2 -27 -7q54 -57 133 -63z" />
    <glyph glyph-name="o.titl" unicode="__o" horiz-adv-x="1796" 
d="M901 925q-36 0 -73 14q-54 24 -84 71t-30 102q0 36 14 73q19 44 63 96t98 90.5t102 38.5q17 0 32 -7q42 -19 60 -76.5t18 -123.5q0 -93 -28 -163q23 59 27 147q-7 0 -41 -31q-19 -18 -40 -33q-10 53 -35 99q-4 5 -10 5q-7 0 -41 -24q-24 -19 -51 -32q-13 48 -18 97
q-3 11 -13 11q-10 -2 -50 -21l-41 -18q-33 -48 -40 -82q164 -138 338 -147q9 14 15 29v-1q-24 -54 -70.5 -84t-101.5 -30zM1370 13l22 1q149 26 234.5 134.5t109.5 252.5q10 56 10 113q0 69 -15 135q-29 130 -115 208q-79 68 -180 68q-80 0 -176 -46q-70 -35 -133 -100.5
t-103 -164.5q-44 -102 -44 -243q0 -67 12 -143q10 -47 52 -66q-147 4 -281.5 79.5t-202.5 200.5q-38 79 -63 164q44 30 58.5 70t14.5 79q0 34 -4 64q-12 102 -91 169q-19 17 -40 17q-12 0 -21 -12t-9 -74q0 -40 5 -80l-5 8l1 3l-1 3q-39 97 -45 202q4 2 7 6q7 9 7 19
q0 14 -12 24q-8 7 -18 7q-14 0 -25 -12q-6 -9 -6 -19q0 -13 11 -24q11 -6 21 -6q5 -88 34 -171q-28 32 -63 57q-24 17 -43 17q-9 0 -17 -5q-14 -11 -14 -29q0 -24 15 -49l57 -104q-21 32 -53 53q-63 105 -85 226q17 9 17 27q0 14 -10 22.5t-21 8.5q-13 0 -23 -11
q-6 -9 -6 -19q0 -14 11 -24q8 -7 17 -7q19 -108 72 -205l-15 8q-67 65 -137 125q4 8 4 16q0 13 -11 24q-9 6 -19 6q-14 0 -24 -11q-6 -9 -6 -19q0 -13 11 -24q9 -6 19 -6q7 0 14 3q59 -49 114 -102q-14 3 -28 3q-23 0 -38 -13q-13 -10 -15 -30q0 -21 14 -39
q49 -84 124.5 -135.5t164.5 -51.5q34 0 68 8l14 3q23 -78 57 -150.5t90 -132.5q76 -79 192.5 -123.5t227.5 -44.5q22 0 43 2q28 4 49 32.5t21 59.5l-1 11q-9 61 -9 114q0 106 31 179q26 65 66.5 107.5t85.5 64.5q55 27 94 27q41 0 66 -23q42 -39 59 -115q11 -47 11 -97
q0 -139 -70 -238q-47 -68 -126 -85q-3 3 -6 9q-12 22 -17 57q-3 20 -3 42q0 60 26 124q7 18 7 35q0 26 -14 48t-39 33q-18 7 -35 7q-26 0 -47.5 -14t-33.5 -39q-41 -102 -41 -197q0 -34 5 -65q25 -157 130 -204q31 -13 64 -13zM762 870l13 1q14 1 29 8q-10 13 -23.5 19
t-27.5 7l-12 1l-16 -2q-14 -3 -28 -13q25 -18 65 -21zM638 982q30 24 30 59q0 16 -7 33q-24 -19 -29 -42q-2 -11 -2 -24q1 -12 8 -26zM689 302q-6 0 -6 6q0 2 2 4l-1 1q-1 -1 -3 -1l-3 1q-64 48 -66 130q0 39 21 80q14 27 40 27q18 0 34 -8q25 -11 43 -32q32 -38 32 -83
q0 -14 -4 -27q-12 -33 -35 -57t-51 -40zM615 181h-4q-23 0 -34 25q-2 6 -2 13q0 20 15 36q24 21 55 29q3 0 5 -2t2 -4l-2 -3l2 -1q1 1 4 1q1 0 3 -1t3 -18q0 -22 -9 -43q-12 -26 -38 -32zM542 275l-33 2q-83 6 -129 46q-25 19 -25 47q2 35 36 41l19 2q24 0 47 -6
q102 -18 176 -100l1 -3q0 -6 -6 -6l-4 2l6 5l-2 -1l-3 4l5 2q5 0 5 -5q0 -2 -2 -4q-33 -26 -91 -26zM1074 1115q-12 0 -12 12t12 12t12 -12t-12 -12zM954 1155q-12 0 -12 12t12 12q11 0 11 -12t-11 -12zM827 1212q-12 0 -12 12t12 12q11 0 11 -12t-11 -12zM1008 959
q15 11 28 24h-10q-69 0 -135.5 21t-120.5 65q-32 27 -55 61l-1 -18l1 -23q55 -62 132 -94t161 -36zM1079 1338q-6 14 -13 25q-54 7 -93 45q-13 -3 -27 -8q54 -57 133 -62z" />
    <glyph glyph-name="p.titl" unicode="__p" horiz-adv-x="1689" 
d="M902 807q-37 0 -73 15q-54 24 -84.5 71t-30.5 102q0 36 15 72q19 44 63 96t98 90.5t102 38.5q17 0 32 -6q42 -20 59.5 -77t17.5 -123q0 -93 -27 -164q23 58 27 148q-7 0 -43 -33l-38 -31l-2 9q-10 47 -33 90q-4 4 -9 4q-8 0 -40 -23q-25 -19 -53 -33q-10 37 -19 97
q-2 11 -12 11q-14 -3 -51 -21l-40 -17q-20 -30 -32 -56q-5 -13 -8 -27q166 -140 338 -146q9 13 15 28q-24 -54 -70.5 -84.5t-101.5 -30.5zM1037 -740q38 2 62.5 27.5t24.5 62.5q-3 111 -3 220q0 229 11 445l36 -10q37 -7 72 -7q91 0 165 42q97 56 155 142q55 81 69 156
q10 47 10 91q0 91 -37 164q-44 90 -128 138q-69 40 -152 40q-65 0 -127 -23l1 11q0 33 -22 57q-24 28 -66 31q-33 0 -58 -22q-53 -46 -92 -772q-126 24 -233 95t-164 177q-39 79 -63 164q73 50 73 147q0 37 -5 68q-14 101 -90 167q-20 17 -40 17q-13 0 -21 -10
q-10 -16 -10 -75q0 -41 6 -82l-5 8l1 3l-1 4q-39 97 -45 201l2 2q11 9 11 24q0 13 -11 24q-9 6 -19 6q-13 0 -24 -11q-6 -9 -6 -19q0 -14 11 -24q9 -7 21 -7q5 -87 34 -171q-28 33 -63 57q-20 17 -42 17q-10 0 -18 -5q-14 -11 -14 -29q0 -24 15 -49l57 -103q-23 30 -53 53
q-63 105 -85 225q17 8 17 28q0 14 -11 24q-9 6 -19 6q-14 0 -24 -11q-7 -9 -7 -19q0 -14 12 -24q8 -6 17 -6q19 -109 72 -205l-16 7q-65 66 -137 125q5 8 5 17q0 14 -11 24q-9 6 -19 6q-14 0 -24 -11q-7 -9 -7 -19q0 -14 12 -24q9 -7 19 -7q7 0 14 4q59 -49 114 -103
q-13 4 -27 4q-24 0 -39 -13q-13 -11 -15 -30q0 -21 14 -40q49 -83 124.5 -134.5t164.5 -51.5q33 0 67 8l15 3q23 -78 57 -150.5t89 -133.5q59 -61 145 -102t178 -57q-12 -225 -12 -469q0 -112 3 -227q2 -36 27 -61t62 -25zM776 753l6 1q11 2 23 7q-10 13 -24 19q-17 8 -34 8
q-28 0 -49 -14q14 -10 27 -14t25.5 -5.5t25.5 -1.5zM638 865q24 18 29 41q2 12 2 24q-1 12 -8 26q-30 -23 -30 -59q0 -16 7 -32zM690 185q-3 0 -4.5 2t-1.5 4t2 4l-4 -1l-3 1q-64 49 -66 131q0 41 20 80q15 27 40 27q18 0 35 -8q25 -11 43 -33q32 -37 32 -83q0 -13 -4 -27
q-23 -59 -87 -96zM616 64h-5q-11 0 -20 7q-15 12 -15 30q0 20 15 36q24 21 55 29q3 0 4.5 -1.5t1.5 -3.5l-1 -4l1 -1l4 2q2 0 4 -1.5t3 -18.5q0 -22 -10.5 -44.5t-36.5 -29.5zM540 158l-30 1q-84 6 -130 46q-24 19 -24 47q2 35 36 42l19 2q24 0 47 -6q106 -23 176 -101l1 -3
q0 -5 -6 -5l-4 2l4 3l-3 4q0 1 0.5 1t2 1t2.5 1q5 0 5 -6l-2 -4q-12 -10 -27.5 -15t-32 -7.5t-34.5 -2.5zM1075 997q-12 0 -12 13q0 12 12 12t12 -12q0 -13 -12 -13zM955 1037q-12 0 -12 13q0 12 12 12q11 0 11 -12q0 -13 -11 -13zM828 1094q-12 0 -12 13q0 12 12 12
q11 0 11 -12q0 -13 -11 -13zM1009 841q15 11 27 24h-5q-70 0 -137.5 21t-122.5 66q-32 27 -55 60q-1 -8 -1 -17q0 -12 1 -23q55 -62 132 -94.5t161 -36.5zM1080 1220q-6 14 -13 26q-54 7 -93 44q-13 -2 -27 -7q54 -58 133 -63zM1240 174q-46 0 -97 26q12 179 28 334
q71 55 132 60l16 1q38 0 68 -17q36 -21 55.5 -60.5t19.5 -90.5q0 -26 -5 -54q-8 -41 -42 -91q-37 -53 -93 -86q-37 -22 -82 -22z" />
    <glyph glyph-name="q.titl" unicode="__q" horiz-adv-x="1511" 
d="M902 827q-37 0 -73 15q-54 24 -84.5 70.5t-30.5 101.5q0 36 15 73q19 44 63 96t98 90.5t102 38.5q17 0 32 -7q42 -19 60 -76t18 -124q0 -93 -28 -163q23 59 27 147q-1 0 -4.5 -0.5t-38.5 -32.5l-38 -31l-2 7q-10 49 -33 92q-4 5 -10 5q-7 0 -41 -24q-24 -19 -51 -32
q-12 48 -19 97q-2 11 -12 11q-10 -2 -54 -22q-18 -9 -37 -17q-32 -47 -40 -82q164 -138 338 -147q9 14 15 29q-24 -54 -70.5 -84.5t-101.5 -30.5zM1369 -696q37 0 62 25t27 61q3 115 3 227q0 249 -13 480q-22 411 -62 716q-5 35 -30 56.5t-58 21.5q-43 -3 -66 -31
q-22 -25 -22 -58l1 -10q-63 23 -127 23q-83 0 -152 -40q-83 -48 -128 -138q-37 -73 -37 -164q0 -44 10 -91q15 -75 70 -156q58 -86 154 -142q22 -12 46 -20q-147 3 -282.5 78.5t-203.5 201.5q-39 79 -63 164q73 51 73 148q0 36 -5 67q-14 103 -90 167q-20 17 -40 17
q-13 0 -21.5 -12t-8.5 -74q0 -40 5 -80l-5 8l1 3l-1 3q-39 97 -45 202l4 3q9 9 9 22q0 14 -11 24q-9 7 -18 7q-14 0 -25 -12q-6 -8 -6 -18q0 -14 11 -25q9 -6 21 -6q5 -88 34 -171q-28 32 -63 57q-20 17 -42 17q-10 0 -18 -5q-14 -11 -14 -29q0 -24 15 -49l57 -104
q-22 32 -53 54q-63 104 -85 225q17 9 17 27q0 14 -10 22.5t-21 8.5q-13 0 -23 -11q-6 -9 -6 -19q0 -14 11 -24q8 -6 17 -7q19 -108 72 -205l-15 8q-67 65 -137 125q4 8 4 16q0 14 -11 24q-9 7 -19 7q-14 0 -24 -12q-7 -9 -7 -18q0 -14 12 -25q9 -6 19 -6q7 0 14 3
q59 -49 114 -102q-14 3 -28 3q-23 0 -38 -13q-13 -10 -15 -30q0 -21 14 -39q49 -83 124.5 -135t164.5 -52q33 0 67 8l15 3q23 -78 57 -150.5t89 -132.5q77 -79 194 -124t229 -45l22 1q41 -11 86 -11q55 0 109 17q11 -216 11 -446q0 -108 -3 -220q0 -36 25 -61.5t62 -27.5z
M763 772l13 1q14 1 29 8q-10 13 -24 19t-39 8l-16 -2q-14 -3 -28 -13q25 -18 65 -21zM638 884q31 23 31 59q0 17 -8 33q-30 -24 -30 -60q0 -15 7 -32zM690 205q-6 0 -6 6q0 2 2 3l-1 1l-3 -1q-2 0 -3 1q-64 48 -66 130q0 41 21 80q14 28 39 28q18 0 35 -9q25 -11 43 -32
q32 -38 32 -83q0 -43 -41 -84q-21 -24 -49 -39zM616 83h-4q-23 0 -34 25q-2 6 -2 13q0 20 15 36q24 21 55 29q3 0 5 -2t2 -4l-2 -3l1 -1l4 1q2 0 4 -1t3 -18q0 -22 -10 -43q-11 -26 -37 -32zM540 178l-30 1q-84 6 -130 46q-24 19 -24 46q2 36 36 42l19 2q24 0 47 -6
q102 -18 176 -100l1 -3q0 -5 -6 -5l-4 1l6 5l-2 -1l-3 4l5 2q5 0 5 -5q0 -2 -2 -4q-25 -20 -58 -23q-18 -2 -36 -2zM1075 1017q-12 0 -12 12t12 12t12 -12t-12 -12zM955 1057q-12 0 -12 12t12 12q11 0 11 -12t-11 -12zM828 1114q-12 0 -12 12t12 12q11 0 11 -12t-11 -12z
M1009 861q15 11 28 24h-10q-69 0 -135.5 21t-120.5 65q-32 27 -55 61l-1 -18l1 -22q55 -63 132 -95t161 -36zM1080 1240l-13 26q-54 6 -93 44q-13 -3 -27 -8q54 -57 133 -62zM1166 218q-45 0 -82 22q-56 32 -92 86q-34 50 -43 91q-5 28 -5 54q0 50 19.5 90t55.5 61
q31 17 68 17l16 -1q62 -5 132 -60q16 -155 28 -334q-49 -26 -97 -26z" />
    <glyph glyph-name="r.titl" unicode="__r" horiz-adv-x="1644" 
d="M901 811q-36 0 -73 15q-54 24 -84.5 70.5t-30.5 101.5q0 38 15 73q19 44 63 96t98 90.5t102 38.5q17 0 32 -6q42 -20 60 -77t18 -124q0 -93 -28 -163q23 58 27 148l-2 -1q-6 -1 -38 -30q-19 -18 -41 -33q-10 52 -35 98q-4 5 -10 5q-7 0 -41 -24q-24 -19 -51 -32
q-13 48 -18 97q-3 11 -13 11q-10 -2 -50 -21l-41 -18q-32 -47 -40 -82q164 -138 338 -147q9 14 15 29q-24 -54 -70.5 -84.5t-101.5 -30.5zM1144 -1q36 0 62 25.5t26 62.5q-4 222 -24 392q81 191 146 259q27 28 40 31l3 -2q15 -12 31 -42q30 -47 78 -47q21 0 41 10
q47 31 47 78q0 21 -10 41q-33 63 -79 99q-50 40 -109 40q-88 0 -172 -89q-24 -26 -49 -62q-8 29 -32 47.5t-55 18.5q-39 -1 -63 -27.5t-24 -60.5q2 -53 22 -229q28 -203 33 -458q0 -21 9 -38h-12q-144 0 -284 76.5t-209 203.5q-38 80 -63 164q44 31 58.5 70.5t14.5 78.5
q0 34 -4 63q-12 103 -91 170q-20 17 -40 17q-13 0 -21 -9q-9 -16 -9 -77q0 -40 5 -80l-5 8l1 3l-1 3q-39 98 -45 202q3 1 4.5 3t2.5 3q7 9 7 19q0 14 -12 24q-9 7 -19 7q-13 0 -24 -11q-6 -9 -6 -19q0 -14 11 -24q9 -7 21 -7q5 -88 34 -171q-28 32 -63 57q-20 17 -42 17
q-10 0 -18 -5q-14 -11 -14 -29q0 -24 15 -49l57 -104q-21 32 -53 54q-63 104 -85 225q17 8 17 27q0 14 -11 25q-9 6 -19 6q-14 0 -24 -11q-6 -9 -6 -19q0 -14 11 -24q8 -6 17 -7q19 -108 72 -205q-7 5 -15 8q-67 65 -137 125q4 8 4 16q0 14 -11 24q-9 7 -19 7q-14 0 -24 -11
q-6 -9 -6 -19q0 -14 11 -24q9 -7 19 -7q7 0 14 4q59 -50 114 -103q-13 4 -26 4l-17 -2q-34 -8 -38 -42q0 -20 14 -39q49 -83 124 -135t165 -52q33 0 68 9l14 2q23 -77 57 -150t90 -133q76 -78 192.5 -123t228.5 -45h16q26 -38 70 -38h3zM762 756l13 1q14 1 29 8
q-10 13 -24 19t-39 8l-16 -2q-14 -3 -28 -13q25 -18 65 -21zM638 868q30 25 30 60q0 15 -7 32q-24 -19 -29 -42q-2 -11 -2 -24q1 -12 8 -26zM689 189q-6 0 -6 6l2 3l-1 1l-3 -1q-2 0 -3 1q-64 49 -66 130q0 41 21 80q14 28 39 28q18 0 35 -9q25 -11 43 -32q32 -38 32 -83
q0 -43 -41 -84q-21 -24 -49 -39zM615 68h-6q-22 0 -32 24q-2 6 -2 13q0 20 15 36q24 21 55 29q3 0 5 -2t2 -4l-2 -3l2 -1l3 2q2 0 4 -1.5t3 -18.5q0 -22 -9 -43q-14 -28 -38 -31zM539 162q-105 0 -159 47q-25 19 -25 47q2 36 36 41l19 2q24 0 47 -6q102 -18 176 -100l1 -3
q0 -5 -6 -5l-4 1l6 5l-2 -1l-3 4q2 2 5 3q5 0 5 -6l-2 -4q-25 -20 -58 -23q-18 -2 -36 -2zM1074 1001q-12 0 -12 12t12 12t12 -12t-12 -12zM954 1041q-12 0 -12 12t12 12q11 0 11 -12t-11 -12zM827 1098q-12 0 -12 12t12 12q11 0 11 -12t-11 -12zM1008 845q15 11 28 24h-5
q-71 0 -139 21t-122 66q-32 26 -55 60l-1 -18l1 -22q55 -63 132 -95t161 -36zM1079 1224q-6 14 -13 26q-54 7 -93 44l-27 -7q54 -58 133 -63z" />
    <glyph glyph-name="s.titl" unicode="__s" horiz-adv-x="1659" 
d="M901 1189q-36 0 -73 14q-54 24 -84 71t-30 102q0 36 14 73q19 44 63 95.5t98 90t102 38.5q17 0 32 -6q42 -19 60 -76.5t18 -123.5q0 -93 -27 -164q-1 0 -1 1q23 59 27 147q-7 0 -41 -31q-19 -18 -40 -33q-10 53 -35 99q-4 4 -9 4q-9 0 -45 -26q-22 -17 -47 -29
q-14 48 -19 97q-2 10 -12 10q-15 -3 -55 -22l-37 -16q-33 -50 -40 -82q162 -138 338 -147q9 13 15 29q0 -1 1 -1q-24 -54 -71 -84t-102 -30zM1361 7q64 3 119 25.5t90 66.5q39 47 39 114q0 55 -32 124t-105.5 151.5t-195.5 178.5q-22 19 -22 33q0 7 5 13q21 26 57 41
q23 9 41 11l-1 -13q0 -31 20 -55.5t53 -30.5l15 -1q32 0 56.5 20t30.5 53q5 26 5 48q0 69 -37.5 106t-97.5 47q-17 3 -36 3q-57 0 -118 -26q-75 -32 -125.5 -93.5t-50.5 -128.5q0 -89 96 -166q271 -213 271 -298q0 -14 -7 -23q-21 -23 -89 -24q-65 0 -125 29q-54 26 -54 70
q0 16 10 35.5t10 40.5q0 48 -48 78q-20 9 -41 9q-30 0 -55 -19q-146 6 -279 81t-200 199q-37 79 -63 164q44 30 59 69.5t15 78.5q0 34 -5 63q-12 103 -90 171q-20 17 -41 17q-24 0 -28 -31q-2 -18 -2 -55q0 -40 5 -80l-5 7l1 3l-1 4q-39 97 -45 201q4 3 7 7q7 9 7 19
q0 14 -11 24q-9 6 -19 6q-14 0 -22.5 -10t-8.5 -20q0 -13 11 -24q9 -6 18 -6h3q6 -88 34 -171q-28 32 -63 57q-24 17 -43 17q-9 0 -17 -5q-13 -11 -13 -29q0 -24 15 -49q27 -53 56 -104q-21 31 -53 53q-63 105 -85 226q17 9 17 27q0 14 -11 24q-9 7 -19 7q-14 0 -24 -12
q-6 -8 -6 -18q0 -14 11 -24q8 -7 17 -7q20 -108 72 -205l-15 8q-66 65 -137 125q4 8 4 16q0 13 -11 24q-9 6 -19 6q-14 0 -24 -11q-6 -9 -6 -19q0 -13 11 -24q8 -6 18 -6q8 0 15 3q59 -49 114 -102q-14 3 -28 3q-8 0 -15 -1q-33 -8 -37 -43q0 -20 13 -38
q49 -84 124.5 -135.5t164.5 -51.5q34 0 68 8l14 3q23 -78 57.5 -150.5t89.5 -132.5q72 -74 178.5 -118t215.5 -50l-12 -17q-34 -69 -34 -127q0 -73 43 -127t112 -89q102 -48 207 -48h17zM763 1134l13 1q13 1 28 7q-19 25 -62 28l-17 -2q-14 -3 -27 -13q13 -10 27 -14.5
t38 -6.5zM638 1246q30 23 30 59q0 19 -7 32q-24 -18 -28 -41q-3 -12 -3 -24q1 -12 8 -26zM689 566q-6 0 -6 6l2 5l-3 -1l-4 1q-64 48 -66 130q0 39 21 80q14 27 40 27q18 0 34 -8q25 -11 43 -32q32 -38 32 -83t-41 -84q-21 -24 -49 -40zM615 445h-5q-11 0 -20 7
q-15 12 -15 31q0 20 15 35q24 22 55 29q4 0 5.5 -1.5t1.5 -3.5l-2 -3l2 -1q1 1 4 1q1 0 3 -1t3 -18q0 -23 -9 -43q-12 -26 -38 -32zM542 539l-33 2q-72 1 -129 46q-25 20 -25 48v5q6 30 36 35l19 2q24 0 47 -6q102 -18 176 -100l1 -3q0 -6 -6 -6l-4 2l4 3l-3 4q1 1 1.5 2
t3.5 1q5 0 5 -5q0 -2 -2 -4q-31 -26 -91 -26zM1074 1379q-12 0 -12 12t12 12t12 -12t-12 -12zM954 1419q-12 0 -12 12t12 12t12 -12t-12 -12zM827 1476q-12 0 -12 12t12 12t12 -12q0 -4 -3 -8t-9 -4zM1008 1223q15 11 28 24h-10q-69 0 -135.5 21t-120.5 65q-32 27 -55 61
l-1 -18l1 -23q55 -62 132 -94.5t161 -35.5zM1079 1602q-6 14 -13 25q-54 7 -93 44q-13 -2 -27 -7q54 -57 133 -62z" />
    <glyph glyph-name="u.titl" unicode="__u" horiz-adv-x="1609" 
d="M752 859q-36 0 -73 15q-54 24 -84 70.5t-30 101.5q0 38 14 73q19 44 63 96t98 90.5t102 38.5q17 0 32 -7q42 -19 60 -76t18 -124q0 -93 -28 -163q23 58 27 148l-2 -1q-6 -1 -38 -30q-19 -18 -41 -33q-10 52 -35 98q-4 5 -10 5q-7 0 -41 -24q-24 -19 -51 -32
q-13 48 -18 97q-3 11 -13 11q-10 -2 -50 -21l-41 -18q-32 -47 -40 -82q164 -138 338 -147q9 14 15 29q-24 -54 -70.5 -84.5t-101.5 -30.5zM1168 6q108 0 211 142l4 -60q4 -36 29 -58.5t59 -22.5q41 1 64.5 27t23.5 61q-2 50 -13 163q-13 147 -24.5 306.5t-11.5 313.5
q-2 38 -27 63t-62 25q-37 -2 -62 -26.5t-25 -61.5q0 -208 18 -407q-104 -242 -173 -282l-9 -5q-22 15 -45 68q-33 78 -50 189.5t-17 232.5q0 88 10 173l1 11q0 33 -22 58q-25 27 -66 29q-33 0 -58.5 -21.5t-29.5 -56.5q-10 -92 -10 -188q0 -139 20 -271q39 -246 135 -343
q-145 6 -278 81.5t-200 199.5q-37 79 -63 164q44 30 59 69.5t15 77.5q0 34 -5 63q-12 104 -90 172q-20 17 -41 17q-25 0 -28 -32q-2 -20 -2 -54q0 -40 5 -81q-2 5 -5 8l1 3l-1 4q-39 97 -45 201q4 3 7 7q7 9 7 19q0 14 -11 24q-9 6 -19 6q-14 0 -22.5 -10t-8.5 -20
q0 -13 11 -24q8 -6 17 -6h4q6 -88 34 -171q-28 32 -63 57q-23 17 -42 17q-9 0 -18 -6q-13 -11 -13 -28q0 -24 15 -50l56 -103q-21 30 -53 53q-63 105 -85 226q17 7 17 27q0 14 -11 24q-9 7 -19 7q-14 0 -24 -12q-6 -9 -6 -19q0 -13 11 -24q8 -6 17 -6q20 -108 72 -205l-15 8
q-66 65 -137 125q4 7 4 15q0 14 -11 25q-9 6 -19 6q-14 0 -24 -11q-6 -9 -6 -19q0 -14 11 -24q8 -6 18 -6q8 0 15 3q59 -49 114 -102q-14 3 -28 3q-8 0 -15 -1q-33 -8 -37 -43q0 -20 13 -38q49 -84 124.5 -135.5t164.5 -51.5q34 0 68 8l14 3q23 -78 57.5 -150.5t89.5 -132.5
q75 -78 188.5 -122t226.5 -46q55 -49 119 -49zM613 804l13 1q15 1 29 8q-10 13 -23.5 19t-39.5 8l-16 -2q-14 -3 -28 -13q14 -10 28 -14.5t37 -6.5zM489 916q30 25 30 60q0 18 -7 32q-24 -19 -29 -42q-2 -11 -2 -24q1 -12 8 -26zM689 206q-6 0 -6 6l2 5l-4 -2l-3 1
q-64 50 -66 131q0 39 21 80q14 27 40 27q18 0 34 -8q26 -11 43 -32q32 -38 32 -84q0 -44 -41 -83q-21 -24 -49 -40zM615 85h-5q-11 0 -20 7q-15 12 -15 30q0 20 15 36q24 22 55 29q4 0 5.5 -1.5t1.5 -3.5l-2 -3l2 -1l3 1q5 0 6 -6t1 -14q0 -22 -9 -42q-12 -26 -38 -32z
M542 179l-33 2q-72 2 -129 45q-25 21 -25 49v5q6 30 36 35l19 2q24 0 47 -6q35 -7 66 -21q63 -27 110 -79l1 -3q0 -6 -6 -6l-4 2l4 3l-3 4q1 1 1.5 2t3.5 1q5 0 5 -5q0 -2 -2 -4q-31 -26 -91 -26zM925 1049q-12 0 -12 12t12 12t12 -12t-12 -12zM805 1089q-12 0 -12 12t12 12
t12 -12t-12 -12zM678 1146q-12 0 -12 12t12 12q11 0 11 -12t-11 -12zM859 893q15 11 28 24h-5q-71 0 -139 21t-122 66q-32 26 -55 60l-1 -18l1 -22q55 -63 132 -95t161 -36zM930 1272q-6 14 -13 26q-54 7 -93 44q-13 -2 -27 -8q54 -57 133 -62z" />
    <glyph glyph-name="v.titl" unicode="__v" horiz-adv-x="1591" 
d="M728 849q-37 0 -73 15q-54 24 -84.5 71t-30.5 102q0 36 15 72q19 44 63 96t98 90.5t102 38.5q17 0 32 -6q42 -20 59.5 -77t17.5 -123q0 -94 -27 -164q23 58 27 148q-5 0 -41 -32q-20 -17 -40 -32l-2 8q-10 48 -34 91q-3 4 -8 4q-9 0 -44 -25q-23 -18 -49 -31
q-10 37 -19 97q-2 11 -12 11q-10 -2 -47 -19l-44 -19q-20 -30 -32 -56l-9 -27q167 -140 339 -146q9 13 15 28q-24 -54 -70.5 -84.5t-101.5 -30.5zM1133 -1q56 0 108 35.5t99 96t85 136.5q52 104 84 220.5t32 210.5q0 72 -19.5 127.5t-62 87t-111.5 31.5q-36 0 -62 -26
t-26 -63t26 -62.5t62 -25.5q17 0 17 -69q0 -150 -98 -352q-36 -74 -72 -122.5t-61 -48.5q-24 0 -43.5 52.5t-31 174t-11.5 326.5l1 108q0 35 -25 60t-62 27q-36 0 -61.5 -24.5t-27.5 -62.5v-60q0 -240 25 -397.5t67.5 -245t97.5 -116.5h-10q-144 0 -283.5 76.5t-208.5 203.5
q-39 80 -63 165q73 50 73 147q0 37 -5 68q-14 100 -90 166q-21 17 -41 17q-13 0 -21 -9q-9 -19 -9 -79q0 -39 6 -78q-1 1 -2.5 3t-2.5 5l1 3l-1 3q-39 98 -46 202q14 8 14 25q0 14 -11 25q-9 6 -19 6q-13 0 -24 -11q-6 -9 -6 -19q0 -14 10.5 -22.5t20.5 -8.5q6 -88 35 -171
q-28 33 -63 57q-21 17 -42 17q-10 0 -18 -5q-14 -11 -14 -29q0 -24 15 -49l57 -104q-23 32 -53 54q-63 104 -85 225q6 3 10 9q7 9 7 19q0 13 -11 24q-9 6 -19 6q-14 0 -24 -11q-7 -9 -7 -19q0 -14 11 -24q8 -6 18 -7q19 -108 72 -205q-7 5 -16 8q-66 65 -137 125q5 8 5 17
q0 13 -10 21.5t-21 8.5q-13 0 -21.5 -10t-8.5 -21q0 -13 10 -21.5t21 -8.5q7 0 14 4q59 -50 114 -103q-13 4 -27 4q-23 0 -39 -14q-13 -10 -15 -30q0 -20 14 -39q49 -83 124.5 -134.5t164.5 -51.5q33 0 67 8l15 2q23 -77 57 -150t89 -133q77 -78 194 -123t229 -45l28 1
q23 -8 48 -8zM602 795q14 1 29 8q-10 13 -24 19q-17 8 -34 8q-30 0 -49 -15q10 -7 19 -11l7 -3q13 -4 44 -6h8zM464 906q24 19 28 42q3 11 3 24q-1 12 -8 26q-30 -23 -30 -59q0 -16 7 -33zM689 158q-5 0 -5 6q0 2 2 3l-1 1l-3 -1q-2 0 -3 1q-64 49 -66 132q0 41 20 79
q15 27 40 27q18 0 35 -8q25 -12 43 -33q32 -37 32 -83q0 -43 -41 -84q-21 -23 -50 -39zM616 37h-6q-22 0 -32 24q-2 6 -2 13q0 20 15 36q24 21 55 29q3 0 4.5 -1.5t1.5 -3.5l-1 -4l1 -1l4 2q2 0 4 -1.5t3 -18.5q0 -22 -10.5 -44.5t-36.5 -29.5zM540 131l-30 1q-84 6 -130 46
q-24 19 -24 47q2 36 36 41q10 2 21 2q23 0 45 -6q33 -6 65 -20q64 -28 110 -80l1 -3q0 -5 -5 -5q-2 0 -4 2l4 3l-1 1q-1 2 -3 3l6 3q5 0 5 -6l-2 -4q-26 -19 -58 -23q-18 -2 -36 -2zM901 1039q-12 0 -12 13q0 12 12 12q11 0 11 -12q0 -13 -11 -13zM781 1079q-12 0 -12 13
q0 12 12 12q11 0 11 -12q0 -13 -11 -13zM653 1136q-11 0 -11 13q0 12 11 12q12 0 12 -12q0 -13 -12 -13zM834 883q16 11 28 24h-5q-70 0 -137.5 21t-122.5 66q-33 26 -55 60l-1 -17q0 -12 1 -23q55 -62 132 -94.5t160 -36.5zM906 1262q-6 14 -13 26q-54 7 -93 44
q-13 -2 -27 -7q54 -58 133 -63z" />
    <glyph glyph-name="w.titl" unicode="__w" horiz-adv-x="2005" 
d="M1179 2q111 0 206 172q69 -166 183 -166q68 0 132 57q52 48 96 122q76 131 121 293q38 135 38 249q0 89 -27.5 152t-88.5 82q-12 3 -23 3q-30 0 -53.5 -17.5t-32.5 -47.5q-3 -12 -3 -23q0 -29 17 -52.5t47 -32.5q7 -3 7 -23q0 -64 -51 -242q-39 -142 -103 -252
q-48 -83 -77 -92h-1q-34 0 -72 296q-18 147 -18 325v53q0 36 -25.5 61.5t-62.5 25.5q-36 0 -61 -25t-27 -62v-55q0 -180 18 -335q-78 -233 -139 -283q-7 11 -19 35q-79 186 -79 586v50q0 37 -25.5 63t-62.5 26t-62.5 -25.5t-25.5 -61.5v-56q0 -436 95 -656q45 -97 114 -129
q32 -15 65 -15zM761 847q-36 0 -73 15q-54 24 -84 71t-30 102q0 36 14 72q19 44 63 96t98 90.5t102 38.5q17 0 32 -6q42 -20 60 -77t18 -123q0 -93 -27 -164h-1q23 58 27 148q-7 0 -41 -31q-19 -18 -40 -33q-10 52 -35 99q-4 4 -9 4q-9 0 -45 -26q-22 -17 -47 -29
q-14 47 -19 96q-1 5 -4.5 8t-8.5 3q-14 -3 -54 -22l-37 -16q-32 -49 -40 -83q166 -140 338 -146q9 13 15 28h1q-24 -54 -71 -84.5t-102 -30.5zM1055 32q-111 0 -227.5 45t-193.5 123q-55 60 -89 133t-57 150l-30 -5q-20 -6 -53 -6q-89 0 -164 52t-124 135q-14 19 -14 39l1 9
q7 26 37 33l17 2q13 0 26 -4q-55 53 -114 103q-7 -4 -15 -4q-10 0 -18 6q-12 11 -12 25q0 10 7 18q10 12 24 12q10 0 19 -7q11 -10 11 -24q0 -8 -4 -16q70 -60 136 -125q9 -3 16 -8q-53 97 -72 205q-9 1 -17 7q-11 10 -11 24q0 10 6 19q10 11 24 11q10 0 19 -6
q11 -11 11 -25q0 -19 -17 -27q22 -121 85 -225q31 -22 53 -54l-57 104q-15 25 -15 49q0 18 14 29q8 5 18 5q22 0 42 -17q35 -25 63 -57q-29 83 -34 171q-12 0 -21 7q-11 10 -11 24q0 10 6 19q11 11 24 11q10 0 19 -7q11 -10 11 -24q0 -10 -6 -19q-5 -5 -7 -6q6 -104 45 -202
l1 -3l-1 -3l5 -8q-5 40 -5 80q0 62 8.5 74t21.5 12q20 0 40 -17q76 -64 90 -167q5 -31 5 -67q0 -97 -73 -148q24 -84 63 -164q69 -128 209 -204.5t284 -76.5l43 2q5 0 5 -5q0 -2 -2 -4.5t-45 -2.5zM623 793l13 1q13 1 28 7q-10 13 -24.5 20t-33.5 7q-29 0 -48 -14
q13 -10 27 -14.5t38 -6.5zM498 905q30 23 30 59q0 18 -7 32q-24 -18 -28 -41q-3 -12 -3 -24q1 -13 8 -26zM690 184q-6 0 -6 6q0 2 2 3l-1 1l-3 -1q-2 0 -3 1q-64 49 -66 130q0 41 21 80q14 28 39 28q18 0 35 -9q25 -11 43 -32q32 -38 32 -83q0 -43 -41 -84q-21 -24 -49 -39z
M616 63h-6q-22 0 -32 24q-2 6 -2 13q0 20 15 36q24 21 55 29q3 0 5 -2t2 -4l-2 -3l1 -1l4 1q2 0 4 -1t3 -18q0 -22 -10 -43q-13 -27 -37 -31zM540 157l-30 1q-84 6 -130 46q-24 19 -24 46q2 37 36 42l19 2q24 0 47 -6q102 -18 176 -100l1 -3q0 -5 -6 -5l-4 1l6 5l-2 -1l-3 4
q2 2 5 3q5 0 5 -6l-2 -4q-25 -20 -58 -23q-18 -2 -36 -2zM934 1037q-12 0 -12 13q0 12 12 12t12 -12q0 -13 -12 -13zM814 1077q-12 0 -12 13q0 12 12 12t12 -12q0 -13 -12 -13zM687 1134q-12 0 -12 13q0 12 12 12t12 -12q0 -5 -3 -9t-9 -4zM868 881q15 11 28 24h-5
q-71 0 -139 21t-122 66q-32 27 -55 60q-1 -8 -1 -17l1 -23q55 -62 132 -94.5t161 -36.5zM939 1260q-6 14 -13 26q-54 7 -93 44q-13 -2 -27 -7q54 -58 133 -63z" />
    <glyph glyph-name="x.titl" unicode="__x" horiz-adv-x="1838" 
d="M794 785q-36 0 -72 15q-54 24 -84.5 70.5t-30.5 101.5q0 36 15 73q19 44 63 96t98 90.5t102 38.5q17 0 32 -7q42 -19 59.5 -76t17.5 -124q0 -93 -27 -163q24 59 26 147q-3 0 -5 -2q-21 -15 -39 -31.5t-36 -30.5l-2 6q-10 50 -34 93q-4 5 -10 5q-7 0 -42 -25
q-23 -18 -49 -31q-12 48 -19 97q-2 11 -13 11q-10 -2 -52 -22l-38 -17q-21 -30 -32 -55l-9 -27q165 -138 339 -147l15 29q-24 -54 -71 -84.5t-102 -30.5zM1700 -15q34 0 62 25q26 28 26 63q0 33 -25 62q-79 81 -138 167t-109 173q50 88 109 173.5t138 167.5q25 29 25 62
q0 34 -26 62q-28 26 -61 26q-34 0 -63 -27q-138 -144 -225 -291q-86 147 -224 291q-29 27 -63 27q-33 0 -61 -26q-27 -29 -27 -63q0 -33 26 -61q79 -82 138 -167.5t109 -173.5q-50 -87 -109 -173t-138 -167q-26 -28 -26 -62t27 -63v-1h-10q-144 0 -284.5 76.5t-209.5 204.5
q-39 79 -64 164q74 50 74 147q0 37 -5 68q-14 100 -90 167q-20 17 -41 17q-25 0 -28 -32q-2 -20 -2 -52q0 -41 6 -83l-6 8l1 7q-40 97 -46 201l8 7q6 9 6 19q0 13 -11 24q-9 6 -19 6q-14 0 -24 -11q-6 -9 -6 -19q0 -14 11 -24q8 -6 17 -6h3q6 -88 35 -171q-28 32 -63 56
q-21 17 -42 17q-10 0 -18 -5q-14 -11 -14 -29q0 -24 15 -49l56 -103q-21 30 -52 53q-65 105 -86 226q6 2 11.5 9.5t5.5 17.5q0 14 -11 24q-9 6 -19 6q-13 0 -24 -11q-6 -9 -6 -19q0 -13 11 -24q8 -6 17 -6q19 -109 73 -205l-16 7q-66 65 -137 126q4 7 4 15q0 14 -11 25
q-9 6 -19 6q-13 0 -24 -11q-6 -9 -6 -19q0 -14 11 -24q9 -7 19 -7q8 0 15 4q59 -49 114 -103q-15 4 -29 4q-22 0 -37 -13q-13 -11 -15 -30q0 -21 13 -40q49 -83 124.5 -134.5t164.5 -51.5q34 0 68 8l14 3q23 -78 57.5 -150.5t89.5 -133.5q77 -78 194 -123t228 -45l22 1
q23 -14 48 -14q34 0 63 26q138 145 224 292q87 -147 225 -292q28 -26 62 -26zM656 730l13 1q13 1 29 8q-10 11 -21 17l-3 2q-15 6 -39 8l-16 -2q-15 -3 -28 -13q14 -10 28 -14.5t37 -6.5zM531 842q13 9 19 19.5t8.5 20.5t2.5 19v6q0 14 -7 27q-12 -9 -18.5 -19.5t-9 -21
t-2.5 -19.5q1 -19 7 -32zM689 150q-6 0 -6 6q0 2 2 4l-3 -1l-4 1q-61 47 -66 124q0 47 21 87q15 27 41 27q17 0 33 -8q26 -11 44 -33q31 -37 31 -82q0 -14 -4 -28q-11 -32 -36 -56q-22 -24 -50 -40zM615 29h-5q-11 0 -19.5 7t-11.5 15.5t-3 15.5q0 20 15 35q23 21 55 29
q3 0 4.5 -2t1.5 -4l-1 -3l1 -1l4 2q3 0 4.5 -6t1.5 -14q0 -22 -9 -43q-11 -24 -38 -31zM540 123l-30 1q-35 3 -69 13t-60 32t-26 50v5q7 29 36 35l20 2q24 0 47 -6q107 -24 175 -101l1 -3q0 -5 -5 -5q-2 0 -4 2q3 2 5 5l-1 -2q-1 2 -3 3l-1 1q1 1 1.5 1t1.5 1t2 1q6 0 6 -6
l-2 -4q-34 -25 -94 -25zM968 975q-12 0 -12 12t12 12q11 0 11 -12t-11 -12zM847 1015q-11 0 -11 12t11 12q12 0 12 -12t-12 -12zM720 1072q-11 0 -11 12t11 12q12 0 12 -12t-12 -12zM901 819q16 11 28 24h-10q-69 0 -135 21q-113 36 -176 126q0 -28 1 -40q55 -63 131.5 -95
t160.5 -36zM972 1198q-5 14 -12 26q-55 7 -93 44q-14 -3 -27 -8q53 -57 132 -62z" />
    <glyph glyph-name="y.titl" unicode="__y" horiz-adv-x="1654" 
d="M1152 -646q65 0 133 22q137 47 210 187t95 337q14 123 14 255q0 157 -16 316l-1 13q-26 236 -68 414q-8 31 -32 49t-54 18q-10 0 -20 -2q-30 -8 -49 -31.5t-19 -53.5q0 -10 3 -21q39 -160 62 -372q-42 -83 -95 -129q-71 -61 -145 -61q-79 0 -136 75q-61 83 -61 226
q0 99 35 229q3 12 3 23q0 29 -17.5 52.5t-47.5 32.5q-12 3 -23 3q-29 0 -52.5 -17.5t-32.5 -47.5q-40 -151 -40 -274q0 -203 94 -331q65 -87 156 -124q60 -23 123 -23q137 0 257 102l1 -58q0 -126 -14 -242q-39 -327 -183 -378q-41 -13 -78 -13q-60 0 -94 30t-34 87
q0 24 7 54q2 10 2 20q0 30 -18 54t-49 32q-11 3 -21 3q-98 0 -98 -165q0 -51 15 -95q25 -74 79 -122q87 -74 209 -74zM746 987q-37 0 -73 15q-54 24 -84.5 71t-30.5 102q0 36 15 72q19 44 63 96t98 90.5t102 38.5q17 0 32 -6q42 -20 60 -77t18 -123q0 -94 -28 -164
q23 58 27 148q-3 0 -6 -3q-18 -13 -36 -29.5t-39 -31.5l-2 9q-10 47 -33 90q-4 4 -9 4q-8 0 -42 -24q-24 -19 -51 -32q-13 49 -18 97q-3 11 -13 11q-10 -2 -47 -19l-44 -19q-32 -49 -40 -83q166 -140 338 -146q9 13 15 28q-24 -54 -70.5 -84.5t-101.5 -30.5zM1055 129
q-111 0 -227.5 45t-193.5 123q-55 61 -89 133.5t-57 150.5l-16 -3q-36 -8 -66 -8q-89 0 -164.5 51.5t-124.5 134.5q-14 19 -14 40q2 20 15 30q15 13 37 13q15 0 29 -4q-55 54 -114 103q-7 -3 -15 -3q-10 0 -18 6q-12 10 -12 24q0 10 7 19q10 11 24 11q10 0 19 -6
q11 -11 11 -24q0 -8 -5 -16q72 -60 137 -126q9 -3 16 -7q-53 96 -72 205q-9 0 -17 6q-11 11 -11 24q0 10 6 19q10 11 24 11q10 0 19 -6q11 -10 11 -24q0 -20 -17 -27q22 -121 85 -226q30 -23 53 -53l-57 103q-15 25 -15 49q0 18 14 29q8 5 18 5q22 0 42 -17q35 -24 63 -56
q-29 83 -34 171h-4q-9 0 -17 6q-11 10 -11 24q0 10 6 19q11 11 24 11q10 0 19 -6q11 -10 11 -24q0 -15 -11 -24l-2 -2q6 -104 45 -201l1 -4l-1 -3l5 -8q-6 41 -6 82q0 62 9 73.5t22 11.5q20 0 40 -17q76 -66 90 -167q5 -31 5 -68q0 -97 -73 -147q24 -85 63 -164
q69 -128 209 -204.5t284 -76.5l43 2q5 0 5 -5q0 -2 -2 -5t-45 -3zM620 933q14 1 29 8q-10 13 -25 20t-33 7q-29 0 -49 -15q11 -8 22 -12l5 -2q15 -5 43 -6h8zM483 1044q30 25 30 60q0 16 -8 32q-30 -24 -30 -59q0 -16 8 -33zM690 281q-6 0 -6 6q0 2 2 4l-1 1l-3 -2l-3 1
q-64 49 -66 131q0 41 20 80q14 27 41 27q18 0 34 -8q25 -11 43 -33q32 -37 32 -83q0 -44 -41 -83q-21 -24 -49 -40zM616 160h-5q-11 0 -20 7q-15 12 -15 30q0 20 15 36q24 22 55 29q3 0 4.5 -1.5t1.5 -3.5t-1 -3l1 -2l4 2q2 0 4 -1.5t3 -18.5q0 -22 -10.5 -44.5t-36.5 -29.5
zM540 254l-30 1q-73 3 -130 46q-24 20 -24 47q2 35 36 42l19 2q24 0 47 -6q108 -23 176 -101l1 -3q0 -5 -6 -5l-4 2l4 3l-3 4q0 1 0.5 1t2 1t2.5 1q5 0 5 -6l-2 -4q-12 -10 -27.5 -15t-32 -7.5t-34.5 -2.5zM919 1177q-12 0 -12 13q0 12 12 12t12 -12q0 -13 -12 -13z
M799 1217q-12 0 -12 13q0 12 12 12q11 0 11 -12q0 -13 -11 -13zM672 1274q-12 0 -12 13q0 12 12 12q11 0 11 -12q0 -13 -11 -13zM853 1021q15 11 28 24h-5q-71 0 -139 21t-122 66q-32 26 -55 60l-1 -17q0 -12 1 -23q55 -62 132 -94.5t161 -36.5zM924 1400q-6 14 -13 26
q-54 7 -93 44q-13 -2 -27 -7q54 -58 133 -63z" />
    <glyph glyph-name="z.titl" unicode="__z" horiz-adv-x="2022" 
d="M791 773q-36 0 -72 14q-54 24 -84.5 71t-30.5 102q0 36 15 72q19 45 62.5 96.5t98 90t101.5 38.5q18 0 33 -6q42 -19 59.5 -76.5t17.5 -123.5q0 -93 -27 -164h-1q25 58 27 148q-7 0 -43 -33q-18 -16 -37 -31l-2 8q-10 48 -34 91q-4 4 -9 4q-9 0 -45 -26q-22 -17 -47 -29
q-12 47 -19 97q-3 10 -12 10q-16 -3 -58 -23q-16 -8 -33 -15q-34 -48 -41 -82q83 -71 183 -113q76 -30 155 -34q9 13 15 28h1q-24 -54 -71 -84t-102 -30zM1055 -2q21 0 42 2q5 2 5 5v2l25 1q306 45 497 45q154 0 217 -35q21 -11 43 -11q46 0 77 44q11 22 11 44q0 46 -44 76
q-102 57 -314 57q-132 0 -272 -17l509 540q29 27 29 64t-26 63t-63 26q-64 0 -135 -13.5t-143 -30.5q-67 -16 -129.5 -28t-111.5 -12q-73 0 -92 36q-30 47 -78 47q-20 0 -42 -11t-34 -32t-12 -44q0 -21 10 -41q40 -74 102.5 -103t140.5 -29q65 0 137 14t146 31l-503 -533
q-24 -28 -24 -60q0 -35 28 -64q15 -15 35 -21l-31 -1q-144 0 -284.5 76.5t-209.5 204.5q-39 79 -63 164q73 50 73 147q0 37 -5 68q-14 101 -90 167q-20 17 -40 17q-25 0 -28 -32q-3 -24 -3 -53q0 -41 6 -82l-5 8l1 3l-1 4q-39 97 -45 201l2 2q11 9 11 24q0 14 -11 24
q-9 6 -19 6q-13 0 -24 -11q-6 -9 -6 -19q0 -14 11 -24q8 -6 17 -6h4q5 -88 34 -171q-66 73 -105 73q-10 0 -18 -5q-14 -11 -14 -28q0 -24 15 -50l57 -103q-23 30 -53 53q-63 105 -85 226q17 7 17 27q0 14 -11 24q-9 6 -19 6q-14 0 -24 -11q-7 -9 -7 -18q0 -14 12 -25
q8 -6 17 -6q19 -108 72 -205l-16 8q-65 65 -137 125q5 8 5 16q0 13 -11 24q-9 6 -19 6q-14 0 -24 -11q-7 -9 -7 -19q0 -14 11 -24q9 -6 19 -6q8 0 15 3q59 -49 114 -102q-14 3 -28 3q-23 0 -38 -13q-13 -10 -15 -30q0 -21 14 -39q49 -84 124.5 -135.5t164.5 -51.5q33 0 67 8
l15 3q23 -78 57 -150.5t89 -132.5q77 -79 193.5 -124t227.5 -45zM653 718l13 1q13 1 29 7q-11 13 -25.5 19.5t-37.5 8.5l-17 -2q-13 -3 -27 -13q13 -10 27.5 -14.5t37.5 -6.5zM528 830q13 9 19 19.5t8.5 20.5t2.5 19v6q0 12 -7 26q-12 -9 -18.5 -19.5t-9 -20.5t-2.5 -19v-6
q0 -12 7 -26zM690 150q-3 0 -4.5 2t-1.5 4t2 4l-1 1l-3 -2l-3 1q-64 49 -66 131q0 41 20 80q14 27 41 27q18 0 34 -8q25 -11 43 -32q32 -38 32 -84q0 -43 -41 -83q-21 -24 -50 -40zM616 29h-5q-11 0 -20 7q-15 12 -15 30q0 20 15 36q24 22 55 29q3 0 4.5 -1.5t1.5 -3.5
t-1 -3l1 -1l3 1q6 0 7 -6t1 -14q0 -22 -10.5 -44.5t-36.5 -29.5zM543 123l-33 2q-73 2 -130 45q-24 20 -24 47q2 35 36 42l19 2q24 0 47 -6q35 -7 65 -21q65 -27 110 -80l2 -3q0 -5 -6 -5l-4 2l4 3l-3 4q0 2 2 2.5t3 0.5q5 0 5 -5q0 -2 -2 -4q-12 -11 -27.5 -16t-31 -7.5
t-32.5 -2.5zM964 963q-11 0 -11 12t11 12q12 0 12 -12t-12 -12zM844 1003q-11 0 -11 12t11 12q12 0 12 -12t-12 -12zM717 1060q-12 0 -12 12t12 12t12 -12t-12 -12zM898 807q15 11 28 23h-5q-70 0 -138 21q-115 36 -178 127l-1 -18q0 -12 2 -23q55 -62 131.5 -94.5
t160.5 -35.5zM969 1185q-5 14 -13 26q-53 7 -93 44q-13 -2 -26 -7q53 -57 132 -63z" />
    <glyph glyph-name=".notdef" horiz-adv-x="899" 
d="M25 0v1434h824v-1434h-824zM75 50q353 159 724 0v1334q-384 -118 -724 0v-1334zM344 334l57 58q11 10 20 10q10 0 22 -11l56 -60q9 -11 9 -20q0 -11 -10 -22l-56 -62q-14 -14 -21 -14q-11 0 -20 10l-61 71q-7 9 -7 18q0 10 11 22zM338 1191q53 30 112 30q92 0 148 -47.5
t56 -127.5q0 -49 -23 -98.5t-87 -129.5q-63 -80 -99 -132t-36 -99q0 -38 24 -133h-32q-35 97 -35 148q0 76 81.5 218t81.5 217q0 57 -33 90t-91 33q-8 0 -16 -1l32 -51q7 -12 5 -21q-2 -11 -14 -20l-66 -50q-17 -11 -24 -10q-10 2 -17 14l-47 81q-5 10 -3 19q1 10 28.5 32.5
t54.5 37.5z" />
    <glyph glyph-name="uni0000" horiz-adv-x="75" 
 />
    <glyph glyph-name="uni0000" horiz-adv-x="75" 
 />
    <glyph glyph-name="nonmarkingreturn" horiz-adv-x="682" 
 />
    <glyph glyph-name="space" unicode=" " horiz-adv-x="330" 
 />
    <glyph glyph-name="space" unicode="&#xa0;" horiz-adv-x="330" 
 />
    <glyph glyph-name="exclam" unicode="!" horiz-adv-x="468" 
d="M97 -64q-35 0 -56 27q-16 19 -16 44l2 16q10 36 11 41.5t2 12.5q2 29 22.5 48t48.5 19q32 -1 51.5 -22.5t19.5 -49.5q-1 -26 -10 -56l-6 -24q-6 -25 -25.5 -40.5t-43.5 -15.5zM159 280q-35 3 -54 26q-16 20 -16 45q1 12 188 1098q5 26 24.5 42.5t44.5 16.5l13 -1
q26 -5 42.5 -24.5t16.5 -44.5q-1 -13 -188 -1099q-5 -26 -25 -42.5t-46 -16.5z" />
    <glyph glyph-name="quotedbl" unicode="&#x22;" horiz-adv-x="420" 
d="M272 1068q-36 3 -54 24t-18 47q1 11 28 186q5 27 25 44t45 17q36 -3 54 -24.5t18 -46.5q-1 -11 -28 -187q-5 -27 -25 -43.5t-45 -16.5zM96 1068q-36 3 -53.5 24t-17.5 47q1 11 28 186q5 27 24.5 44t45.5 17q35 -3 53 -24.5t18 -46.5q-1 -11 -28 -187q-5 -27 -24.5 -43.5
t-45.5 -16.5z" />
    <glyph glyph-name="numbersign" unicode="#" horiz-adv-x="774" 
d="M390 300q-36 0 -57 28q-14 19 -14 42q0 10 2 19l24 90h-104l-31 -108q-7 -24 -26 -38t-42 -14q-36 0 -57 30q-14 19 -14 42q0 10 2 19l20 69q-29 2 -48.5 22.5t-19.5 48.5q0 29 21 50t50 21h38l21 73h-50q-30 0 -50.5 21t-20.5 50t20.5 50t50.5 21h90l28 98q7 24 26 38
t42 14q10 0 20 -3q24 -7 38 -26t14 -42q0 -10 -3 -20l-17 -59h98l21 77q7 24 26 38t42 14q36 0 57 -28q14 -19 14 -42q0 -10 -2 -19l-10 -40h64q29 0 50 -20.5t21 -50.5q0 -29 -21 -50t-50 -21h-103l-19 -73h102q29 0 50 -21t21 -50t-21 -50t-50 -21h-141l-34 -127
q-7 -24 -26 -38t-42 -14zM403 694h-100l-21 -73h101z" />
    <glyph glyph-name="dollar" unicode="$" horiz-adv-x="797" 
d="M327 96q-27 5 -43.5 25t-16.5 46q0 12 1 16.5t2.5 9.5t3.5 17q-73 29 -133 78q-52 43 -84 97t-32 115q0 86 70 170q24 26 56 26q23 0 44 -16q25 -25 25 -55q0 -24 -16 -45q-31 -40 -31 -77q0 -58 59 -106q31 -25 67 -43l68 395q-28 38 -62 79t-49.5 79.5t-15.5 73.5
q0 86 82 152q53 42 122 62l12 69q5 26 25 42.5t46 16.5q35 -3 54 -26q16 -20 16 -45q-2 -23 -7 -46q85 -13 130 -67q27 -34 27 -83q0 -39 -20 -88q-24 -44 -65 -44q-14 0 -28 6q-44 24 -44 66q0 13 5.5 26.5t5.5 21.5q0 13 -10 17t-25 5l-49 -283q168 -241 168 -398
q0 -104 -70 -160q-63 -52 -166 -52l-37 2l-3 -21q-5 -26 -25 -42.5t-45 -16.5zM450 315q99 0 99 80q0 63 -67 185l-45 -265h13zM414 1025l-1 -2q-24 -17 -24 -46q0 -17 11 -37z" />
    <glyph glyph-name="percent" unicode="%" horiz-adv-x="921" 
d="M96 191q-22 0 -42 14q-29 24 -29 57q0 22 14 42l703 980q25 29 58 29q22 0 42 -14q29 -24 29 -57q0 -22 -14 -42l-703 -979q-25 -30 -58 -30zM326 1011q-44 0 -73 16q-44 24 -44 80q0 43 20 96.5t53.5 93t73.5 39.5q36 0 63.5 -56t27.5 -195v-24q0 -15 -11 -26
q-6 -6 -15 -8q-52 -16 -95 -16zM354 1087q10 0 22 2v16q0 88 -6.5 124t-15.5 36q-11 0 -31 -49q-16 -38 -16 -74q0 -15 4 -28t14.5 -20t28.5 -7zM539 176q-37 0 -64.5 56.5t-27.5 199.5v19q1 12 8.5 21.5t18.5 12.5q40 12 74 12q67 0 104 -41t37 -99q0 -38 -17 -79
t-59 -71.5t-72 -30.5h-2zM541 247q10 0 31 49q15 38 15 73q0 16 -3.5 28.5t-14.5 20t-30 7.5q-9 0 -21 -2v-16q0 -160 23 -160z" />
    <glyph glyph-name="ampersand" unicode="&#x26;" horiz-adv-x="597" 
d="M200 250q-36 3 -54 24.5t-18 47.5q1 11 14 93l-4 1q-76 42 -103 114q-10 28 -10 57q0 51 34 97q29 37 84 59q-31 46 -31 88q0 35 19 65q45 67 146 81l19 110q5 26 24 42.5t45 16.5l12 -1q27 -5 43.5 -25t16.5 -45q-1 -11 -18 -111q56 -19 92 -58.5t36 -101.5
q0 -24 -6 -50t-25.5 -41t-44.5 -15q-34 0 -55 27q-15 19 -15 43q0 9 2 18l1 8q0 28 -45 39q-20 4 -41 5q-18 0 -35 -4q-25 -6 -30 -12v-1q0 -9 95 -69q34 -25 34 -61q0 -19 -10 -37q-25 -34 -61 -34l-48 2q-73 0 -93 -26q-3 -4 -3 -9t2 -10q7 -20 33 -34q19 -10 45 -10
q53 0 115 44q20 14 42 14q33 0 58 -30q14 -20 14 -42q0 -33 -30 -57q-87 -60 -163 -69l-13 -82q-5 -27 -24.5 -44t-45.5 -17z" />
    <glyph glyph-name="quotesingle" unicode="'" horiz-adv-x="244" 
d="M96 1068q-36 3 -53.5 24.5t-17.5 46.5q1 11 28 176q5 27 25 43.5t46 16.5q34 -3 54 -26q16 -19 16 -45q-1 -12 -28 -176q-5 -27 -25 -43.5t-45 -16.5z" />
    <glyph glyph-name="parenleft" unicode="(" horiz-adv-x="388" 
d="M227 95q-79 0 -126 84q-38 65 -56.5 172t-19.5 247q0 133 22 266.5t67.5 235.5t115.5 146q18 10 37 10q36 0 61 -35q10 -18 10 -36q0 -36 -35 -61q-69 -48 -102.5 -202.5t-33.5 -322.5q1 -126 17 -222q15 -82 40 -126q2 -4 2.5 -7t0.5 -5t1 -2q30 0 51 -20.5t21 -50.5
q0 -29 -20.5 -50t-49.5 -21h-3z" />
    <glyph glyph-name="parenright" unicode=")" horiz-adv-x="372" 
d="M103 95q-33 0 -53 21.5t-20 50.5q2 30 22.5 50t49.5 20q1 0 1 1l-1 2q-1 2 -1 5l1 5q33 59 54 182q23 144 24 316q0 188 -29 348.5t-91 204.5q-35 25 -35 61q0 18 10 36q25 35 61 35q19 0 36 -10q66 -41 108 -144.5t62 -244.5t20 -288q-1 -185 -26 -338
q-51 -313 -193 -313z" />
    <glyph glyph-name="asterisk" unicode="*" horiz-adv-x="464" 
d="M367 1044q-11 0 -22 5l-126 63l-125 -63q-11 -5 -22 -5q-26 0 -42 25q-5 11 -5 22q0 26 26 42l64 33l-64 32q-26 17 -26 42q0 11 5 22q16 26 43 26q10 0 21 -5l78 -40v72q0 20 14 34t33 14q20 0 34 -14t14 -34v-72l78 40q10 5 21 5q26 0 43 -26q5 -11 5 -22
q0 -25 -26 -42l-64 -32l64 -33q26 -16 26 -42q0 -11 -5 -22q-17 -25 -42 -25z" />
    <glyph glyph-name="plus" unicode="+" horiz-adv-x="554" 
d="M243 234q-33 1 -52.5 22.5t-19.5 49.5l9 132l-91 10q-28 4 -46 24t-18 46q3 35 24 53.5t48 18.5q7 0 93 -10l7 105q3 30 23.5 48.5t48.5 18.5q31 -1 50.5 -22t19.5 -49l-7 -117l109 -12q28 -4 45.5 -24t17.5 -47q-1 -33 -22.5 -51.5t-48.5 -18.5q-7 0 -111 11l-9 -122
q-2 -29 -22 -47.5t-48 -18.5z" />
    <glyph glyph-name="comma" unicode="," horiz-adv-x="207" 
d="M76 -45q-25 1 -38 14.5t-13 34.5q1 17 11.5 29t25.5 15q1 9 1 28.5t13 33t33 14.5q20 0 33.5 -13t14.5 -32v-14q0 -41 -13 -67q-22 -43 -68 -43z" />
    <glyph glyph-name="hyphen" unicode="-" horiz-adv-x="502" 
d="M96 244q-27 0 -48.5 19.5t-22.5 51.5q0 27 18.5 47.5t46.5 23.5l291 24q27 0 48.5 -19.5t22.5 -51.5q0 -27 -18.5 -47.5t-46.5 -23.5l-291 -24v0z" />
    <glyph glyph-name="hyphen" unicode="&#xad;" horiz-adv-x="502" 
d="M96 244q-27 0 -48.5 19.5t-22.5 51.5q0 27 18.5 47.5t46.5 23.5l291 24q27 0 48.5 -19.5t22.5 -51.5q0 -27 -18.5 -47.5t-46.5 -23.5l-291 -24v0z" />
    <glyph glyph-name="period" unicode="." horiz-adv-x="238" 
d="M95 -28q-29 0 -51 20q-19 16 -19 44q0 42 52 97q17 16 37 16q16 0 30 -11q44 -39 44 -79q0 -31 -22.5 -54.5t-53.5 -30.5l-17 -2v0z" />
    <glyph glyph-name="slash" unicode="/" horiz-adv-x="658" 
d="M95 -10q-13 0 -27 5q-43 24 -43 66q0 13 5 27l442 1073q24 44 65 44q14 0 27 -5q44 -23 44 -65q0 -14 -5 -28l-442 -1073q-24 -44 -66 -44z" />
    <glyph glyph-name="zero" unicode="0" horiz-adv-x="923" 
d="M440 143q49 0 97 29q55 32 95 101q64 109 64 280q0 243 -137 566q-31 68 -56 68q-30 0 -67 -32q-53 -43 -101 -123q-59 -96 -96.5 -221.5t-37.5 -256.5q0 -160 64 -290q66 -120 170 -121h5zM436 -35q-101 1 -187.5 56.5t-141.5 162.5q-82 164 -82 368q0 159 44.5 309
t114.5 264q64 105 139 168q87 71 178 71h7q134 0 214 -175q151 -354 151 -636q0 -220 -87 -369q-64 -109 -157 -164t-193 -55z" />
    <glyph glyph-name="one" unicode="1" horiz-adv-x="336" 
d="M197 -43q-35 0 -59.5 23t-28.5 59l-84 1141q0 35 24 61.5t66 27.5q35 0 59.5 -23t28.5 -59q83 -1136 83 -1143q0 -35 -23 -59.5t-59 -27.5h-7z" />
    <glyph glyph-name="two" unicode="2" horiz-adv-x="812" 
d="M673 82q-17 0 -36 7q-65 25 -138 44.5t-152 19.5q-103 0 -196 -42q-18 -8 -38 -8q-36 0 -65 28q-23 28 -23 60q0 36 28 65q179 171 272 355q107 213 107 356l-1 19q-37 -28 -106 -123q-30 -36 -72 -36q-27 0 -52 16q-36 31 -36 72q0 27 16 52q142 191 242 207q19 4 37 4
q88 0 128 -93q21 -48 21 -119q0 -135 -76 -324q-61 -152 -175 -310q98 -3 183.5 -26t160.5 -51q28 -10 44 -33t16 -51q0 -14 -5 -29q-10 -28 -33 -44t-51 -16z" />
    <glyph glyph-name="three" unicode="3" horiz-adv-x="691" 
d="M164 57q-31 0 -64.5 5.5t-54 30.5t-20.5 57l1 14q6 33 31 53.5t57 20.5l14 -1q17 -3 34 -3q80 0 146 49t107 119q48 82 49 154q0 41 -22 58q-19 13 -54 13q-61 0 -178 -48v1q-17 -7 -35 -7q-31 0 -57 21q-31 30 -31 67q0 30 21 57q79 97 126.5 211t54.5 201
q-39 -33 -105 -118q-30 -35 -70 -35q-29 0 -55 19q-34 31 -34 70q0 29 19 55q156 193 247 209q21 5 39 5q75 0 112 -71q25 -47 25 -114q-5 -152 -97 -348h17q93 0 151 -39q103 -68 103 -209q-1 -119 -74 -243q-42 -70 -103 -127t-137 -92t-163 -35z" />
    <glyph glyph-name="four" unicode="4" horiz-adv-x="790" 
d="M652 -52q-35 0 -60 23t-29 59l-37 441l-413 -11q-9 0 -19 2q-31 7 -50 31.5t-19 55.5q0 10 2 19l151 664q8 31 32 50t54 19q10 0 20 -2q31 -8 50 -32t19 -54q0 -10 -2 -20l-125 -553l285 8q-38 458 -38 485q0 37 26 63t63 26t63 -26t26 -63q0 -25 47 -590l42 -506
q0 -35 -23 -60t-58 -29h-7z" />
    <glyph glyph-name="five" unicode="5" horiz-adv-x="804" 
d="M292 72q-118 0 -238 108q-29 30 -29 66q0 32 23 60q30 29 66 29q32 0 60 -23q64 -54 116 -54q55 0 93 45q56 64 76 154q8 38 8 73q0 42 -13 76q-18 47 -80 47q-43 0 -111 -27q-17 -7 -34 -7q-39 1 -64 27.5t-25 61.5l28 468q2 35 25 58.5t58 26.5l415 27q34 0 60.5 -24.5
t27.5 -64.5q0 -34 -23.5 -59.5t-59.5 -29.5l-330 -21l-16 -261q32 5 60 5q89 0 146.5 -43.5t86.5 -115.5q27 -67 27 -145q0 -55 -13 -111q-31 -135 -117 -235q-100 -111 -223 -111z" />
    <glyph glyph-name="six" unicode="6" horiz-adv-x="621" 
d="M350 -50q-68 0 -134 52q-82 63 -136.5 201.5t-54.5 311.5q0 109 25 233.5t82 261t153 281.5q31 40 74 40q26 0 49 -15q40 -31 40 -74q0 -25 -15 -49q-166 -257 -209 -473q21 3 41 3l28 -2q141 -19 217 -161q31 -59 46 -129.5t15 -139.5q0 -35 -4 -68q-13 -101 -48 -163.5
t-85 -88.5q-41 -21 -84 -21zM350 128q27 12 40 115q3 26 3 53q0 105 -40 181q-34 66 -90 68q-26 0 -62 -14v-17q0 -145 42 -246q36 -90 83 -127q16 -13 22 -13h2z" />
    <glyph glyph-name="seven" unicode="7" horiz-adv-x="633" 
d="M433 31q-38 1 -63 27t-25 61l54 1031l-257 -85q-14 -4 -28 -4q-28 0 -51 16t-33 44q-5 14 -5 28q0 28 16.5 51.5t44.5 33.5l381 126q14 4 28 4q28 0 51 -16t33 -45q4 -15 4 -29l-61 -1159q-3 -37 -28.5 -60.5t-60.5 -23.5z" />
    <glyph glyph-name="eight" unicode="8" horiz-adv-x="747" 
d="M334 6q-87 0 -148 29q-161 80 -161 282q0 35 5 71q31 189 159 332q28 28 62 28q-53 94 -88 191t-35 195q2 123 44 203q39 73 98 106q50 28 103 28q41 0 82 -17q85 -32 139 -131q42 -77 42 -191q0 -172 -109 -375q-19 -30 -50 -41q102 -159 151 -247q69 -124 69 -223
q0 -86 -62 -146t-208 -86q-50 -8 -93 -8zM331 183q29 0 65 6q66 12 93.5 31t27.5 44q-5 52 -52 136q-41 72 -96 155l-39 61q-4 -8 -12 -17q-90 -100 -112 -236q-4 -25 -4 -47q0 -91 58 -120q27 -13 71 -13zM386 871q74 146 74 260q0 68 -24 111q-20 38 -47 48q-7 3 -14 3
q-9 0 -17 -5q-45 -22 -52 -145v-11q0 -109 80 -261z" />
    <glyph glyph-name="nine" unicode="9" horiz-adv-x="621" 
d="M236 -50q-25 0 -49 15q-40 31 -40 74q0 25 15 49q166 258 209 473q-20 -2 -39 -2q-15 0 -29 1q-78 10 -133 56q-52 43 -83.5 103.5t-46.5 130.5t-15 139q0 36 4 70q28 200 133 251q41 22 84 22q68 0 134 -52q82 -65 138 -203q53 -136 53 -309q0 -109 -25 -234
t-82.5 -261.5t-153.5 -282.5q-31 -40 -74 -40zM336 736q25 0 58 14v17q0 145 -42 247q-36 90 -82 126q-19 14 -24 14h-1q-27 -12 -40 -115q-3 -25 -3 -51q0 -97 41 -184q30 -62 80 -67z" />
    <glyph glyph-name="colon" unicode=":" horiz-adv-x="238" 
d="M95 174q-29 0 -51 20q-19 16 -19 44q0 42 52 97q17 16 37 16q16 0 30 -11q44 -39 44 -79q0 -31 -23 -54.5t-53 -30.5zM113 444q-20 0 -36 16q-52 54 -52 97q0 28 20.5 46t48.5 18l18 -2q30 -6 53 -30t23 -55q0 -40 -44 -78q-14 -12 -31 -12z" />
    <glyph glyph-name="semicolon" unicode=";" horiz-adv-x="238" 
d="M113 444q-20 0 -36 16q-52 54 -52 97q0 28 20.5 46t48.5 18l18 -2q31 -6 53.5 -29.5t22.5 -54.5q0 -40 -44 -79q-14 -12 -31 -12zM76 182q-25 1 -38 15t-13 34q1 17 11.5 29t25.5 15q1 9 1 28.5t13.5 33.5t34.5 14q19 0 32 -13t14 -32v-14q0 -41 -13 -67q-22 -43 -68 -43
z" />
    <glyph glyph-name="semicolon" unicode="&#x37e;" horiz-adv-x="238" 
d="M113 444q-20 0 -36 16q-52 54 -52 97q0 28 20.5 46t48.5 18l18 -2q31 -6 53.5 -29.5t22.5 -54.5q0 -40 -44 -79q-14 -12 -31 -12zM76 182q-25 1 -38 15t-13 34q1 17 11.5 29t25.5 15q1 9 1 28.5t13.5 33.5t34.5 14q19 0 32 -13t14 -32v-14q0 -41 -13 -67q-22 -43 -68 -43
z" />
    <glyph glyph-name="less" unicode="&#x3c;" horiz-adv-x="414" 
d="M293 158q-21 0 -41 13l-204 142q-23 24 -23 52q0 26 19 49l188 201q23 22 51 22q26 0 49 -19q23 -24 23 -52q0 -26 -19 -48l-131 -141l128 -90q31 -24 31 -58q0 -21 -13 -41q-24 -30 -58 -30z" />
    <glyph glyph-name="equal" unicode="=" horiz-adv-x="469" 
d="M102 405q-26 0 -46.5 18.5t-23.5 54.5q0 26 17.5 46t45.5 23q215 24 222 24q27 0 48.5 -18.5t22.5 -51.5q0 -27 -17.5 -47t-45.5 -24zM95 248q-27 0 -48 19.5t-22 51.5q0 28 18.5 48t47.5 23l258 19q27 0 48 -19.5t22 -51.5q0 -28 -18.5 -48t-47.5 -23z" />
    <glyph glyph-name="greater" unicode="&#x3e;" horiz-adv-x="438" 
d="M95 154q-35 0 -59 32q-11 18 -11 38q0 35 33 60l149 95l-130 139q-19 22 -19 48q0 28 23 52q23 19 49 19q28 0 52 -22l187 -201q19 -23 19 -49q0 -28 -23 -52q-4 -4 -231 -148q-19 -11 -39 -11z" />
    <glyph glyph-name="question" unicode="?" horiz-adv-x="576" 
d="M115 -209q-25 0 -45 15q-25 18 -25 54q0 47 51 112q16 18 38 18q14 0 28 -9q61 -41 61 -90q0 -27 -16 -50q-22 -32 -58 -44q-17 -6 -34 -6zM170 51q-15 0 -30 7q-41 24 -41 64q0 15 7 30q279 598 279 855q0 35 -5 61q-10 48 -27 50q-4 1 -9 1q-22 0 -56 -22
q-49 -32 -85 -88.5t-36 -119.5v-6q0 -28 -20 -48.5t-50 -21.5q-29 0 -50.5 21t-21.5 54q0 100 55 189.5t130 138.5q68 45 134 45q138 0 175 -167q7 -35 7 -80q0 -86 -28 -213t-92 -303t-172 -406q-24 -41 -64 -41z" />
    <glyph glyph-name="at" unicode="@" horiz-adv-x="774" 
d="M338 105q-59 0 -111 20q-79 30 -132 94q-70 84 -70 193q0 82 44 165q40 72 106 120q56 40 125 40q52 0 108 -29q65 -36 111 -97.5t61 -130.5q6 -25 6 -50q0 -46 -22 -88q-17 -31 -47 -54h-1q-64 -51 -109 -51q-26 0 -47 16.5t-26 48.5q-54 -30 -92 -30q-41 0 -65 26
q-30 35 -30 83q0 76 52 134q40 46 96 46q55 0 113 -53q15 -16 15 -35l-1 -9q9 -3 17 -11q13 -16 13 -33q0 -9 -3 -17q-15 -39 -19 -61q5 3 11.5 9t18.5 12q31 23 31 66q0 62 -48 124q-34 45 -81 72q-31 17 -62 17q-39 0 -72 -23q-46 -33 -76 -88q-33 -61 -33 -117
q0 -76 49 -135q37 -44 92 -65q37 -14 78 -14q85 0 171 66q66 51 127 148q16 23 40 23q13 0 25 -7q23 -17 23 -41q0 -12 -7 -24q-73 -117 -155 -178q-110 -82 -224 -82zM251 363q25 0 99 70l-7 6q-28 24 -48 24q-17 0 -27 -13q-21 -23 -26 -55l-1 -16q0 -16 10 -16z" />
    <glyph glyph-name="A" unicode="A" 
d="M113 -16q-9 0 -18 2q-32 8 -51 32.5t-19 54.5q0 10 2 19l97 435l197 892q7 31 31 50t54 19q36 0 63 -25q198 -194 338 -488q52 -108 97 -229l5 -12q71 -195 127 -417q3 -11 3 -22q0 -29 -18.5 -53t-49.5 -32q-11 -3 -22 -3q-30 0 -54 18.5t-32 48.5q-42 172 -95 324
l-481 -152l-87 -392q-7 -32 -31.5 -51t-55.5 -19zM706 765q-107 263 -250 447l-125 -565z" />
    <glyph glyph-name="B" unicode="B" horiz-adv-x="1006" 
d="M201 -135q-34 0 -59.5 23.5t-28.5 59.5l-88 1269q0 34 24.5 60.5t64.5 27.5q44 0 73 -38q112 95 221 95q80 0 146 -47q91 -67 130 -189q22 -71 22 -148q0 -123 -58 -229q144 -47 227 -158q71 -92 80 -202l1 -27q0 -99 -64.5 -192.5t-211.5 -156t-391 -71.5
q-4 -31 -26.5 -52.5t-55.5 -24.5h-6zM269 734q149 0 216 94q45 63 45 151q0 48 -15 94q-20 65 -63 96q-19 14 -44 14q-83 0 -193 -148l21 -300zM279 119q198 7 311 49q188 70 188 199q-2 62 -44 117q-37 49 -96.5 79.5t-132.5 30.5l-31 -2q-81 -37 -195 -37l-30 1z" />
    <glyph glyph-name="C" unicode="C" horiz-adv-x="937" 
d="M445 -38q-79 0 -145 36q-108 60 -173 185q-102 204 -102 469q0 150 34 275.5t91 221.5t129 159q88 79 184 103q41 11 81 11q62 0 121 -26q78 -34 136 -116t84 -215q2 -9 2 -18q0 -31 -20 -55t-52 -31l-17 -2q-31 0 -55.5 20t-31.5 53q-36 169 -118 202q-23 10 -49 10
q-70 0 -147 -68q-55 -48 -99 -125q-96 -166 -96 -398l1 -51q11 -194 81 -336q41 -79 98 -111q28 -15 63 -15q111 0 270 158q28 26 62 26t63 -26q26 -29 26 -63t-26 -63q-149 -148 -275 -189q-63 -21 -120 -21z" />
    <glyph glyph-name="D" unicode="D" horiz-adv-x="955" 
d="M251 145q174 24 279 94.5t151.5 170.5t46.5 208q-4 162 -73 298q-62 123 -152 188q-53 38 -111 38q-97 0 -181 -108zM171 -130q-35 0 -61 24t-28 60l-57 1267q0 35 25 62t63 27q51 0 79 -47q95 63 191 63q115 0 222 -76q128 -91 210 -255q79 -160 89 -345l1 -36
q0 -113 -34.5 -220t-110.5 -196t-199.5 -149.5t-301.5 -80.5v-10q0 -35 -23.5 -60.5t-60.5 -27.5h-4z" />
    <glyph glyph-name="E" unicode="E" horiz-adv-x="996" 
d="M440 -39q-158 0 -262 118q-153 175 -153 535q0 333 130 705q10 27 33.5 43t50.5 16h7q30 0 65 2l40 1q80 5 161 5q101 0 198.5 -16t186.5 -62q47 -31 47 -78q0 -21 -11 -42q-31 -47 -78 -47q-21 0 -42 11q-64 33 -142 44.5t-162 11.5q-75 0 -151 -4q-28 0 -56 -2
q-73 -225 -93 -445l447 11q35 0 60 -24.5t27 -62.5q0 -37 -25 -62.5t-61 -27.5l-454 -12q7 -265 107 -382q49 -58 131 -58h14q132 5 347 171q26 19 55 19q40 0 70 -35q19 -26 19 -54q0 -40 -34 -70q-263 -201 -447 -208l-25 -1v0z" />
    <glyph glyph-name="F" unicode="F" horiz-adv-x="1027" 
d="M277 -38q-34 0 -59.5 23.5t-28.5 59.5l-80 1194q-35 2 -58.5 26.5t-25.5 60.5q0 36 24 61.5t60 28.5q24 49 79 50q48 0 77 -43q155 13 316 13q218 0 338 -42q27 -11 42.5 -34t15.5 -50q0 -15 -5 -30q-11 -27 -33.5 -42.5t-50.5 -15.5q-15 0 -30 5q-90 32 -274 32
q-148 0 -296 -12h-1l26 -403q48 3 98 3q44 0 158 -4q58 -3 112 -3t100 6l11 1q33 0 58 -22q28 -25 31 -67q0 -33 -21.5 -58t-56.5 -30q-61 -7 -126 -7q-66 0 -135 4q-64 3 -125 3q-48 0 -92 -3l41 -617q0 -34 -23.5 -59.5t-59.5 -28.5h-6z" />
    <glyph glyph-name="G" unicode="G" horiz-adv-x="940" 
d="M470 -38q-135 1 -223 67q-102 85 -156 232q-66 179 -66 387q0 150 34 275.5t91.5 222t128.5 159.5q88 77 184 102q41 11 82 11q62 0 120 -26q78 -34 136 -116t85 -215l2 -16q0 -32 -20.5 -56.5t-52.5 -31.5l-16 -2q-32 0 -56.5 20.5t-31.5 52.5q-46 212 -165 212
q-72 0 -149 -68q-55 -48 -98 -124q-96 -165 -96 -396q0 -181 54 -329q38 -103 100 -155q41 -29 108 -29q65 0 132 24q60 23 93 62q14 16 18 31.5t4 37.5l1 33q0 75 -18 124q-23 69 -112 69q-53 0 -140 -30q-15 -5 -30 -5q-28 0 -50.5 15.5t-32.5 42.5q-5 15 -5 30
q0 28 15.5 50.5t42.5 33.5q126 45 215 45q76 0 128 -26.5t85 -69t50.5 -93t23 -98.5t5.5 -85l-1 -51q-3 -96 -60 -165q-66 -79 -168 -117q-96 -35 -191 -35z" />
    <glyph glyph-name="H" unicode="H" horiz-adv-x="915" 
d="M775 -77q-35 0 -60.5 24t-27.5 61l-22 629l-56 -1q-46 0 -142 4q-67 3 -131 3q-63 0 -119 -6l11 -587q0 -36 -25 -61t-62 -27q-37 0 -62.5 25t-27.5 62l-26 1289q0 36 25 61.5t62 27.5q37 0 63.5 -25t26.5 -62l11 -525q59 5 122 5q69 0 139 -3q64 -3 123 -3q32 0 61 1
l-19 522q0 36 24.5 62t62.5 28q37 0 62.5 -24.5t27.5 -61.5l49 -1329q0 -35 -24.5 -61t-61.5 -28h-4z" />
    <glyph glyph-name="I" unicode="I" horiz-adv-x="278" 
d="M140 -44q-37 0 -62 25t-27 62l-26 1303q0 35 25 60.5t63 27.5q37 0 62 -25t27 -62l26 -1303q0 -36 -25 -61t-63 -27z" />
    <glyph glyph-name="J" unicode="J" horiz-adv-x="878" 
d="M371 -32q-47 0 -124 39q-52 25 -101 71q-117 107 -121 276q0 122 44 156q24 19 54 19q10 0 20 -2q31 -8 50 -32t19 -54q0 -10 -2 -20q-8 -36 -8 -66q3 -89 66 -149q62 -52 106 -60l2 -1q87 0 143 143q61 158 61 444q-1 236 -40 512l-73 -17q-10 -2 -20 -2q-31 0 -55 18
q-34 27 -34 70q0 31 18.5 55t49.5 32l294 69q10 2 20 2q30 0 54 -18.5t32 -49.5q2 -10 2 -20q0 -31 -18.5 -55t-49.5 -32l-47 -11q43 -301 44 -552q0 -321 -72 -508q-88 -226 -266 -254q-18 -3 -41 -3h-7z" />
    <glyph glyph-name="K" unicode="K" horiz-adv-x="975" 
d="M836 -64q-33 0 -61 25l-556 538l9 -449q0 -36 -25 -61t-63 -27q-37 0 -62 25t-27 62l-26 1303q0 35 25 60.5t63 27.5q37 0 62 -25t27 -62l10 -493l506 551q30 29 66 29q32 0 59 -23q29 -30 29 -66q0 -32 -23 -60l-562 -611l611 -592q27 -29 27 -64q0 -33 -25 -61
q-29 -27 -64 -27z" />
    <glyph glyph-name="L" unicode="L" horiz-adv-x="937" 
d="M341 -40q-87 0 -158 11t-113 39t-44 77l-1 67q0 129 7.5 277t17.5 300.5t18 298.5t8 270l-1 66q0 36 25 61t63 27q37 0 62 -25t26 -60.5t2 -68.5q0 -129 -8 -277q-9 -178 -20 -346q-10 -142 -16.5 -268t-6.5 -239v-49l38 -1q98 0 338 24q155 16 222 18q35 0 60.5 -24.5
t26.5 -63.5q0 -35 -23.5 -60.5t-59.5 -28.5l-87 -6q-157 -13 -348 -19h-28z" />
    <glyph glyph-name="M" unicode="M" horiz-adv-x="971" 
d="M812 -38q-35 0 -60.5 24t-28.5 60l-1 64q0 141 9 411q8 286 26 492l-61 -172q-46 -131 -85.5 -228.5t-71.5 -129.5q-35 -32 -69 -32q-35 0 -69 37q-9 11 -16 24l-176 380l15 -840q0 -37 -25 -62.5t-64 -27.5q-37 0 -62 25t-27 62l-21 1260q0 50 51 80q19 9 38 9
q25 0 47 -13.5t33 -38.5l279 -601q28 75 60 169q55 157 112.5 302t108.5 215q32 41 68 41q29 0 60 -24q39 -36 39 -351q0 -210 -10 -468l-1 -39q-10 -310 -10 -467l1 -72q0 -35 -24 -61t-61 -28h-4z" />
    <glyph glyph-name="N" unicode="N" horiz-adv-x="936" 
d="M691 -45q-34 0 -67 36q-12 13 -17 28l-397 868l14 -837q0 -36 -25 -61t-63 -27q-37 0 -63 25.5t-26 61.5l-22 1259q0 25 13.5 47.5t38.5 33.5q18 8 37 8q25 0 47 -13.5t33 -37.5l449 -980q2 136 9 278q11 236 24.5 446.5t35.5 307.5q8 30 31.5 49t53.5 19q10 0 21 -3
q31 -8 49.5 -32t18.5 -54q0 -10 -2 -20q-18 -83 -31 -285q-10 -160 -25 -455q-9 -239 -24.5 -416.5t-49.5 -216.5q-32 -29 -63 -29z" />
    <glyph glyph-name="O" unicode="O" horiz-adv-x="978" 
d="M457 -33q-116 0 -198 102q-55 70 -78 191q-11 62 -11 141q0 128 35 301q7 32 31.5 51.5t55.5 19.5q9 0 18 -2q32 -7 51.5 -32t19.5 -56q0 -9 -2 -18q-32 -154 -32 -263q0 -63 9 -111q14 -77 43 -114q26 -32 59 -32l14 1q72 15 127.5 87.5t91.5 180.5q59 176 59 381
q0 103 -16 197q-19 107 -57.5 182t-96.5 96q-7 3 -14.5 3t-14.5 1q-61 0 -139 -72q-99 -91 -164 -274q-32 -94 -46 -210q-5 -35 -30 -57t-58 -22q-43 3 -66 29.5t-23 60.5v9q17 134 55 246q81 228 212.5 348t261.5 120l30 -2q27 -3 52 -12q111 -40 178.5 -150.5t94.5 -264.5
q19 -108 19 -224q0 -237 -69 -441q-50 -153 -139.5 -257.5t-217.5 -129.5q-22 -4 -45 -4z" />
    <glyph glyph-name="P" unicode="P" horiz-adv-x="925" 
d="M117 -42q-37 0 -62.5 24.5t-27.5 61.5q-2 104 -2 206q0 204 8 395l1 41q19 371 53 654q8 51 52 71q104 49 213 49q50 0 100 -9q176 -36 298 -154q125 -123 125 -276q0 -35 -7 -71q-24 -115 -104 -212q-78 -92 -188 -152q-133 -73 -276 -73q-47 0 -94 9q-4 -134 -4 -273
q0 -99 2 -202q0 -37 -24.5 -62t-62.5 -27zM299 691q98 0 193 52q81 43 135 109q52 61 67 131q3 17 3 35q0 83 -71 153q-84 81 -207 106q-33 6 -66 6q-49 0 -95 -14q-29 -254 -45 -566q42 -12 86 -12z" />
    <glyph glyph-name="Q" unicode="Q" horiz-adv-x="938" 
d="M405 139q13 0 27 2q71 14 125 83t91 173q62 181 62 394q0 101 -16 195q-19 107 -57.5 182t-97.5 98q-18 6 -37 6q-43 0 -89 -32q-79 -54 -135 -190q-76 -203 -76 -439q0 -106 17 -204q19 -106 58 -179q51 -89 128 -89zM551 -5q-41 -20 -88 -29q-30 -5 -59 -5
q-60 0 -112 21q-107 46 -170 159q-55 101 -78 235q-19 110 -19 229q0 137 23 271t65 240q79 186 196 269q94 66 192 66q49 0 97 -17q109 -41 176.5 -152.5t94.5 -265.5q19 -110 19 -228q0 -56 -4 -113q-15 -179 -69 -337q-47 -134 -123 -228l111 -215q10 -20 10 -41
q0 -48 -48 -79q-20 -10 -40 -10q-49 0 -80 49z" />
    <glyph glyph-name="R" unicode="R" horiz-adv-x="928" 
d="M789 -93q-40 0 -70 34q-46 58 -244 263l-26 27q-140 143 -244 264q-3 -108 -3 -220t3 -228q0 -37 -25 -62t-63 -27q-37 0 -62 24.5t-27 61.5q-3 109 -3 216q0 221 10 426q18 371 53 654q8 51 51 71q104 49 213 49q50 0 100 -9q177 -36 299 -154q108 -107 108 -235
q0 -93 -55 -177q-69 -106 -194 -184q-120 -77 -259 -112l274 -285q160 -165 234 -254q19 -25 19 -54q0 -39 -35 -70q-26 -19 -54 -19zM215 745q156 14 300 105q91 58 139 130q27 42 27 83q0 54 -54 108q-85 81 -207 106q-33 6 -66 6q-49 0 -96 -14q-26 -236 -43 -524z" />
    <glyph glyph-name="S" unicode="S" horiz-adv-x="1046" 
d="M593 -43q-85 0 -171.5 20t-162.5 59q-103 52 -168.5 134t-65.5 191q0 86 51 189q12 23 33.5 36t45.5 13q20 0 40 -10q49 -31 49 -79q0 -20 -10 -40q-26 -52 -26 -97q0 -59 37 -104.5t95 -74.5t125 -44t132 -15q144 2 205 68q22 27 22 69q0 124 -205 334
q-110 113 -295 258q-142 112 -142 242q0 93 70 182q79 96 199 146q94 40 181 40q28 0 53 -4q81 -14 131 -64.5t50 -145.5q0 -31 -6.5 -65.5t-31 -54.5t-55.5 -20q-43 0 -70 32q-20 25 -20 57l1 15q3 13 3 24q0 22 -9 33.5t-22 13.5t-26 2q-48 0 -110 -26q-80 -34 -128 -92
q-25 -31 -25 -67q0 -56 66 -108q393 -309 509 -548q54 -112 54 -199q0 -96 -53.5 -161.5t-137 -99.5t-183.5 -38l-29 -1v0z" />
    <glyph glyph-name="T" unicode="T" horiz-adv-x="1143" 
d="M505 -38q-35 0 -61 24t-28 61l-56 1207l-164 -7l-82 -3q-37 0 -62 25t-27 63q0 37 25.5 63t61.5 26l152 6q196 11 361 11q285 0 410 -44q27 -11 42.5 -33.5t15.5 -50.5q0 -15 -5 -30q-11 -27 -33.5 -42.5t-50.5 -15.5q-15 0 -30 5q-98 34 -340 34l-97 -1l56 -1210
q0 -34 -24 -60t-60 -28h-4z" />
    <glyph glyph-name="U" unicode="U" horiz-adv-x="1007" 
d="M483 -39q-38 0 -80 10q-131 34 -212 160q-166 260 -166 842q0 228 24 446q4 35 29.5 57t58.5 22q42 -2 65 -28.5t23 -60.5v-9q-23 -210 -23 -428q0 -283 43 -491q63 -301 198 -337q15 -4 30 -4q112 0 186 206q33 93 56 208q64 335 64 797v33q0 37 26 63t63 26t63 -26
t26 -63q0 -501 -69 -865q-50 -251 -142 -394q-105 -164 -263 -164z" />
    <glyph glyph-name="V" unicode="V" horiz-adv-x="1008" 
d="M409 -38q-97 0 -179 94q-139 163 -184 522q-21 178 -21 369q0 228 24 448q5 34 29.5 56.5t57.5 22.5q44 -3 67 -29t23 -60v-9q-23 -208 -23 -423q0 -182 20 -353q37 -306 140 -428q26 -29 41 -32q18 0 48 39q61 80 115 231q91 265 146 553t68 407q4 35 29 57t58 22
q44 -3 67 -29t23 -59q-6 -91 -72 -434q-57 -299 -152 -577q-100 -282 -229 -361q-46 -27 -96 -27z" />
    <glyph glyph-name="W" unicode="W" horiz-adv-x="1526" 
d="M417 -39q-101 0 -188 100q-140 163 -183 522q-21 180 -21 372q0 227 24 444q4 35 29.5 57t59.5 22q41 -2 64.5 -28.5t23.5 -59.5v-9q-24 -210 -24 -428q0 -370 72 -601q35 -111 89 -175q30 -35 53 -38q21 0 54 42q59 74 109 213q78 213 119 462q11 132 36 282q5 74 5 135
q0 20 -3 92q0 34 22 59q26 28 65 29q34 0 59.5 -22.5t29.5 -57.5q4 -44 4 -98q0 -68 -6 -150l-1 -18l-1 -2q-10 -124 -33 -262q-9 -115 -9 -213q0 -60 3 -114q28 -372 127 -372l8 1q38 12 82 77q55 79 100 201q121 341 121 624q0 186 -59 263q-19 26 -19 54q0 40 35 70
q26 19 54 19q40 0 70 -34q46 -60 67 -159.5t21 -221.5q0 -326 -124 -678q-52 -140 -120 -239q-79 -115 -177 -146q-31 -9 -62 -9q-94 0 -181 95q-53 60 -89 213q-88 -216 -206 -285q-47 -28 -100 -28z" />
    <glyph glyph-name="X" unicode="X" horiz-adv-x="1197" 
d="M1059 -38q-35 0 -64 27q-132 135 -230 272.5t-179 276.5q-81 -139 -179 -276.5t-230 -272.5q-29 -27 -64 -27q-33 0 -62 26q-26 29 -26 63t25 62q141 145 243.5 296t189.5 304q-87 153 -189.5 304t-243.5 296q-25 28 -25 62t26 63q29 25 63 25t63 -26
q132 -135 230 -272.5t179 -276.5q81 139 179 276.5t230 272.5q29 26 63 26t63 -25q26 -29 26 -63t-25 -62q-141 -145 -243.5 -296t-189.5 -304q87 -153 189.5 -304t243.5 -296q25 -28 25 -62t-26 -63q-28 -26 -62 -26z" />
    <glyph glyph-name="Y" unicode="Y" horiz-adv-x="1197" 
d="M559 -38q-40 1 -65 27.5t-25 63.5q6 147 12 251q10 142 10 258q0 123 -19 246q-69 115 -139 194.5t-165 170.5l-118 117q-25 29 -25 63t26 63q29 25 63 25t63 -26q43 -44 81 -81l45 -45q80 -78 144 -147.5t123 -157.5q119 114 248 250l177 181q28 26 63 26q33 0 62 -25
q27 -29 27 -64q0 -34 -26 -62q-97 -98 -176 -180q-152 -160 -295 -294q18 -127 18 -253q0 -121 -10 -268l-12 -247q-2 -37 -27 -61.5t-60 -24.5z" />
    <glyph glyph-name="Z" unicode="Z" horiz-adv-x="1181" 
d="M1042 -40q-31 0 -58 22q-74 63 -253 63q-139 0 -294 -26.5t-295 -56.5l-18 -2q-24 0 -46 13q-43 31 -43 76q0 24 13 46l704 1155l-98 -33q-93 -34 -183 -60t-170 -26q-59 0 -110.5 20t-92 67.5t-68.5 129.5q-5 15 -5 29q0 28 16.5 51t44.5 33q14 4 27 4q28 0 51.5 -16
t33.5 -44q30 -88 132 -88q56 0 124.5 20.5t140.5 46.5q87 32 173 56.5t165 24.5q37 0 62.5 -25.5t25.5 -63.5q0 -28 -16 -51l-700 -1150q245 46 418 46q256 0 378 -105q30 -30 30 -67q0 -32 -22 -59q-30 -30 -67 -30z" />
    <glyph glyph-name="bracketleft" unicode="[" horiz-adv-x="405" 
d="M102 -37l-6 -1q-29 0 -50 21t-21 51l7 1058q3 29 22.5 48t47.5 19l131 -7q29 -3 47.5 -22.5t18.5 -47.5q-1 -33 -21.5 -52.5t-48.5 -19.5q-21 0 -30.5 1t-24.5 2l-6 -902l115 9q28 0 49.5 -20t22.5 -51q0 -28 -18.5 -48t-47.5 -23l-187 -16v1z" />
    <glyph glyph-name="backslash" unicode="\" horiz-adv-x="673" 
d="M552 -70q-21 0 -39 12t-27 33l-456 1135q-5 13 -5 26q0 42 45 66q13 5 26 5q42 0 66 -45l456 -1134q5 -13 5 -27q0 -42 -45 -66q-13 -5 -26 -5z" />
    <glyph glyph-name="bracketright" unicode="]" horiz-adv-x="405" 
d="M286 17q-12 1 -200 29q-27 5 -44 24.5t-17 45.5q3 36 24 54t47 18q11 -1 115 -17l-25 990h-55q-30 0 -50.5 21t-20.5 50t20.5 50t50.5 21h125q29 0 49 -19.5t22 -49.5l28 -1146q0 -28 -19.5 -48.5t-49.5 -22.5z" />
    <glyph glyph-name="asciicircum" unicode="^" horiz-adv-x="516" 
d="M95 924q-25 0 -47 19q-23 24 -23 52q0 26 19 48l138 150q24 23 53 23q21 0 40 -13l161 -112q30 -25 30 -58q0 -21 -13 -41q-24 -30 -58 -30q-21 0 -40 12l-111 77l-96 -104q-24 -23 -53 -23z" />
    <glyph glyph-name="underscore" unicode="_" horiz-adv-x="656" 
d="M440 -15q-44 0 -166 5q-100 5 -178 5q-30 0 -50.5 21t-20.5 50q0 30 20.5 51t50.5 21q66 0 183 -6q186 -8 211 -8q19 14 41 14q38 0 63 -37q12 -23 12 -42q0 -36 -42 -59q-27 -15 -124 -15z" />
    <glyph glyph-name="grave" unicode="`" horiz-adv-x="316" 
d="M181 913q-33 0 -64 32l1 1h-1q-31 36 -51 93l-4 10q-14 38 -25.5 56.5t-11.5 38.5q0 35 31 60q19 12 40 12q34 0 59 -32q22 -35 39 -82l15 -37q20 -4 36 -20q21 -23 21 -50q0 -28 -21 -50q-33 -32 -64 -32z" />
    <glyph glyph-name="a" unicode="a" horiz-adv-x="877" 
d="M341 153q62 0 138.5 27t152.5 79q5 29 8 57q-94 87 -203 87q-60 0 -112 -25t-84 -62.5t-32 -74.5t34.5 -62.5t97.5 -25.5zM340 -24q-136 0 -228 81q-82 79 -82 180q0 85 54.5 164.5t147.5 130t206 50.5q102 0 208 -53q-7 73 -38 117q-45 49 -128 49q-84 0 -168 -40
t-123 -99q-31 -43 -76 -43q-35 0 -61.5 26t-26.5 62q0 24 12 46q61 98 185.5 162t257.5 64q74 0 146 -28t123 -92q78 -107 78 -298q0 -188 -57 -395q-8 -30 -32 -48.5t-54 -18.5q-48 0 -78 48q-142 -65 -266 -65z" />
    <glyph glyph-name="b" unicode="b" horiz-adv-x="928" 
d="M178 -84q-33 0 -58 21.5t-30 56.5q-29 222 -47 482q-18 233 -18 579q0 129 3 269q2 37 27.5 61.5t60.5 24.5q38 -1 63.5 -26t25.5 -62l-2 -107q-1 -79 -1 -165q0 -207 8 -389q127 75 258 75q115 0 208 -53t147.5 -137.5t54.5 -178.5q0 -108 -65 -192t-169 -132t-221 -48
q-79 0 -158 26l1 -17q0 -38 -24.5 -61.5t-63.5 -26.5zM424 172q110 0 193 58.5t83 136.5q0 45 -29.5 89.5t-82.5 73.5t-122 29q-123 0 -243 -112q8 -112 18 -216q80 -59 183 -59z" />
    <glyph glyph-name="c" unicode="c" horiz-adv-x="800" 
d="M381 -6q-111 0 -191 61t-122.5 159t-42.5 212q0 108 39 195t102.5 148.5t140 94t152.5 32.5q96 0 175 -55t113 -171q3 -12 3 -23q0 -38 -27 -63t-62 -25q-29 0 -52.5 17.5t-32.5 47.5q-28 95 -119 95q-58 0 -116.5 -37t-98.5 -103.5t-40 -154.5q2 -68 21.5 -125t57.5 -92
t95 -35q46 1 96 19t121 69q25 16 52 16q36 0 62 -26.5t26 -61.5q0 -42 -37 -73q-91 -64 -166.5 -91.5t-148.5 -29.5z" />
    <glyph glyph-name="d" unicode="d" horiz-adv-x="928" 
d="M726 -84q-43 3 -66 29.5t-23 59.5l2 16q-79 -26 -159 -26q-115 0 -219 47.5t-170 131t-66 192.5q0 89 51.5 174.5t144 140.5t214.5 55q127 0 258 -75q8 182 8 389q0 86 -1 165l-2 107q0 37 25.5 62t63.5 26q36 0 61 -24.5t27 -61.5q3 -140 3 -269q0 -182 -4 -302.5
t-13 -274.5l-1 -5q-17 -257 -46 -479q-6 -35 -30.5 -56.5t-57.5 -21.5zM480 172q102 0 182 59q10 104 19 216q-120 112 -244 112q-98 0 -166 -60t-68 -132q0 -55 40 -99t103 -70t134 -26z" />
    <glyph glyph-name="e" unicode="e" horiz-adv-x="776" 
d="M228 509q111 6 182 30t104.5 57.5t33.5 64.5q0 25 -21 42.5t-55 17.5q-49 0 -119 -45q-84 -64 -125 -167zM355 28q-93 0 -167.5 41t-118.5 120t-44 194q0 129 63.5 248t162.5 190q111 77 221 77q77 0 134 -34t88.5 -88.5t31.5 -115.5q0 -74 -50.5 -147.5t-165 -124
t-304.5 -58.5q12 -65 51 -95t98 -30q50 0 107.5 20.5t114.5 61.5q25 16 51 16q36 0 62.5 -26.5t26.5 -61.5q0 -42 -37 -73q-81 -57 -164.5 -85.5t-160.5 -28.5z" />
    <glyph glyph-name="f" unicode="f" horiz-adv-x="823" 
d="M350 -714q-43 3 -66 30t-23 60v9q8 68 8 147q0 107 -10 216q-6 72 -29 290q-36 -10 -68 -30q-24 -15 -49 -15q-36 0 -62 26.5t-26 61.5q0 41 31 68t74 43.5t82 24.5q-14 139 -14 260q0 140 29.5 245.5t106.5 156.5q83 48 168 48q70 0 132 -30t100.5 -85t38.5 -130
q0 -96 -74 -198q-30 -36 -71 -36q-35 0 -62 26t-27 62q0 27 17 52q39 58 39 94q-7 67 -92 67q-38 0 -74 -21q-57 -37 -57 -225q0 -115 16 -265q78 4 137 22q15 5 30 5q37 0 62.5 -26.5t25.5 -61.5q0 -48 -37 -71.5t-90 -31.5q-43 -8 -110 -13q13 -99 29 -283
q12 -130 12 -248q0 -87 -9 -165q-5 -35 -30 -57t-58 -22z" />
    <glyph glyph-name="g" unicode="g" horiz-adv-x="882" 
d="M374 172q65 2 132 50t119 148q-3 30 -9 58l-3 4q-109 131 -217 131q-85 -5 -139.5 -68t-54.5 -144q0 -45 21.5 -89.5t60 -67t83.5 -22.5h7zM379 -750q-85 0 -154.5 35t-111 101t-41.5 158q0 164 99 164q36 0 62 -26t26 -63q0 -21 -5 -40.5t-5 -37.5q0 -56 34.5 -85
t94.5 -29q130 0 195 116q82 149 82 444q0 62 -4 125q-124 -116 -285 -117q-98 0 -175.5 48.5t-121.5 129t-44 177.5q0 156 104 269t268 121q87 0 179 -46q11 27 34 43t50 16q30 0 54 -19t32 -49q34 -140 57 -310q2 -7 2 -15q27 -190 27 -375q0 -170 -30 -318.5t-101 -252
t-191 -143.5q-68 -21 -131 -21z" />
    <glyph glyph-name="h" unicode="h" horiz-adv-x="858" 
d="M688 -6q-35 0 -61.5 25t-26.5 63q0 11 3 23q29 111 29 199q0 127 -53.5 212.5t-131.5 85.5q-59 0 -116.5 -59.5t-93.5 -185.5q13 -132 28 -254l1 -12q0 -38 -24.5 -61.5t-63.5 -26.5q-33 0 -58 21.5t-30 55.5q-16 130 -30 271l-1 13q-34 370 -34 778q0 129 3 269
q2 37 27.5 61.5t61.5 24.5q38 -1 63 -26.5t25 -61.5l-2 -106q-1 -76 -1 -160q0 -246 11 -458l1 -8q105 103 233 103q90 0 172.5 -54t135.5 -160t53 -261q0 -112 -35 -246q-8 -30 -31.5 -47.5t-53.5 -17.5z" />
    <glyph glyph-name="i" unicode="i" horiz-adv-x="294" 
d="M155 -7q-30 0 -54 19t-32 49q-25 108 -25 335l1 228l-1 105q0 37 25.5 62.5t63.5 26.5q36 0 61.5 -25t27.5 -62l1 -105l-2 -224q0 -213 21 -299q2 -10 2 -20q0 -38 -26.5 -64t-62.5 -26zM121 865q-35 0 -60 23t-29 59l-1 42q0 13 -3 25t-3 24q0 37 26.5 62.5t61.5 25.5
q31 0 55 -18.5t31.5 -48.5t8.5 -61l2 -43q0 -35 -23 -60.5t-59 -29.5h-7z" />
    <glyph glyph-name="j" unicode="j" horiz-adv-x="838" 
d="M332 -663q-85 0 -154.5 35t-111 101t-41.5 158q0 112 44 146q24 18 55 18q35 0 61.5 -25.5t26.5 -62.5q0 -20 -5 -39t-5 -37q0 -57 34 -87t95 -30q132 0 197 118q83 148 83 443q0 163 -23 329.5t-57 304.5q-2 10 -2 20q0 38 26.5 63.5t62.5 25.5q30 0 53.5 -19t31.5 -49
q36 -147 60.5 -325.5t24.5 -353.5q0 -170 -30.5 -318t-102 -251.5t-192.5 -143.5q-68 -21 -131 -21zM579 910q-35 0 -60 23t-28 59q-3 22 -3.5 33.5t-2 20.5t-4 20.5t-2.5 21.5q0 36 26 62t62 26q30 0 54.5 -18.5t32.5 -49.5q5 -24 7 -38.5t3 -28t4 -35.5v-7q0 -35 -23 -60
t-59 -29h-7z" />
    <glyph glyph-name="k" unicode="k" horiz-adv-x="811" 
d="M671 -7q-17 0 -34 7q-97 36 -186.5 125t-184.5 301q-17 -33 -28 -69q12 -132 28 -254l1 -11q0 -38 -24.5 -62t-64.5 -27q-33 0 -58 21.5t-30 55.5q-32 251 -48.5 510t-16.5 556q0 127 3 265q2 37 27.5 61.5t61.5 24.5q38 -1 63 -26t25 -60q-3 -129 -3 -263
q0 -250 12 -463l1 -31q72 72 148.5 115t150.5 43q67 0 95 -39q18 -25 18 -53q0 -36 -24.5 -62.5t-63.5 -26.5q-11 0 -17 1.5t-15 2.5q-40 0 -111 -56q84 -218 158 -302.5t153 -112.5q25 -12 39.5 -34t14.5 -47q0 -36 -26 -63t-64 -27z" />
    <glyph glyph-name="l" unicode="l" horiz-adv-x="317" 
d="M178 3q-33 0 -58 21.5t-30 55.5q-30 236 -47.5 490.5t-17.5 571.5q0 129 3 269q2 37 27.5 61.5t61.5 24.5q38 -1 63 -26.5t25 -61.5l-2 -104q-1 -76 -1 -157q0 -557 64 -1045l1 -11q0 -38 -24.5 -62t-64.5 -27z" />
    <glyph glyph-name="m" unicode="m" horiz-adv-x="1125" 
d="M981 -6q-40 1 -64.5 27.5t-24.5 60.5l2 62q3 52 3 110q0 194 -29.5 335.5t-63.5 165.5v-1l2 -2t1 -2q-57 -34 -144 -225q18 -119 18 -243q0 -88 -10 -174q-4 -35 -29 -57t-58 -22q-90 11 -90 88l4 50q6 50 6 119q0 151 -31 288.5t-73 165.5q-1 0 -1.5 -1t-3.5 -3
q-65 -38 -164 -266q20 -161 23 -371q0 -37 -26 -63t-63 -26q-36 0 -62 25.5t-26 62.5q-5 238 -32 446q-19 163 -20 205q0 36 24.5 61t64.5 27q56 0 83 -57q100 138 206 138q56 0 105.5 -37.5t85.5 -110.5q105 162 217 162q45 0 86 -26q94 -62 136 -241t42 -414
q0 -85 -6 -174q-3 -36 -28.5 -59.5t-59.5 -23.5zM803 756l1 -2z" />
    <glyph glyph-name="n" unicode="n" horiz-adv-x="761" 
d="M169 5q-37 0 -63 26t-26 63q-5 243 -30 438l-7 58q-13 94 -18 195q0 36 24.5 61t63.5 27q31 0 55 -18.5t32 -48.5q108 153 222 153q47 0 91 -26q96 -63 147 -239t51 -406q0 -94 -10 -184q-5 -34 -30.5 -56t-59.5 -22q-39 2 -63 27.5t-24 62.5v9q10 85 10 172
q0 119 -17.5 229t-50.5 187q-25 60 -46 67q-3 0 -11 -5q-71 -39 -176 -286q21 -171 24 -395q0 -37 -25 -62t-63 -27z" />
    <glyph glyph-name="o" unicode="o" horiz-adv-x="846" 
d="M414 -1q-32 0 -61 13h-1q-65 31 -100 104.5t-35 168.5t41 197q12 25 34 39.5t47 14.5q36 0 62.5 -26.5t26.5 -63.5q0 -17 -7 -35q-26 -64 -26 -124q0 -34 7.5 -65.5t18.5 -43.5q99 23 148 121t49 204q0 58 -14 112.5t-44.5 89t-78.5 34.5q-37 0 -85 -21.5t-92 -67
t-73 -117.5t-29 -173q0 -45 6 -81q3 -23 5 -49q0 -77 -89 -88q-32 0 -56.5 20.5t-30.5 53.5q-12 78 -12 146q0 147 46.5 252.5t117.5 172.5t150 99t144 32q97 0 167 -56.5t108 -150.5t38 -207q0 -114 -39.5 -223t-119 -185t-198.5 -95q-13 -2 -25 -2z" />
    <glyph glyph-name="p" unicode="p" horiz-adv-x="773" 
d="M118 -714q-37 0 -62.5 25t-27.5 62q-3 109 -3 215q0 626 76 1217q5 35 30 56.5t58 21.5q40 -3 64 -27.5t24 -62.5v-9q38 14 63.5 17.5t61.5 5.5q90 0 162.5 -44.5t115.5 -122.5t43 -179q0 -43 -9 -90q-11 -53 -42.5 -111.5t-81.5 -111t-117.5 -86t-150.5 -33.5
q-32 0 -53 3.5t-55 12.5q-12 -224 -12 -464q0 -68 2 -128l1 -78q0 -36 -24.5 -61.5t-62.5 -27.5zM322 206q45 0 83 22q75 44 108 112.5t33 121.5q0 76 -41.5 122t-105.5 46q-68 0 -147 -61q-15 -158 -28 -337q53 -26 98 -26z" />
    <glyph glyph-name="q" unicode="q" horiz-adv-x="773" 
d="M630 -714q-38 2 -62.5 27.5t-24.5 61.5l1 85q2 64 2 133q0 234 -12 452q-34 -9 -55 -12.5t-53 -3.5q-92 0 -166 42q-119 68 -177 178.5t-58 211.5q0 97 41.5 175.5t114 124.5t165.5 46q36 -2 62 -5.5t63 -17.5v9q0 38 24 62.5t64 27.5q33 0 58 -21.5t30 -56.5
q76 -591 76 -1217q0 -106 -3 -215q-2 -37 -27.5 -62t-62.5 -25zM427 206q44 0 97 26q-12 179 -28 337q-79 61 -147 61q-64 0 -105.5 -46t-41.5 -123q0 -26 6 -55q7 -37 36.5 -83.5t76.5 -81.5t106 -35z" />
    <glyph glyph-name="r" unicode="r" horiz-adv-x="671" 
d="M168 5q-37 0 -62 25.5t-27 63.5q0 132 -10 243q-10 119 -28 273q-11 85 -16 175q0 36 24 61t63 27q31 0 55 -18t32 -48q109 152 222 152q60 0 108 -37.5t82 -102.5q10 -20 10 -42q0 -36 -26 -62t-62 -26q-48 0 -79 47q-25 45 -34 45q-24 -4 -74.5 -74.5t-112.5 -217.5
q20 -179 23 -397q0 -36 -25.5 -60.5t-62.5 -26.5z" />
    <glyph glyph-name="s" unicode="s" horiz-adv-x="706" 
d="M389 -6q-86 0 -170 31.5t-139 91t-55 142.5q0 34 11 75t36 71t66 30q36 0 62.5 -26t26.5 -63q0 -22 -10 -41t-10 -35q0 -33 29.5 -55t71 -33t79.5 -11q45 0 71 10t26 37q0 35 -61.5 108.5t-211.5 191.5q-97 77 -97 167q0 68 46.5 124.5t114.5 90.5t135 34q73 0 122.5 -40
t49.5 -118q0 -22 -4 -47q-7 -33 -31.5 -53t-56.5 -20q-89 12 -89 90l1 11q-24 -2 -53 -17t-46 -36q-4 -6 -4 -13q0 -14 21 -33q336 -265 336 -458q0 -63 -34.5 -108.5t-90.5 -70t-125 -27.5h-17z" />
    <glyph glyph-name="t" unicode="t" horiz-adv-x="892" 
d="M579 33q-125 0 -213 129q-104 154 -122 498l-132 -7q-36 0 -60.5 24.5t-26.5 63.5q0 35 24 60.5t60 28.5l132 7q2 242 48 583q6 34 30 55.5t57 21.5q90 -11 90 -89l-1 -11q-44 -326 -48 -550l124 7q39 0 62.5 -25.5t25.5 -64.5q0 -34 -23.5 -59.5t-59.5 -27.5l-128 -7
q9 -167 36.5 -268.5t63 -146t65.5 -44.5q33 3 57 30.5t24 57.5q0 15 -8 26q-21 27 -21 57q0 36 26 62.5t62 26.5q39 0 65.5 -28t40 -67.5t13.5 -74.5q0 -67 -35.5 -128.5t-95.5 -100.5t-132 -39z" />
    <glyph glyph-name="u" unicode="u" horiz-adv-x="756" 
d="M618 -7q-35 0 -60 23t-29 59l-5 61q-102 -143 -212 -143q-48 0 -92 28q-99 67 -147 250t-48 399q0 97 10 189q5 35 30.5 57t58.5 22q40 -2 64 -27.5t24 -62.5v-9q-10 -88 -10 -178q0 -171 33.5 -314t78.5 -175l9 5q70 40 174 284q-16 208 -18 410q0 38 26 62t64 25
q36 0 61.5 -26t25.5 -62q7 -320 37 -624q13 -157 13 -164q0 -35 -23 -60t-59 -29h-6z" />
    <glyph glyph-name="v" unicode="v" horiz-adv-x="747" 
d="M283 8q-71 0 -129 74.5t-93.5 244.5t-35.5 459v64q0 37 26.5 62.5t63.5 25.5q37 -2 62 -27t25 -61l-1 -108q0 -557 85 -557q37 0 92 91t98.5 214.5t43.5 220.5q0 70 -17 70q-37 0 -63 26t-26 63t26 63t63 26q70 0 112.5 -32t62 -87.5t19.5 -128.5q0 -99 -34 -220
t-92 -230.5t-131 -181t-152 -71.5h-5z" />
    <glyph glyph-name="w" unicode="w" horiz-adv-x="1132" 
d="M301 -12q-51 0 -98 35.5t-82 110.5q-96 221 -96 660v56q0 37 26.5 62.5t62.5 25.5q37 -2 62.5 -27t25.5 -61v-52q0 -403 80 -590q12 -24 19 -36q60 51 140 286q-18 149 -18 337v55q2 38 27.5 63t62.5 25q37 -2 62 -27t25 -61v-53q0 -179 16 -320.5t37.5 -223t37.5 -81.5
q25 3 78 93q66 118 110.5 276.5t44.5 219.5q0 20 -7 23q-30 9 -47 33t-17 53q0 35 25 61.5t63 26.5q67 0 104 -69t37 -170q0 -113 -38 -247.5t-91.5 -241.5t-119.5 -171t-140 -64q-115 0 -184 166q-98 -173 -208 -173zM310 164q0 2 -2 2l1 -2h1z" />
    <glyph glyph-name="x" unicode="x" horiz-adv-x="830" 
d="M692 -29q-35 0 -64 27q-139 146 -226 293q-87 -147 -225 -293q-29 -27 -64 -27t-61.5 26.5t-26.5 62.5q0 33 25 62q80 82 139.5 168.5t110.5 174.5q-51 88 -110.5 174t-139.5 169q-25 29 -25 62q0 36 26.5 62t62.5 26q34 0 63 -26q139 -145 225 -294q87 149 226 294
q29 26 63 26q36 0 62.5 -26t26.5 -62q0 -33 -25 -62q-80 -83 -139.5 -169t-110.5 -174q51 -88 110.5 -174.5t139.5 -168.5q25 -29 25 -62q0 -36 -26.5 -62.5t-61.5 -26.5z" />
    <glyph glyph-name="y" unicode="y" horiz-adv-x="887" 
d="M384 -663q-84 0 -154 35t-111.5 101t-41.5 158q0 164 99 164q36 0 62 -26t26 -63q0 -20 -5 -39t-5 -37q0 -56 35 -86t94 -30q37 0 79 13q71 24 114.5 113.5t63.5 222t20 280.5l-1 66q-61 -53 -127 -78t-131 -25q-97 0 -182.5 55t-139.5 162t-54 263q0 124 41 277
q8 31 32 48.5t53 17.5q36 0 62 -25.5t26 -63.5q0 -11 -3 -23q-34 -131 -34 -231q0 -142 57.5 -222.5t141.5 -80.5q64 0 128 48.5t112 142.5q-23 215 -62 375q-3 11 -3 21q0 38 27 63t61 25q31 0 55 -18.5t32 -49.5q44 -178 69 -416l5 -64q12 -159 12 -267
q0 -187 -29.5 -351.5t-100.5 -278.5t-191 -155q-68 -21 -132 -21z" />
    <glyph glyph-name="z" unicode="z" horiz-adv-x="1039" 
d="M122 -7q-36 0 -62 27t-26 62q0 33 24 61l506 536q-74 -17 -146.5 -31t-137.5 -14q-78 0 -141.5 29t-103.5 103q-10 20 -10 41q0 37 26.5 63t62.5 26q24 0 45 -12.5t32.5 -34t35.5 -29.5t58 -8q49 0 110 11.5t127 27.5q73 17 146.5 31t138.5 14q37 0 63 -26t26 -63
q0 -39 -28 -65l-513 -543q141 17 274 17q360 0 360 -134q0 -35 -26 -61.5t-63 -26.5q-22 0 -43 11q-64 35 -218 35q-103 0 -190 -8.5t-166.5 -19.5t-160.5 -19z" />
    <glyph glyph-name="braceleft" unicode="{" horiz-adv-x="464" 
d="M275 -20q-50 0 -86 53q-27 39 -41 102q-12 50 -28 144q-12 84 -29.5 161t-49.5 118q-5 6 -8 14q-8 16 -8 32q0 39 39 63q33 20 54 91q17 58 37 157q32 191 94 245q26 23 62 23q28 0 62 -15q41 -24 41 -65q0 -15 -7 -30q-24 -41 -65 -41l-11 1q-20 -53 -38 -148
q-15 -82 -38 -161t-66 -135q27 -58 42 -129q12 -56 30 -159q14 -106 33 -164q10 3 20 3q33 0 58 -29q14 -20 14 -42q0 -33 -30 -58q-44 -31 -81 -31z" />
    <glyph glyph-name="bar" unicode="|" horiz-adv-x="240" 
d="M95 22q-29 0 -49.5 20.5t-20.5 50.5q0 29 19.5 49.5t49.5 21.5q13 1 13 30q0 44 -19 140q-14 76 -27 171.5t-14 197.5l-1 226q0 107 2 196q1 30 21.5 49.5t49.5 19.5q31 -1 51 -21.5t20 -49.5q-2 -89 -2 -196l1 -336q0 -150 -5.5 -279t-25 -208t-61.5 -82h-2z" />
    <glyph glyph-name="braceright" unicode="}" horiz-adv-x="483" 
d="M204 -8q-36 0 -80 31q-30 24 -30 57q0 22 14 42q25 30 59 30l15 -2q15 59 27 174l1 9q8 84 21.5 167t40.5 150q-47 57 -73.5 142t-44.5 174q-21 105 -46 162l-12 -1q-38 0 -62 36q-9 17 -9 35q0 38 36 62q36 20 66 20q60 0 102 -76q39 -80 63 -207q19 -90 43 -167.5
t58 -98.5q40 -25 40 -64q0 -24 -15 -43q-29 -44 -43 -129q-11 -63 -25 -187q-9 -85 -21.5 -154.5t-40.5 -110.5q-36 -51 -84 -51z" />
    <glyph glyph-name="asciitilde" unicode="~" horiz-adv-x="666" 
d="M96 294q-32 0 -57 29q-14 20 -14 42q0 32 29 57q74 55 161 55q49 0 132 -19l4 -1q47 -13 90 -13q35 0 65 18q19 12 40 12q34 0 59 -32q11 -19 11 -39q0 -35 -31 -60q-65 -42 -141 -42q-46 0 -127 18q-50 14 -96 14q-44 0 -82 -25q-21 -14 -43 -14z" />
    <glyph glyph-name="exclamdown" unicode="&#xa1;" horiz-adv-x="423" 
d="M283 1402l-4 5l2 7zM96 37q25 0 45.5 16.5t25.5 43.5q187 1085 188 1096q0 26 -16.5 46t-42.5 25l-13 1q-25 0 -44.5 -16.5t-24.5 -42.5q-188 -1085 -189 -1096q0 -26 17 -46q19 -24 54 -27zM301 1322q-3 4 -7 8.5t-8.5 11t-11.5 16.5q3 1 5.5 1t4 0.5t2.5 4t4 9.5l-7 29
l-4 5q-5 -19 -13 -36q-20 33 -20 51q0 22 23 22q32 0 68 -22.5t36 -49.5q0 -33 -72 -50z" />
    <glyph glyph-name="cent" unicode="&#xa2;" horiz-adv-x="678" 
d="M247 -11q-34 3 -53 26q-18 20 -18 47l21 141q-23 13 -44 29q-90 69 -118 165q-10 35 -10 70q0 68 41 130q56 87 208 124l27 181q5 27 24.5 44t45.5 17q36 -3 54 -24t18 -47q-1 -11 -22 -155l46 -1q30 -1 49.5 -22t19.5 -51q-2 -30 -22.5 -49.5t-49.5 -19.5l-34 1l-31 -1
l-43 -294l25 -1q65 0 143 37q16 8 33 8q38 0 63 -38q8 -16 8 -32q0 -39 -39 -64q-104 -54 -208 -54q-24 0 -46 3l-17 -108q-4 -27 -24 -44.5t-47 -17.5zM251 567q-48 -20 -68 -51q-16 -23 -16 -49q0 -15 5 -31q13 -42 49 -76z" />
    <glyph glyph-name="sterling" unicode="&#xa3;" horiz-adv-x="567" 
d="M95 115q-17 0 -32 8q-38 24 -38 63q0 12 3 20.5t9 20.5q94 171 114 246l-43 5q-28 3 -45.5 23t-17.5 47q1 31 18.5 49t41.5 22q-36 72 -36 134l1 20q7 78 69 140q33 33 76 50t85 17q64 0 111 -38q37 -29 49 -80q3 -15 3 -31q0 -86 -85 -193q-24 -27 -55 -27q-24 0 -45 16
q-26 24 -26 55q0 24 15 45q54 65 54 98l-1 8q-5 2 -11 3t-12 1q-29 0 -57 -24q-27 -26 -28 -53v-8q0 -22 7.5 -41.5t22.5 -47.5t29 -59l79 -8q28 -3 46 -23t18 -48q-1 -33 -22 -51.5t-48 -18.5q-20 0 -29 1.5t-23 2.5q-15 -82 -79 -203h233q29 0 50 -21t21 -50t-21 -50
t-50 -21z" />
    <glyph glyph-name="currency" unicode="&#xa4;" horiz-adv-x="532" 
d="M105 179q-25 0 -47 18q-25 23 -25 53q0 25 18 47l43 50q-14 36 -14 88q0 37 7 82q1 9 4 17l-49 57q-17 21 -17 46q0 30 25 54q21 17 46 17q30 0 54 -24l38 -44q28 9 57 9q37 -2 61 -7l49 57q24 25 54 25q25 0 46 -17q25 -24 25 -54q0 -25 -17 -47l-46 -53v-2
q15 -50 15 -104l-1 -28q-3 -35 -13 -65l47 -54q17 -22 17 -47q0 -30 -25 -54q-21 -17 -46 -17q-30 0 -54 25l-46 53q-36 -10 -70 -10q-20 0 -39 4q-22 -25 -44.5 -50t-52.5 -25zM241 391q17 0 45 9q3 25 4 50q0 29 -6 52q-11 3 -41 5q-7 0 -9 -1.5t-4 -1.5v-2l-3 -8
q-7 -43 -7 -66q0 -26 5.5 -31.5t15.5 -5.5z" />
    <glyph glyph-name="yen" unicode="&#xa5;" horiz-adv-x="589" 
d="M241 24q-33 0 -53 21.5t-20 51.5q3 69 4 142q0 50 2 103q-31 2 -61 3.5t-49 22t-19 48.5q1 31 22 51t49 20q25 0 35.5 -1t28.5 -2l3 39q-32 2 -62.5 3.5t-49.5 22t-19 48.5q1 31 22 51t49 20l76 -4l3 19l-169 312q-8 16 -8 33q0 38 37 63q17 9 34 9q38 0 62 -38l110 -203
q18 25 59 76q50 63 80 110q24 34 60 34q20 0 38 -11q34 -24 34 -60q0 -19 -11 -37q-44 -69 -87 -119q-35 -43 -60.5 -83t-34.5 -86l-4 -27q30 -1 59.5 -3t48.5 -22t19 -48q-1 -33 -21.5 -52.5t-48.5 -19.5l-74 4l-3 -39l74 -4q29 -2 48 -22.5t19 -48.5q-1 -31 -22 -51
t-49 -20l-76 4q-2 -50 -2 -97q-1 -78 -4 -145q-1 -29 -21 -48.5t-48 -19.5z" />
    <glyph glyph-name="brokenbar" unicode="&#xa6;" horiz-adv-x="278" 
d="M125 600q-34 1 -52.5 22.5t-18.5 48.5q0 6 33 365q3 28 23 46t47 18q34 -1 52.5 -22t18.5 -48q0 -7 -32 -366q-3 -28 -23 -46t-48 -18zM114 52q-23 0 -41.5 13t-26.5 36q-21 82 -21 178q1 91 11 200l1 14q4 28 24.5 46.5t47.5 18.5q32 -1 51 -22.5t19 -48.5l-1 -20
q-10 -95 -11 -192q0 -75 15 -131q3 -10 3 -21q0 -22 -13.5 -41t-36.5 -27q-11 -3 -21 -3z" />
    <glyph glyph-name="section" unicode="&#xa7;" horiz-adv-x="581" 
d="M396 612q-34 0 -59 33q-50 80 -201 198q-79 61 -79 133q0 52 35.5 98t90.5 74t114 28q57 0 96.5 -31.5t39.5 -93.5q0 -18 -4 -39q-5 -26 -25 -42.5t-45 -16.5q-72 10 -72 72l1 9q-18 -2 -41.5 -14t-37.5 -29q-4 -5 -4 -10q0 -11 18 -26q177 -139 234 -233q11 -18 11 -38
q0 -29 -21.5 -50.5t-50.5 -21.5zM314 40q-69 0 -135.5 26t-110 74t-43.5 112q0 27 9 60t29 57t53 24q28 0 49.5 -20.5t21.5 -50.5q0 -17 -8 -32t-8 -28q0 -27 23.5 -44.5t56.5 -26.5t63 -9q37 0 58 7.5t21 29.5q0 68 -219 241q-75 61 -75 135q0 53 35 98.5t88 72.5t110 28
q46 0 82 -21.5t51 -68.5q3 -10 3 -20q0 -30 -21 -51t-50 -21q-21 0 -39.5 12t-26.5 33v-5q-15 -1 -35.5 -9.5t-36 -20.5t-17.5 -25q0 -8 20 -25q269 -213 269 -366q0 -52 -28 -88t-73 -56t-100 -22h-16zM331 653l-3 12q2 -4 3 -12z" />
    <glyph glyph-name="dieresis" unicode="&#xa8;" horiz-adv-x="704" 
d="M534 994q20 2 24 6l2 8l-2 14q-8 15 -25 24q-14 6 -26 6q-9 0 -13.5 -3.5t-7.5 -10.5q3 -26 13.5 -35t34.5 -9zM541 899q-64 0 -104.5 34.5t-45.5 104.5l1 12q10 48 42 72t71 24h6q32 0 62 -14q52 -25 75 -78q6 -24 6 -45q0 -39 -20 -66q-30 -39 -93 -44zM168 994
q20 2 22.5 5t2.5 10l-1 13q-8 16 -26 24q-12 6 -26 6q-16 0 -20 -14q3 -26 13.5 -35t34.5 -9zM175 899q-64 0 -105 34q-45 39 -45 117q11 48 43 72t71 24h6q30 0 62 -14q51 -25 75 -78h-1q7 -18 7 -44q0 -39 -21 -67q-30 -39 -92 -44z" />
    <glyph glyph-name="copyright" unicode="&#xa9;" horiz-adv-x="932" 
d="M482 183q-78 0 -132 26t-85 67q-44 60 -44 128q1 73 44 137q35 49 94.5 80t141.5 31q30 0 63 -5q26 -5 43 -25t17 -45q-3 -36 -24 -54t-47 -18l-11 1q-22 3 -42 3q-43 0 -73 -14t-47 -38t-17 -50q0 -24 13.5 -42.5t39.5 -29t66 -10.5q25 0 55 5l11 1q26 0 46 -17
q23 -19 26 -54q0 -26 -17 -45.5t-43 -24.5q-42 -7 -78 -7zM475 151q117 12 185 97q39 47 59.5 105t20.5 116q0 75 -37 128t-94 82q-66 35 -150 36q-61 0 -120 -19q-64 -22 -109 -71q-63 -67 -63 -181q1 -101 61.5 -183.5t182.5 -105.5q30 -4 64 -4zM468 9q-41 0 -78 6
q-175 28 -274 158q-91 127 -91 270q0 39 6 78q21 121 91.5 198t169.5 111q77 27 158 27q120 0 224 -51q90 -46 147 -129q60 -87 61 -210q0 -82 -29.5 -163t-83.5 -147q-52 -62 -123.5 -101.5t-160.5 -46.5h-17z" />
    <glyph glyph-name="ordfeminine" unicode="&#xaa;" horiz-adv-x="479" 
d="M130 841q-7 0 -11.5 1t-10.5 1q-30 6 -54 28q-4 3 -7 8q-22 33 -22 71l2 23q7 43 33.5 81.5t64.5 65.5q53 38 114 38l24 -2q18 -3 29.5 -16t11.5 -31q-1 -14 -8 -26q9 -12 9 -27v-3q4 -69 27 -88q13 -10 29 -10l21 2q17 0 30.5 -11.5t16.5 -36.5q0 -16 -11 -29
q-16 -20 -56 -20q-51 0 -93 34q-10 9 -18 19l-6 -7q-30 -39 -68 -55q-23 -10 -47 -10zM130 936q4 0 10 3q12 5 25 18q30 33 45 101q-42 -15 -71 -56q-16 -23 -19 -52q0 -7 2 -13z" />
    <glyph glyph-name="guillemotleft" unicode="&#xab;" horiz-adv-x="531" 
d="M410 174q-34 0 -59 31l-99 149q-13 19 -13 40t12 40l100 150q25 31 59 31q21 0 40 -12q31 -24 31 -59q0 -20 -12 -39l-74 -110l74 -111q12 -19 12 -39q0 -34 -31 -59q-19 -12 -40 -12zM196 174q-34 0 -59 31l-99 149q-13 19 -13 41q0 20 12 39l100 150q25 31 59 31
q21 0 40 -12q31 -24 31 -58q0 -21 -12 -40l-73 -110l73 -111q12 -19 12 -40q0 -33 -31 -58q-19 -12 -40 -12z" />
    <glyph glyph-name="logicalnot" unicode="&#xac;" horiz-adv-x="553" 
d="M432 248q-29 0 -50 21t-21 50v93l-271 20q-28 3 -46.5 23t-18.5 47q1 34 22 53t48 19l342 -25q29 -3 47.5 -23t18.5 -48v-159q0 -29 -21 -50t-50 -21z" />
    <glyph glyph-name="registered" unicode="&#xae;" horiz-adv-x="996" 
d="M366 209q-18 0 -31.5 12.5t-15.5 31.5q-2 44 -2 91l1 80q-23 3 -35 16.5t-12 30.5q3 25 16.5 37t30.5 12l7 -1l7 68q-36 5 -42 47q0 16 9.5 28.5t25.5 17t31 7.5q15 13 34 13q13 0 21 -5l32 2q73 0 108 -29q43 -34 43 -82q-1 -52 -38 -93q-28 -30 -74 -50q21 -21 40 -44
q25 -29 47.5 -51t39.5 -23.5t29.5 -15t12.5 -31.5q-1 -22 -15 -35t-32 -13q-43 1 -81 34q-28 23 -72 72q-19 23 -39 43v-33q0 -47 2 -91q0 -18 -12.5 -31.5t-31.5 -14.5h-4zM565 170q199 17 234 182q5 25 5 50q0 50 -18 101q-35 106 -138 175q-92 55 -180 55q-28 0 -55 -5
q-84 -18 -147 -73t-87 -136q-11 -38 -11 -80q0 -71 37 -151q40 -70 130 -95q83 -23 211 -23h19zM549 28q-154 0 -254 29q-154 44 -216 167q-54 112 -54 215q0 63 17 120q37 121 129.5 202.5t215.5 105.5q41 8 84 8q133 0 254 -77q146 -98 196 -249q25 -72 25 -145
q0 -169 -120 -278q-91 -84 -251 -98h-26zM421 521q43 13 65 36q12 15 14 26q0 5 -5 8q-15 12 -52 12h-13q-6 -42 -9 -82z" />
    <glyph glyph-name="macron" unicode="&#xaf;" horiz-adv-x="578" 
d="M96 1037q-29 0 -50 21t-21 51q0 29 21 50t50 21h360q30 0 51 -21t21 -50q0 -30 -21 -51t-51 -21h-360z" />
    <glyph glyph-name="degree" unicode="&#xb0;" horiz-adv-x="338" 
d="M168 1139q20 2 24 6l2 8l-2 14q-8 15 -25 24q-14 6 -26 6q-9 0 -13.5 -3.5t-7.5 -10.5q3 -26 13.5 -35t34.5 -9zM175 1044q-64 0 -104.5 34.5t-45.5 104.5l1 12q10 48 42 72t71 24h6q32 0 62 -14q52 -25 75 -78q6 -24 6 -45q0 -39 -20 -66q-30 -39 -93 -44z" />
    <glyph glyph-name="plusminus" unicode="&#xb1;" horiz-adv-x="619" 
d="M95 28q-29 0 -49 20t-21 50q0 29 21 50t50 21l395 2q29 0 50 -20.5t21 -50.5q0 -29 -20.5 -50t-50.5 -21zM285 199q-34 1 -53 22.5t-19 48.5l9 108q-85 -7 -92 -7q-27 0 -47.5 18.5t-21.5 52.5q0 27 18 47t46 23l110 10l6 76q3 29 23 47t48 18q34 -1 52.5 -22t18.5 -48
l-4 -58q113 10 119 10q27 0 48.5 -19.5t22.5 -51.5q0 -27 -18.5 -47t-46.5 -24l-138 -12l-11 -127q-3 -29 -23 -47t-47 -18z" />
    <glyph glyph-name="uni00B2" unicode="&#xb2;" horiz-adv-x="348" 
d="M101 839q-14 0 -26 8q-18 12 -21 31q-3 14 -3 25q0 44 39 55q53 91 54 123q-24 -7 -26 -15q-4 -16 -17 -26t-29 -10l-12 2q-16 4 -25.5 17t-9.5 29l1 12q9 28 36 51q43 36 92 36q19 0 36 -7q45 -20 49 -80q0 -49 -47 -144q35 -11 40 -11q9 4 18 4q28 0 44 -30q4 -9 4 -18
q0 -28 -30 -44q-16 -6 -33 -6q-28 0 -72 15l-21 7q-16 -24 -41 -24z" />
    <glyph glyph-name="uni00B3" unicode="&#xb3;" horiz-adv-x="291" 
d="M113 844q-37 4 -63 40q-8 12 -8 26q0 23 21 39q13 8 27 8q20 0 36 -17q5 3 10 9q10 12 10 25q-21 0 -35 14t-14 33q0 10 4.5 19.5t10.5 21.5l15 28l-2 1q-1 0 -2.5 -5t-7.5 -14.5t-20 -17.5q-11 -5 -22 -5q-25 0 -42 25q-6 11 -6 22q0 25 25 42q63 32 100 32q42 0 60 -35
q8 -16 8 -35q0 -26 -9 -51q27 -27 31 -56l1 -16q0 -49 -31 -87q-37 -47 -86 -47z" />
    <glyph glyph-name="acute" unicode="&#xb4;" horiz-adv-x="280" 
d="M96 848q-36 0 -57 29q-14 20 -14 42q0 10 3 20l63 211q7 24 26 37.5t42 13.5q36 0 57 -29q14 -19 14 -42q0 -10 -3 -20l-63 -211q-7 -23 -26 -37t-42 -14z" />
    <glyph glyph-name="mu" unicode="&#xb5;" horiz-adv-x="500" 
d="M115 -81q-25 0 -45 16.5t-25 43.5q-20 139 -20 274q0 132 10 263q9 148 9 257q0 29 21 50t50 21q30 0 51 -21t21 -50l-1 -61q5 -229 52 -285l5 7q50 64 59 232q-2 57 -2 103l-1 6q0 28 19.5 49.5t52.5 22.5q26 0 46 -17q25 -22 25 -58q2 -40 2 -77v-27q0 -31 2 -61
q4 -82 4 -165q0 -89 -8 -179q-4 -28 -24 -45.5t-47 -17.5q-34 1 -52.5 22t-18.5 48v7q2 10 2 22q-25 -16 -54 -18l-14 -1q-34 0 -66 20l-1 -53q0 -123 18 -246l1 -12q0 -26 -16.5 -45t-43.5 -24zM235 422h-1h1zM234 423l-1 -1h1v1z" />
    <glyph glyph-name="paragraph" unicode="&#xb6;" horiz-adv-x="602" 
d="M481 94q-30 0 -50.5 21t-20.5 50v551h-45v-551q0 -29 -21 -50t-51 -21q-29 0 -50 21t-21 50v284q-111 21 -161 92q-35 45 -36 102q0 104 104 167q58 35 151 48h7v1h123q0 30 20.5 51t50.5 21q29 0 50 -21t21 -51v-694q0 -29 -21 -50t-50 -21zM222 699q-40 -16 -51 -39
q-4 -7 -4 -13q3 -34 55 -52v104z" />
    <glyph glyph-name="periodcentered" unicode="&#xb7;" horiz-adv-x="370" 
d="M191 394l-4 -1q-66 0 -111 38.5t-51 114.5l1 17q12 56 49 83t86 28q35 0 69 -16q57 -26 83 -86h-1q8 -17 8 -51q0 -44 -24 -76q-34 -46 -105 -52v1z" />
    <glyph glyph-name="periodcentered" unicode="&#x2219;" horiz-adv-x="370" 
d="M191 394l-4 -1q-66 0 -111 38.5t-51 114.5l1 17q12 56 49 83t86 28q35 0 69 -16q57 -26 83 -86h-1q8 -17 8 -51q0 -44 -24 -76q-34 -46 -105 -52v1z" />
    <glyph glyph-name="cedilla" unicode="&#xb8;" horiz-adv-x="348" 
d="M92 -310q-29 2 -48 22.5t-19 48.5q1 31 21.5 51t48.5 20h16q34 0 42 8q2 1 3 9q0 12 -5 29q-17 57 -56 103q-17 21 -17 48q0 9 2 18l20 70q7 24 26 38t42 14q10 0 19 -2q24 -7 38 -26.5t14 -42.5q0 -10 -2 -19l-10 -36q42 -61 62 -128q9 -32 9 -64q0 -101 -90 -143
q-39 -18 -98 -18h-18z" />
    <glyph glyph-name="uni00B9" unicode="&#xb9;" horiz-adv-x="240" 
d="M106 827q-22 1 -34.5 16t-12.5 32q0 6 18 132h-4q-28 0 -44 30q-4 9 -4 18q0 28 31 44q8 3 14 15q10 21 40 52q15 14 33 14t34 -14q13 -15 13 -33q0 -7 -37 -265q-3 -18 -16.5 -29.5t-30.5 -11.5z" />
    <glyph glyph-name="ordmasculine" unicode="&#xba;" horiz-adv-x="308" 
d="M129 910q18 12 26 44t8 67q-2 40 -7 62q-9 -15 -23 -45q-14 -46 -14 -80q0 -31 10 -48zM127 814q-42 0 -69 33q-33 38 -33 110q0 50 19 112q0 3 2 6q45 98 89 112q16 6 31 6q43 0 68 -50q21 -45 24 -117q0 -60 -22 -118t-69 -84q-3 -3 -8 -4q-16 -6 -32 -6z" />
    <glyph glyph-name="guillemotright" unicode="&#xbb;" horiz-adv-x="531" 
d="M96 174q-21 0 -40 12q-31 25 -31 59q0 20 12 39l74 111l-74 110q-12 19 -12 39q0 35 31 59q19 12 40 12q34 0 59 -31l100 -150q12 -19 12 -40t-12 -40l-100 -149q-25 -31 -59 -31zM310 174q-21 0 -40 12q-31 25 -31 59q0 20 12 39l74 111l-74 110q-12 19 -12 39
q0 35 31 59q19 12 40 12q34 0 59 -31l100 -150q12 -19 12 -40t-13 -40l-99 -149q-25 -31 -59 -31z" />
    <glyph glyph-name="onequarter" unicode="&#xbc;" horiz-adv-x="625" 
d="M96 13q-12 0 -25 5q-22 9 -34 27t-12 39q0 13 5 26l407 1071q24 47 67 47q12 0 25 -5q46 -24 46 -67q0 -12 -5 -25l-407 -1072q-24 -46 -67 -46zM494 37q-23 1 -36 15.5t-13 33.5l8 115q-105 -23 -115 -24q-10 0 -20 5q-27 16 -27 43q0 10 4 20l93 198q16 26 43 26
q10 0 20 -4q26 -16 26 -43q0 -10 -4 -20l-52 -111l37 8v24q-3 8 -3 16q0 30 32 45q8 3 16 3q14 0 26.5 -8.5t16.5 -22t4 -51.5q22 -14 22 -41q0 -26 -24 -41q-3 -71 -8 -136v-6q-2 -19 -15 -31.5t-31 -12.5zM236 881q-25 3 -36.5 17.5t-11.5 30.5q1 8 21 109l-9 -1
q-28 0 -45 30q-3 9 -3 17q0 29 30 45q17 6 25 15t19 29l19 32q16 23 40 23q13 0 25 -7q23 -16 23 -41q-1 -8 -50 -261q-4 -17 -17 -27.5t-30 -10.5z" />
    <glyph glyph-name="onehalf" unicode="&#xbd;" horiz-adv-x="665" 
d="M405 37q-10 0 -21 5q-22 12 -27 35q-3 14 -3 26q0 41 33 53q25 50 46 104q-25 2 -39 13q-22 18 -23 47q0 13 6 27.5t18.5 27.5t24.5 18h2l-1 1q27 9 47 9q48 0 66 -50q4 -13 4 -31q0 -62 -49 -172q22 -7 38.5 -12t21.5 -5q9 4 19 4q28 0 43 -30q4 -9 4 -18q0 -27 -30 -43
q-16 -7 -34 -7q-24 0 -44 5.5t-43 13.5l-17 6q-16 -27 -42 -27zM236 881q-24 2 -35.5 16.5t-11.5 30.5q1 9 20 110l-9 -1q-28 0 -45 30q-3 9 -3 17q0 29 30 45q17 6 25 15t19 29l2 2q8 16 17 30q16 23 40 23q13 0 25 -7q23 -16 23 -41q-1 -8 -50 -261q-4 -17 -17 -27.5
t-30 -10.5zM96 13q-12 0 -25 5q-46 24 -46 67q0 12 5 25l407 1071q24 47 67 47q12 0 25 -5q46 -24 46 -67q0 -12 -5 -25l-407 -1072q-24 -46 -67 -46z" />
    <glyph glyph-name="threequarters" unicode="&#xbe;" horiz-adv-x="625" 
d="M96 13q-12 0 -25 5q-22 9 -34 27.5t-12 39.5q0 13 4 25l408 1071q9 22 27 34.5t39 12.5q13 0 25 -5q47 -24 47 -67q0 -12 -5 -25l-408 -1072q-23 -46 -66 -46zM188 885q-38 4 -65 42q-8 12 -8 26q0 23 21 39q13 8 26 8q23 0 39 -20q10 5 16 13q12 14 12 31v3h-6
q-20 0 -34 14t-14 34q0 12 8 26q24 48 24 52l-1 1q-2 0 -4.5 -5t-10.5 -14.5t-25 -19.5q-11 -6 -22 -6q-25 0 -42 25q-5 11 -5 22q0 25 25 42q67 35 107 35q23 0 38 -10t23.5 -26.5t8.5 -35.5q0 -29 -11 -58q19 -19 28 -37q7 -14 7 -41q0 -50 -32 -91q-40 -50 -91 -50z
M491 37q-20 2 -33 15.5t-13 32.5l7 116q-105 -23 -114 -24q-10 0 -21 5q-27 16 -27 42q0 11 5 21l92 198q16 26 43 26q10 0 20 -4q27 -16 27 -43q0 -10 -4 -20l-52 -111l35 8l1 12l-1 5q-3 8 -3 16q0 28 32 44q8 3 16 3q30 0 45 -31q2 -10 2 -42q18 -11 23 -31l1 -11
q0 -26 -25 -41l-7 -141q-2 -19 -15.5 -32t-33.5 -13z" />
    <glyph glyph-name="questiondown" unicode="&#xbf;" horiz-adv-x="617" 
d="M194 -10q-83 0 -131 52q-38 41 -38 124q0 100 85 359q39 115 77 216t61 151q25 41 65 41q15 0 30 -7q41 -25 41 -65q0 -15 -7 -30q-22 -46 -58.5 -142.5t-73.5 -208.5q-58 -176 -76 -276q-3 -19 -3 -32q0 -20 5 -29t12 -9.5t13 -1.5q37 0 88 25q64 31 110 76q10 9 30 12
q9 1 9 3l-1 2q-21 23 -21 51q0 27 21 50q23 21 50 21t50 -21q35 -37 35 -80q0 -68 -72 -138q-63 -62 -151 -105q-79 -38 -150 -38zM324 986q-34 0 -58 31q-8 10 -11 22q-17 57 -17 96q0 41 13 64q28 53 79 53q24 0 48 -12q50 -25 63 -91q1 -9 1 -19q0 -74 -77 -131
q-20 -13 -41 -13z" />
    <glyph glyph-name="Agrave" unicode="&#xc0;" 
d="M113 -16q-9 0 -18 2q-32 8 -51 32.5t-19 54.5q0 10 2 19l97 435l197 892q7 31 31 50t54 19q36 0 63 -25q198 -194 338 -488q52 -108 97 -229l5 -12q71 -195 127 -417q3 -11 3 -22q0 -29 -18.5 -53t-49.5 -32q-11 -3 -22 -3q-30 0 -54 18.5t-32 48.5q-42 172 -95 324
l-481 -152l-87 -392q-7 -32 -31.5 -51t-55.5 -19zM706 765q-107 263 -250 447l-125 -565zM403 1536q-33 0 -64 32l1 1h-1q-31 36 -51 93l-4 10q-14 38 -25.5 56.5t-11.5 38.5q0 35 31 60q19 12 40 12q34 0 59 -32q22 -35 39 -82l15 -37q20 -4 36 -20q21 -23 21 -50
q0 -28 -21 -50q-33 -32 -64 -32z" />
    <glyph glyph-name="Aacute" unicode="&#xc1;" 
d="M113 -16q-9 0 -18 2q-32 8 -51 32.5t-19 54.5q0 10 2 19l97 435l197 892q7 31 31 50t54 19q36 0 63 -25q198 -194 338 -488q52 -108 97 -229l5 -12q71 -195 127 -417q3 -11 3 -22q0 -29 -18.5 -53t-49.5 -32q-11 -3 -22 -3q-30 0 -54 18.5t-32 48.5q-42 172 -95 324
l-481 -152l-87 -392q-7 -32 -31.5 -51t-55.5 -19zM706 765q-107 263 -250 447l-125 -565zM420 1560q-36 0 -57 29q-14 20 -14 42q0 10 3 20l63 211q7 24 26 37.5t42 13.5q36 0 57 -29q14 -19 14 -42q0 -10 -3 -20l-63 -211q-7 -23 -26 -37t-42 -14z" />
    <glyph glyph-name="Acircumflex" unicode="&#xc2;" 
d="M113 -16q-9 0 -18 2q-32 8 -51 32.5t-19 54.5q0 10 2 19l97 435l197 892q7 31 31 50t54 19q36 0 63 -25q198 -194 338 -488q52 -108 97 -229l5 -12q71 -195 127 -417q3 -11 3 -22q0 -29 -18.5 -53t-49.5 -32q-11 -3 -22 -3q-30 0 -54 18.5t-32 48.5q-42 172 -95 324
l-481 -152l-87 -392q-7 -32 -31.5 -51t-55.5 -19zM706 765q-107 263 -250 447l-125 -565zM267 1521q-25 0 -47 19q-23 24 -23 52q0 26 19 48l138 150q24 23 53 23q21 0 40 -13l161 -112q30 -25 30 -58q0 -21 -13 -41q-24 -30 -58 -30q-21 0 -40 12l-111 77l-96 -104
q-24 -23 -53 -23z" />
    <glyph glyph-name="Atilde" unicode="&#xc3;" 
d="M113 -16q-9 0 -18 2q-32 8 -51 32.5t-19 54.5q0 10 2 19l97 435l197 892q7 31 31 50t54 19q36 0 63 -25q198 -194 338 -488q52 -108 97 -229l5 -12q71 -195 127 -417q3 -11 3 -22q0 -29 -18.5 -53t-49.5 -32q-11 -3 -22 -3q-30 0 -54 18.5t-32 48.5q-42 172 -95 324
l-481 -152l-87 -392q-7 -32 -31.5 -51t-55.5 -19zM706 765q-107 263 -250 447l-125 -565zM179 1558q-32 0 -57 29q-14 20 -14 42q0 32 29 57q74 55 161 55q49 0 132 -19l4 -1q47 -13 90 -13q35 0 65 18q19 12 40 12q34 0 59 -32q11 -19 11 -39q0 -35 -31 -60
q-65 -42 -141 -42q-46 0 -127 18q-50 14 -96 14q-44 0 -82 -25q-21 -14 -43 -14z" />
    <glyph glyph-name="Adieresis" unicode="&#xc4;" 
d="M113 -16q-9 0 -18 2q-32 8 -51 32.5t-19 54.5q0 10 2 19l97 435l197 892q7 31 31 50t54 19q36 0 63 -25q198 -194 338 -488q52 -108 97 -229l5 -12q71 -195 127 -417q3 -11 3 -22q0 -29 -18.5 -53t-49.5 -32q-11 -3 -22 -3q-30 0 -54 18.5t-32 48.5q-42 172 -95 324
l-481 -152l-87 -392q-7 -32 -31.5 -51t-55.5 -19zM706 765q-107 263 -250 447l-125 -565zM623 1648q20 2 24 6l2 8l-2 14q-8 15 -25 24q-14 6 -26 6q-9 0 -13.5 -3.5t-7.5 -10.5q3 -26 13.5 -35t34.5 -9zM630 1553q-64 0 -104.5 34.5t-45.5 104.5l1 12q10 48 42 72t71 24h6
q32 0 62 -14q52 -25 75 -78q6 -24 6 -45q0 -39 -20 -66q-30 -39 -93 -44zM257 1648q20 2 22.5 5t2.5 10l-1 13q-8 16 -26 24q-12 6 -26 6q-16 0 -20 -14q3 -26 13.5 -35t34.5 -9zM264 1553q-64 0 -105 34q-45 39 -45 117q11 48 43 72t71 24h6q30 0 62 -14q51 -25 75 -78h-1
q7 -18 7 -44q0 -39 -21 -67q-30 -39 -92 -44z" />
    <glyph glyph-name="Aring" unicode="&#xc5;" 
d="M113 -16q-9 0 -18 2q-32 8 -51 32.5t-19 54.5q0 10 2 19l97 435l197 892q7 31 31 50t54 19q36 0 63 -25q198 -194 338 -488q52 -108 97 -229l5 -12q71 -195 127 -417q3 -11 3 -22q0 -29 -18.5 -53t-49.5 -32q-11 -3 -22 -3q-30 0 -54 18.5t-32 48.5q-42 172 -95 324
l-481 -152l-87 -392q-7 -32 -31.5 -51t-55.5 -19zM706 765q-107 263 -250 447l-125 -565zM382 1687q20 2 24 6l2 8l-2 14q-8 15 -25 24q-14 6 -26 6q-9 0 -13.5 -3.5t-7.5 -10.5q3 -26 13.5 -35t34.5 -9zM389 1592q-64 0 -104.5 34.5t-45.5 104.5l1 12q10 48 42 72t71 24h6
q32 0 62 -14q52 -25 75 -78q6 -24 6 -45q0 -39 -20 -66q-30 -39 -93 -44z" />
    <glyph glyph-name="AE" unicode="&#xc6;" horiz-adv-x="1794" 
d="M1238 -21q-159 0 -263 118q-57 66 -92 158q-14 16 -20 37q-42 172 -95 324l-481 -152l-87 -392q-8 -32 -32.5 -51t-54.5 -19q-10 0 -19 2q-31 8 -50 32t-19 54q0 10 2 20l293 1327q8 31 32 50t54 19q37 0 62 -25q225 -220 377 -571q32 217 108 427q10 27 33 43t51 16h7
q30 0 65 2l40 1q80 5 161 5q100 0 198 -16t187 -62q47 -31 47 -78q0 -21 -11 -42q-31 -47 -78 -47q-21 0 -42 11q-64 33 -142.5 44.5t-161.5 11.5q-75 0 -151 -4q-28 0 -56 -2q-73 -225 -93 -445l447 11q35 0 60 -24.5t27 -62.5q0 -37 -25 -62.5t-62 -27.5l-453 -12
q2 -91 17 -170q26 -137 89 -212q49 -58 132 -58h14q132 5 347 171q26 19 54 19q40 0 71 -35q19 -25 19 -54q0 -39 -35 -70q-262 -201 -446 -208zM706 783q-107 263 -250 447l-125 -565z" />
    <glyph glyph-name="Ccedilla" unicode="&#xc7;" horiz-adv-x="937" 
d="M385 -33q-45 9 -85 31q-108 60 -173 185q-89 178 -101 410q-1 30 -1 59q0 150 34 275.5t91 221.5t129 159q88 79 184 103q41 11 81 11q62 0 121 -26q78 -34 136 -116t84 -215q2 -9 2 -18q0 -31 -20 -55t-52 -31l-17 -2q-31 0 -55.5 20t-31.5 53q-36 169 -118 202
q-23 10 -49 10q-18 0 -37 -5q-55 -14 -110 -63q-55 -48 -99 -124.5t-70 -177t-26 -221.5l1 -51q11 -194 81 -336q41 -79 98 -111q28 -15 63 -15q29 0 62 11q90 29 208 147q28 26 62 26t63 -26q26 -29 26 -63t-26 -63q-149 -148 -275 -189q-15 -5 -30 -9l-9 -33
q42 -61 62 -128q9 -32 9 -64q0 -24 -6 -47q-16 -64 -84 -96q-39 -18 -98 -18h-18q-29 2 -48 22.5t-19 48.5v4q2 29 22 48t48 19h16q27 0 39 5q2 1 3 2.5t2 2.5l1 7q0 12 -5 29q-17 57 -56 103q-17 21 -17 48q0 9 2 18z" />
    <glyph glyph-name="Egrave" unicode="&#xc8;" horiz-adv-x="996" 
d="M440 -39q-158 0 -262 118q-153 175 -153 535q0 333 130 705q10 27 33.5 43t50.5 16h7q30 0 65 2l40 1q80 5 161 5q101 0 198.5 -16t186.5 -62q47 -31 47 -78q0 -21 -11 -42q-31 -47 -78 -47q-21 0 -42 11q-64 33 -142 44.5t-162 11.5q-75 0 -151 -4q-28 0 -56 -2
q-73 -225 -93 -445l447 11q35 0 60 -24.5t27 -62.5q0 -37 -25 -62.5t-61 -27.5l-454 -12q7 -265 107 -382q49 -58 131 -58h14q132 5 347 171q26 19 55 19q40 0 70 -35q19 -26 19 -54q0 -40 -34 -70q-263 -201 -447 -208zM403 1536q-33 0 -64 32l1 1h-1q-31 36 -51 93l-4 10
q-14 38 -25.5 56.5t-11.5 38.5q0 35 31 60q19 12 40 12q34 0 59 -32q22 -35 39 -82l15 -37q20 -4 36 -20q21 -23 21 -50q0 -28 -21 -50q-33 -32 -64 -32z" />
    <glyph glyph-name="Eacute" unicode="&#xc9;" horiz-adv-x="996" 
d="M440 -39q-158 0 -262 118q-153 175 -153 535q0 333 130 705q10 27 33.5 43t50.5 16h7q30 0 65 2l40 1q80 5 161 5q101 0 198.5 -16t186.5 -62q47 -31 47 -78q0 -21 -11 -42q-31 -47 -78 -47q-21 0 -42 11q-64 33 -142 44.5t-162 11.5q-75 0 -151 -4q-28 0 -56 -2
q-73 -225 -93 -445l447 11q35 0 60 -24.5t27 -62.5q0 -37 -25 -62.5t-61 -27.5l-454 -12q7 -265 107 -382q49 -58 131 -58h14q132 5 347 171q26 19 55 19q40 0 70 -35q19 -26 19 -54q0 -40 -34 -70q-263 -201 -447 -208zM420 1560q-36 0 -57 29q-14 20 -14 42q0 10 3 20
l63 211q7 24 26 37.5t42 13.5q36 0 57 -29q14 -19 14 -42q0 -10 -3 -20l-63 -211q-7 -23 -26 -37t-42 -14z" />
    <glyph glyph-name="Ecircumflex" unicode="&#xca;" horiz-adv-x="996" 
d="M440 -39q-158 0 -262 118q-153 175 -153 535q0 333 130 705q10 27 33.5 43t50.5 16h7q30 0 65 2l40 1q80 5 161 5q101 0 198.5 -16t186.5 -62q47 -31 47 -78q0 -21 -11 -42q-31 -47 -78 -47q-21 0 -42 11q-64 33 -142 44.5t-162 11.5q-75 0 -151 -4q-28 0 -56 -2
q-73 -225 -93 -445l447 11q35 0 60 -24.5t27 -62.5q0 -37 -25 -62.5t-61 -27.5l-454 -12q7 -265 107 -382q49 -58 131 -58h14q132 5 347 171q26 19 55 19q40 0 70 -35q19 -26 19 -54q0 -40 -34 -70q-263 -201 -447 -208zM267 1521q-25 0 -47 19q-23 24 -23 52q0 26 19 48
l138 150q24 23 53 23q21 0 40 -13l161 -112q30 -25 30 -58q0 -21 -13 -41q-24 -30 -58 -30q-21 0 -40 12l-111 77l-96 -104q-24 -23 -53 -23z" />
    </font>
</defs>
</svg>
